<?xml version="1.0" encoding="UTF-8" standalone="no"?>
<!-- Created with Inkscape (http://www.inkscape.org/) -->

<svg
   width="200mm"
   height="200mm"
   viewBox="0 0 200 200"
   version="1.1"
   id="svg1"
   inkscape:version="1.3.2 (091e20e, 2023-11-25, custom)"
   sodipodi:docname="Los Gaznapiros.svg"
   inkscape:export-filename="Los Gaznapiros.png"
   inkscape:export-xdpi="127"
   inkscape:export-ydpi="127"
   xmlns:inkscape="http://www.inkscape.org/namespaces/inkscape"
   xmlns:sodipodi="http://sodipodi.sourceforge.net/DTD/sodipodi-0.dtd"
   xmlns="http://www.w3.org/2000/svg"
   xmlns:svg="http://www.w3.org/2000/svg">
  <sodipodi:namedview
     id="namedview1"
     pagecolor="#ffffff"
     bordercolor="#999999"
     borderopacity="1"
     inkscape:showpageshadow="0"
     inkscape:pageopacity="0"
     inkscape:pagecheckerboard="0"
     inkscape:deskcolor="#d1d1d1"
     inkscape:document-units="mm"
     inkscape:zoom="0.7385171"
     inkscape:cx="234.93024"
     inkscape:cy="382.5233"
     inkscape:window-width="1920"
     inkscape:window-height="1046"
     inkscape:window-x="-11"
     inkscape:window-y="-11"
     inkscape:window-maximized="1"
     inkscape:current-layer="layer1"
     showgrid="false" />
  <defs
     id="defs1">
    <inkscape:path-effect
       effect="skeletal"
       id="path-effect31"
       is_visible="true"
       lpeversion="1"
       pattern="M 0,4.9921383 C 0,2.236478 2.236478,0 4.9921383,0 c 2.7556604,0 4.9921384,2.236478 4.9921384,4.9921383 0,2.7556604 -2.236478,4.9921384 -4.9921384,4.9921384 C 2.236478,9.9842767 0,7.7477987 0,4.9921383 Z"
       copytype="single_stretched"
       prop_scale="0.98131865"
       scale_y_rel="false"
       spacing="0"
       normal_offset="0"
       tang_offset="0"
       prop_units="false"
       vertical_pattern="false"
       hide_knot="false"
       fuse_tolerance="0" />
    <rect
       x="18.191899"
       y="90.002029"
       width="716.18636"
       height="549.58686"
       id="rect27" />
    <rect
       x="29.112393"
       y="60.255883"
       width="290.4469"
       height="172.64326"
       id="rect14" />
    <inkscape:path-effect
       effect="fillet_chamfer"
       id="path-effect6"
       is_visible="true"
       lpeversion="1"
       nodesatellites_param="F,0,0,1,0,0,0,1 @ F,0,0,1,0,0,0,1 @ F,0,0,1,0,0,0,1 @ F,0,0,1,0,0,0,1 @ F,0,0,1,0,0,0,1 @ F,0,0,1,0,0,0,1 @ F,0,0,1,0,0,0,1 @ F,0,0,1,0,0,0,1 @ F,0,0,1,0,0,0,1 @ F,0,0,1,0,0,0,1 @ F,0,0,1,0,0,0,1 @ F,0,0,1,0,0,0,1 @ F,0,0,1,0,0,0,1 @ F,0,0,1,0,0,0,1 @ F,0,0,1,0,0,0,1 @ F,0,0,1,0,0,0,1 @ F,0,0,1,0,0,0,1 @ F,0,0,1,0,0,0,1 @ F,0,0,1,0,0,0,1 @ F,0,0,1,0,0,0,1 @ F,0,0,1,0,0,0,1 @ F,0,0,1,0,0,0,1 @ F,0,0,1,0,0,0,1"
       radius="0"
       unit="px"
       method="auto"
       mode="F"
       chamfer_steps="1"
       flexible="false"
       use_knot_distance="true"
       apply_no_radius="true"
       apply_with_radius="true"
       only_selected="false"
       hide_knots="false" />
    <inkscape:path-effect
       effect="fillet_chamfer"
       id="path-effect5"
       is_visible="true"
       lpeversion="1"
       nodesatellites_param="F,0,0,1,0,0,0,1 @ F,0,0,1,0,0,0,1 @ F,0,0,1,0,0,0,1 @ F,0,0,1,0,0,0,1 @ F,0,0,1,0,0,0,1 @ F,0,0,1,0,0,0,1 @ F,0,0,1,0,0,0,1 @ F,0,0,1,0,0,0,1 @ F,0,0,1,0,0,0,1 @ F,0,0,1,0,0,0,1 @ F,0,0,1,0,0,0,1 @ F,0,0,1,0,0,0,1 @ F,0,0,1,0,2.6518507,0,1 @ F,0,0,1,0,0,0,1 @ F,0,0,1,0,0,0,1 @ F,0,0,1,0,0,0,1 @ F,0,0,1,0,0,0,1 @ F,0,0,1,0,0,0,1 @ F,0,0,1,0,0,0,1 @ F,0,0,1,0,0,0,1 @ F,0,0,1,0,0,0,1 @ F,0,0,1,0,0,0,1 @ F,0,0,1,0,0,0,1"
       radius="0"
       unit="px"
       method="auto"
       mode="F"
       chamfer_steps="1"
       flexible="false"
       use_knot_distance="true"
       apply_no_radius="true"
       apply_with_radius="true"
       only_selected="false"
       hide_knots="false" />
    <inkscape:path-effect
       effect="skeletal"
       id="path-effect4"
       is_visible="true"
       lpeversion="1"
       pattern="M 0,4.9921383 C 0,2.236478 2.236478,0 4.9921383,0 c 2.7556604,0 4.9921384,2.236478 4.9921384,4.9921383 0,2.7556604 -2.236478,4.9921384 -4.9921384,4.9921384 C 2.236478,9.9842767 0,7.7477987 0,4.9921383 Z"
       copytype="single_stretched"
       prop_scale="0.98131865"
       scale_y_rel="false"
       spacing="0"
       normal_offset="0"
       tang_offset="0"
       prop_units="false"
       vertical_pattern="false"
       hide_knot="false"
       fuse_tolerance="0" />
    <inkscape:path-effect
       effect="bspline"
       id="path-effect3"
       is_visible="true"
       lpeversion="1.3"
       weight="33.333333"
       steps="2"
       helper_size="0"
       apply_no_weight="true"
       apply_with_weight="true"
       only_selected="false"
       uniform="false" />
    <rect
       x="116.81114"
       y="108.19393"
       width="658.73824"
       height="273.83595"
       id="rect21" />
    <rect
       x="-176.02842"
       y="-47.392267"
       width="1081.8977"
       height="551.10436"
       id="rect13" />
    <rect
       x="-128.63615"
       y="-24.373166"
       width="750.15188"
       height="318.20522"
       id="rect12" />
    <rect
       x="-403.5113"
       y="-10.832518"
       width="1337.816"
       height="630.99418"
       id="rect1" />
  </defs>
  <g
     inkscape:label="Capa 1"
     inkscape:groupmode="layer"
     id="layer1">
    <path
       id="text21"
       style="font-style:normal;font-variant:normal;font-weight:normal;font-stretch:normal;font-size:80.4142px;font-family:'GoodDog Cool';-inkscape-font-specification:'GoodDog Cool';letter-spacing:0px;white-space:pre;shape-inside:url(#rect21);fill:#000000;stroke-width:0.26458333;stroke-linecap:round;stroke-miterlimit:0;paint-order:markers fill stroke;stroke:#000000;stroke-opacity:1;stroke-dasharray:none"
       d="m 36.447295,93.643404 c -0.490088,0.127754 -0.930513,0.521571 -1.007924,1.041571 -0.05214,0.252281 0.01143,0.515687 0.09985,0.748669 0.09619,0.14938 0.184115,0.306781 0.347027,0.39148 0.113606,0.07999 0.24521,0.155804 0.262321,0.30929 0.367868,1.034604 0.722666,2.074092 1.049093,3.122899 0.03794,0.129229 0.09722,0.323494 0.14335,0.477674 0.131986,0.444003 0.259008,0.895573 0.366287,1.328893 0.03505,0.15264 0.07137,0.27805 0.09534,0.41767 -0.22452,0.26878 -0.465497,0.59503 -0.387843,0.9683 0.12727,0.68316 0.80851,1.12707 1.465864,1.16934 0.90494,0.0917 1.774248,-0.34726 2.443457,-0.93112 1.057681,-0.86564 1.771271,-2.16032 2.020353,-3.480599 0.03372,0.114271 0.06564,0.237373 0.0836,0.318571 0.197588,0.951108 0.308654,1.967648 0.869084,2.787688 0.24231,0.3252 0.689613,0.37654 1.057345,0.27823 0.456612,-0.0639 0.911815,-0.15861 1.3357,-0.34814 0.685671,-0.2758 1.281057,-0.72189 1.879075,-1.14897 0.344342,-0.25605 0.728109,-0.46268 1.040561,-0.75945 0.391186,-0.388753 0.466876,-1.011249 0.263475,-1.510876 -0.119738,-0.387998 -0.522523,-0.662532 -0.925523,-0.626514 -0.266452,0.05885 -0.470324,0.25587 -0.698801,0.396314 -0.648801,0.428748 -1.228404,0.980063 -1.954368,1.278079 -0.147516,0.104435 -0.199816,-0.0018 -0.225827,-0.146417 -0.107841,-0.345079 -0.244594,-0.682342 -0.342017,-1.029565 -0.02083,-0.173494 -0.06682,-0.380753 0.03709,-0.535271 0.494115,-0.371768 1.155115,-0.366173 1.680167,-0.679127 0.399394,-0.217971 0.754882,-0.587875 0.851599,-1.042737 -0.04123,-0.161594 -0.03291,-0.345065 -0.104604,-0.49321 -0.34421,-0.488381 -0.968048,-0.724369 -1.550679,-0.636294 -0.51292,0.05673 -0.989399,0.336813 -1.494879,0.381458 -0.07318,-0.46055 -0.313788,-0.87768 -0.370166,-1.340492 -0.03455,-0.186729 0.155957,-0.273811 0.304267,-0.307849 0.582034,-0.09281 1.199225,0.04832 1.759522,-0.186563 0.458158,-0.208739 0.825442,-0.69088 0.81053,-1.209674 -0.01522,-0.36512 -0.279577,-0.686926 -0.627157,-0.78362 -1.172652,-0.48241 -2.556417,-0.315685 -3.636579,0.333402 -0.663317,0.412608 -1.18281,1.082384 -1.366396,1.849626 -0.100826,0.524903 0.08689,1.044505 0.295465,1.516696 -0.704437,-0.696036 -1.548308,-1.243434 -2.444869,-1.654498 -0.61164,-0.282877 -1.269064,-0.501938 -1.950823,-0.484337 -0.498683,3.95e-4 -0.9884,0.108742 -1.471976,0.219473 z m 2.424867,2.574432 c 0.762483,0.170992 1.416783,0.68709 1.871198,1.314117 0.238631,0.27956 0.327806,0.65637 0.285151,1.018942 -0.05814,0.582819 -0.224792,1.153732 -0.44939,1.692815 -0.09553,0.19694 -0.225408,0.38749 -0.414616,0.50326 -0.05647,-0.16354 -0.0975,-0.29465 -0.153338,-0.47014 -0.415621,-1.350154 -0.79316,-2.699238 -1.167196,-4.06389 l 0.02066,0.0036 z"
       inkscape:label="de" />
    <g
       id="g11"
       transform="translate(7.4442466,15.047045)"
       inkscape:label="gaznapiros"
       style="stroke:#000000;stroke-opacity:1;stroke-width:0.26458333;stroke-dasharray:none;fill:#000000;fill-opacity:1">
      <path
         d="M 24.714955,65.217264 C 22.98528,58.400308 16.829671,55.144449 10.114462,56.467142 c -0.9157106,0.152619 -2.1875306,0.91571 -1.7296754,1.984039 1.0683288,2.441895 1.526184,4.832916 1.8822934,7.478302 0.254364,2.085784 5.697754,1.577056 5.44339,-0.457855 -0.254364,-2.034912 -0.661347,-3.968079 -1.27182,-5.850372 1.475311,0.661346 2.950622,1.83142 3.764587,3.255859 1.475311,2.492767 2.085785,6.308227 1.526184,9.157104 C 18.762838,77.32499 12.047628,81.038704 7.4182034,77.426735 1.7713227,73.000802 4.2640899,61.045694 6.3498746,55.602305 7.6725674,52.092081 15.405233,41.917522 16.066579,52.2447 c 0.101746,2.034912 5.545135,1.577057 5.392517,-0.508728 C 20.899495,43.036723 10.724935,43.291087 5.6376555,48.022257 -1.8915188,54.991831 -5.7578515,75.747933 5.4850371,81.089577 16.320943,86.227729 27.563832,76.358406 24.714955,65.217264 Z M 7.9269314,75.340951 c 1.0683288,0.508727 2.8997496,0.457855 3.8663326,-0.305237 1.62793,-1.322693 2.848877,-2.950623 3.45935,-4.985535 0.661347,-2.18753 -4.73117,-2.18753 -5.2907706,-0.305236 -0.4069824,1.373565 -1.0683288,2.594512 -2.1875304,3.510223 -0.8648376,0.661346 -0.9157104,1.627929 0.1526184,2.085785 z"
         id="text11"
         style="font-size:50.8728px;font-family:'Don Graffiti';-inkscape-font-specification:'Don Graffiti';white-space:pre;stroke-linecap:round;stroke-miterlimit:0;paint-order:markers fill stroke;fill:#000000;fill-opacity:1;stroke-width:0.26458333;stroke-dasharray:none"
         aria-label="G" />
      <path
         d="m 46.883219,76.617375 c -1.227666,-2.709331 -2.370665,-5.460996 -3.386664,-8.254994 0.169333,-0.04233 0.338666,-0.127 0.550333,-0.169333 1.566332,-0.592666 1.820332,-5.206996 0.08467,-4.571997 -0.677333,0.254 -1.312332,0.508 -2.031998,0.719666 -1.650999,-5.291662 -2.920998,-10.752658 -3.555998,-16.340654 -0.08467,-0.846666 -1.142999,-1.142999 -2.201331,-1.100666 -1.185333,-0.08467 -2.497665,0.338667 -2.666998,1.142999 -1.142999,6.730995 -3.090331,13.123324 -5.630329,19.303986 -0.254,0 -0.508,0.04233 -0.719667,0.08467 -1.227665,0.169334 -1.820332,2.920998 -1.142999,4.063997 -0.846666,1.820332 -1.735665,3.682998 -2.709331,5.50333 -0.846666,1.566332 3.682997,1.777998 4.444997,0.296333 1.058332,-1.947332 1.989665,-3.894664 2.920997,-5.884329 2.793998,-0.465667 5.63033,-1.015999 8.381994,-1.735666 1.015999,2.709332 2.116665,5.37633 3.301998,8.000994 0.677333,1.481666 5.164662,0.719666 4.36033,-1.058332 z M 32.955563,66.542049 c 1.058332,-2.666998 1.989665,-5.418663 2.793997,-8.170327 0.592667,2.412998 1.27,4.783663 2.031999,7.154328 -1.608666,0.381 -3.217331,0.719666 -4.825996,1.015999 z"
         id="text10"
         style="font-size:42.3333px;font-family:'Don Graffiti';-inkscape-font-specification:'Don Graffiti';white-space:pre;stroke-linecap:round;stroke-miterlimit:0;paint-order:markers fill stroke;fill:#000000;fill-opacity:1;stroke-width:0.26458333;stroke-dasharray:none"
         aria-label="a" />
      <path
         d="m 65.65451,77.614979 c -0.677333,-3.725331 -1.185332,-7.492995 -1.227666,-11.302992 0,-1.693332 -4.571996,-1.396999 -4.571996,0.381 0.04233,2.666998 0.296333,5.291662 0.677333,7.916327 -2.539999,0.169333 -5.079997,0.592666 -7.577661,1.354666 3.936997,-6.561662 7.365994,-13.546657 11.048991,-20.065985 0,-0.04233 0,-0.04233 0.04233,-0.04233 0.761999,-1.227666 0.846666,-3.640664 -0.423333,-3.936997 -4.656664,-1.100666 -9.313327,-2.243665 -13.96999,-3.344331 -1.312332,-0.846666 -4.36033,-0.254 -4.063997,1.058332 0.973666,3.979331 0.888999,8.339661 0.211667,12.361324 -0.296334,1.947332 4.190996,1.862666 4.48733,0.296333 0.423333,-2.836331 0.677332,-5.757329 0.507999,-8.678326 2.963331,0.719666 5.884329,1.439332 8.84766,2.116665 -4.36033,8.043327 -8.508993,16.552321 -13.842989,23.875982 -0.08467,0.127 -0.127,0.254 -0.169334,0.380999 -0.550333,1.143 0.465667,3.555998 1.608666,3.852331 0.169333,0.04233 0.338666,0.08467 0.465666,0 0.127,-0.04233 0.254,-0.08467 0.381,-0.211667 3.85233,-3.21733 9.440326,-4.444996 14.393322,-4.571996 1.439333,0.254 3.386665,-0.296333 3.174998,-1.439332 z"
         id="text9"
         style="font-size:42.3333px;font-family:'Don Graffiti';-inkscape-font-specification:'Don Graffiti';white-space:pre;stroke-linecap:round;stroke-miterlimit:0;paint-order:markers fill stroke;fill:#000000;fill-opacity:1;stroke-width:0.26458333;stroke-dasharray:none"
         aria-label="z" />
      <path
         d="m 84.484962,46.040171 c 0,-1.650999 -4.529663,-1.396999 -4.571997,0.423333 0,7.492995 -0.169333,15.028322 -0.507999,22.521317 -2.497665,-7.535328 -5.714996,-14.858989 -9.270993,-21.843984 -0.465667,-1.354666 -4.148664,-1.058333 -4.48733,0.338666 0,0.04233 0,0.08467 0,0.127 0,0.04233 0,0.08467 0,0.169333 0.761999,9.016994 1.015999,18.245653 0,27.262647 -0.211667,1.566332 4.36033,1.396999 4.529663,-0.381 0.634999,-5.164663 0.761999,-10.413992 0.677333,-15.663322 3.34433,7.873994 6.138328,16.044322 7.83166,24.426315 -0.08467,0.762 0.931333,1.100666 1.989666,1.058333 1.312332,0.04233 2.751664,-0.550333 2.539998,-1.481666 0.846666,-12.276657 1.227665,-24.637981 1.269999,-36.956972 z"
         id="text8"
         style="font-size:42.3333px;font-family:'Don Graffiti';-inkscape-font-specification:'Don Graffiti';white-space:pre;stroke-linecap:round;stroke-miterlimit:0;paint-order:markers fill stroke;fill:#000000;fill-opacity:1;stroke-width:0.26458333;stroke-dasharray:none"
         aria-label="n" />
      <path
         d="m 107.3144,78.759358 c -1.22766,-2.709331 -2.37066,-5.460996 -3.38666,-8.254994 0.16933,-0.04233 0.33866,-0.127 0.55033,-0.169333 1.56633,-0.592666 1.82033,-5.206996 0.0847,-4.571997 -0.67734,0.254 -1.31234,0.508 -2.032,0.719666 -1.651,-5.291662 -2.920999,-10.752658 -3.555999,-16.340654 -0.08467,-0.804333 -1.142999,-1.142999 -2.201331,-1.100666 -1.185333,-0.08467 -2.497665,0.338667 -2.666998,1.142999 -1.143,6.730995 -3.090331,13.123324 -5.63033,19.303986 -0.253999,0 -0.507999,0.04233 -0.719666,0.08467 -1.227665,0.169334 -1.820332,2.920998 -1.100666,4.063997 -0.888999,1.862666 -1.777998,3.682998 -2.751664,5.50333 -0.846666,1.566332 3.682997,1.777998 4.444997,0.296333 1.058332,-1.947332 1.989665,-3.894664 2.920997,-5.884329 2.793998,-0.465667 5.630329,-1.015999 8.381994,-1.735666 1.015996,2.709332 2.116666,5.37633 3.301996,8.000994 0.67733,1.481666 5.16466,0.719667 4.36033,-1.058332 z M 93.386745,68.684032 c 1.058333,-2.666998 1.989666,-5.418663 2.793998,-8.170327 0.592667,2.412998 1.269999,4.783663 2.031999,7.154328 -1.608666,0.381 -3.217331,0.719666 -4.825997,1.015999 z m 4.106331,-20.785651 c 0.338666,-0.465666 0.804332,-0.677333 1.396999,-0.761999 1.608665,-0.296334 2.074335,-4.910663 0.127,-4.571997 -1.143,0.211667 -2.074332,0.888999 -2.751665,1.777999 -0.635,0.888999 -0.931333,2.201331 -0.550333,3.259664 0.296333,0.888999 1.142999,1.100666 1.777999,0.296333 z"
         id="text7"
         style="font-size:42.3333px;font-family:'Don Graffiti';-inkscape-font-specification:'Don Graffiti';white-space:pre;stroke-linecap:round;stroke-miterlimit:0;paint-order:markers fill stroke;fill:#000000;fill-opacity:1;stroke-width:0.26458333;stroke-dasharray:none"
         aria-label="Ã" />
      <path
         d="m 120.74942,47.403015 c -3.09033,-1.650999 -6.73099,-0.381 -9.69432,1.396999 -0.889,-1.185332 -4.572,-0.677333 -4.36033,0.846666 0.762,6.561662 1.10066,13.250323 1.016,19.896652 -1.48167,0.423333 -2.62467,1.693332 -0.508,2.285998 0.127,0.04233 0.29633,0.08467 0.42333,0.127 -0.0423,1.693332 -0.0847,3.386664 -0.16933,5.079996 -0.127,1.608666 4.44499,1.396999 4.52966,-0.423333 0.127,-1.439332 0.127,-2.920998 0.21167,-4.36033 1.86266,-0.169333 3.72533,-0.719666 5.33399,-1.566332 4.191,-2.243665 5.16466,-6.053662 5.50333,-10.540992 0.29633,-3.682997 1.778,-10.540992 -2.286,-12.742324 z m -2.37066,14.266323 c -0.42334,3.85233 -2.49767,7.535327 -6.096,8.043327 0.0847,-5.841996 -0.16933,-11.683991 -0.762,-17.483654 0.16934,-0.04233 0.33867,-0.126999 0.42334,-0.211666 1.26999,-0.973666 4.36033,-3.767664 6.09599,-2.158998 0.71967,0.677332 0.635,2.158998 0.67733,3.005664 0.16934,2.836331 0,5.968995 -0.33866,8.805327 z"
         id="text6"
         style="font-size:42.3333px;font-family:'Don Graffiti';-inkscape-font-specification:'Don Graffiti';white-space:pre;stroke-linecap:round;stroke-miterlimit:0;paint-order:markers fill stroke;fill:#000000;fill-opacity:1;stroke-width:0.26458333;stroke-dasharray:none"
         aria-label="p" />
      <path
         d="m 124.13106,65.024401 c 0,4.952996 0.0847,9.905992 0.29633,14.858989 0.0847,1.693332 4.65666,1.354665 4.572,-0.381 -0.21167,-4.952996 -0.29634,-9.905993 -0.33867,-14.901322 0,-1.650999 -4.572,-1.354666 -4.52966,0.423333 z m 0.67733,-12.657657 c -0.508,2.878664 -0.635,5.799662 -0.67733,8.72066 -0.0423,1.650998 4.52966,1.396999 4.57199,-0.381 0.0423,-1.989665 0.127,-4.021664 0.29634,-5.968996 0.0423,-0.550333 0.127,-1.100665 0.21166,-1.650998 0,-0.254 0.0423,-0.550333 0.0423,-0.423333 0.33866,-1.947332 -4.191,-1.862666 -4.445,-0.296333 z"
         id="text5"
         style="font-size:42.3333px;font-family:'Don Graffiti';-inkscape-font-specification:'Don Graffiti';white-space:pre;stroke-linecap:round;stroke-miterlimit:0;paint-order:markers fill stroke;fill:#000000;fill-opacity:1;stroke-width:0.26458333;stroke-dasharray:none"
         aria-label="i" />
      <path
         d="m 148.23531,47.64643 c 0.93134,-3.34433 -1.73566,-5.164662 -4.74133,-5.587995 -3.13266,-0.423333 -6.39232,0.338666 -9.22866,1.777998 -0.0423,-0.380999 -0.0847,-0.761999 -0.127,-1.100665 -0.29633,-1.735666 -4.86833,-1.27 -4.57199,0.380999 1.60866,9.440326 1.27,19.303986 0.16933,28.744312 -0.21167,1.566332 4.36033,1.396999 4.572,-0.423333 0.33866,-3.047998 0.59266,-6.138329 0.762,-9.22866 1.82033,-0.973666 4.61433,-2.201331 6.77333,-2.074332 -3.09034,5.884329 -3.302,13.250324 0.59266,18.922986 0.93133,1.354666 5.37633,0.423333 4.318,-1.058332 -3.85233,-5.630329 -3.25967,-12.826991 0.0847,-18.499653 0.29634,-0.508 -0.29633,-1.015999 -0.71966,-1.185333 -1.73567,-0.677332 -3.556,-0.846666 -5.37633,-0.677332 3.47133,-2.582332 6.39233,-6.138329 7.49299,-9.99066 z m -13.03865,9.86366 c 0.0423,-3.428998 -0.127,-6.900328 -0.46567,-10.329326 0.0423,0 0.0847,-0.04233 0.127,-0.08467 1.82033,-1.396999 5.54566,-3.682998 8.00099,-2.328332 2.667,1.439332 -0.46566,5.841996 -1.60866,7.323661 -1.56633,2.116665 -3.683,4.063997 -6.05366,5.418663 z"
         id="text4"
         style="font-size:42.3333px;font-family:'Don Graffiti';-inkscape-font-specification:'Don Graffiti';white-space:pre;stroke-linecap:round;stroke-miterlimit:0;paint-order:markers fill stroke;fill:#000000;fill-opacity:1;stroke-width:0.26458333;stroke-dasharray:none"
         aria-label="r" />
      <path
         d="m 157.40523,51.803262 c -2.70933,0 -4.699,1.227665 -6.05366,3.090331 -3.64067,1.608665 -4.91067,6.519328 -5.54567,10.075325 -0.84666,4.783663 -0.93133,10.752659 2.667,14.477989 4.65667,4.825997 12.36133,2.666998 14.98599,-3.174997 2.58233,-5.799662 3.59833,-24.426315 -6.05366,-24.468648 z m 2.159,22.521316 c -0.635,2.116665 -2.11667,5.503329 -4.78367,5.122329 -2.28599,-0.380999 -3.64066,-3.132664 -4.23333,-5.079996 -0.67733,-2.201331 -0.76199,-4.61433 -0.55033,-6.900328 0.71967,1.989665 1.94733,3.725331 3.59833,4.783663 1.31233,0.846666 5.588,-0.465666 3.81,-1.608665 -2.54,-1.608666 -3.38666,-3.894664 -3.64066,-6.857995 -0.16934,-2.158998 0.21166,-10.159992 4.23333,-8.339661 1.86266,0.846667 2.15899,7.027329 2.28599,8.805327 0.29634,3.344331 0.254,6.857995 -0.71966,10.075326 z"
         id="text3"
         style="font-size:42.3333px;font-family:'Don Graffiti';-inkscape-font-specification:'Don Graffiti';white-space:pre;stroke-linecap:round;stroke-miterlimit:0;paint-order:markers fill stroke;fill:#000000;fill-opacity:1;stroke-width:0.26458333;stroke-dasharray:none"
         aria-label="o" />
      <path
         d="m 170.60186,81.606845 c -3.302,-2.285999 -9.10166,-3.047998 -10.41399,-7.323662 -0.381,-1.312332 -0.29634,-3.34433 1.39699,-3.259664 2.54,0.08467 5.03767,5.164663 5.92667,7.408328 0,0.254 0.16933,0.508 0.42333,0.677333 0.80433,0.550333 2.62466,0.423333 3.51366,-0.254 0.0423,-0.04233 0.0847,-0.04233 0.127,-0.08467 0,0 0,0 0,0 0.254,-0.211666 0.42334,-0.507999 0.42334,-0.804332 0.0423,-2.963332 0.508,-5.926663 1.56633,-8.678327 0.67733,-1.735666 -3.81,-1.820332 -4.40266,-0.296333 -0.33867,0.888999 -0.635,1.820332 -0.84667,2.793998 -2.24367,-2.497665 -5.24933,-4.233331 -8.59366,-3.428998 -3.25967,0.719666 -5.08,4.063997 -3.76766,7.154328 2.53999,6.053662 11.04899,5.545663 14.18165,11.133658 2.413,4.275664 0.59267,10.625659 -5.41866,9.186327 -4.953,-1.185333 -6.26533,-11.429992 -0.889,-9.270993 1.43933,0.592666 5.41866,-1.058333 3.048,-2.031999 -5.41867,-2.158998 -12.57299,-0.08467 -11.09133,7.027328 1.43933,6.942662 10.24466,8.339661 15.74799,5.587996 6.858,-3.428997 4.48733,-11.810991 -0.93133,-15.536321 z"
         id="text2"
         style="font-size:42.3333px;font-family:'Don Graffiti';-inkscape-font-specification:'Don Graffiti';white-space:pre;stroke-linecap:round;stroke-miterlimit:0;paint-order:markers fill stroke;fill:#000000;fill-opacity:1;stroke-width:0.26458333;stroke-dasharray:none"
         transform="rotate(-7.1703902)"
         aria-label="s" />
    </g>
    <g
       id="g20"
       inkscape:label="timbuktu"
       transform="translate(9.2627036)"
       style="stroke:#000000;stroke-opacity:1;stroke-width:0.26458333;stroke-dasharray:none">
      <path
         id="text13"
         style="font-size:96px;font-family:'GoodDog Cool';-inkscape-font-specification:'GoodDog Cool';letter-spacing:10px;white-space:pre;stroke-width:0.26458333;stroke-linecap:round;stroke-miterlimit:0;paint-order:markers fill stroke;stroke:#000000;stroke-opacity:1;stroke-dasharray:none"
         d="m 137.42279,95.151946 c -0.82891,0.08369 -1.43412,0.754733 -1.85725,1.416968 -0.29984,0.464199 -0.50474,0.982908 -0.84181,1.424202 -0.30216,0.416972 -0.35257,0.95999 -0.2312,1.45011 0.0339,0.413367 0.34739,0.801644 0.77476,0.839694 0.69109,0.0656 1.27152,-0.412807 1.73796,-0.863014 0.59664,-0.551581 1.15668,-1.169415 1.47329,-1.928624 0.13938,-0.351602 0.34693,-0.693038 0.37776,-1.075847 -0.015,-0.514796 -0.41522,-0.944069 -0.85059,-1.172538 -0.18132,-0.08652 -0.38421,-0.112116 -0.58292,-0.09095 z m 2.29857,4.587827 c -0.67167,0.18684 -1.42656,0.374007 -1.86862,0.959117 -0.23492,0.30194 -0.25507,0.69568 -0.2204,1.06049 0.0282,1.21668 0.1842,2.42485 0.28552,3.63638 0.01,0.14086 0.027,0.40822 0.0329,0.54631 0.041,0.78942 -0.039,1.58059 -0.20769,2.35162 -0.16178,1.04567 -0.5235,2.09456 -1.20994,2.91434 -0.30116,0.36663 -0.80521,0.61439 -1.27666,0.44264 -0.74459,-0.28544 -1.34714,-0.88099 -1.74122,-1.56533 -0.35836,-0.6257 -0.5479,-1.33401 -0.64313,-2.04478 -0.0102,-0.0939 -0.0354,-0.28795 -0.0448,-0.42275 -0.0451,-0.57456 -0.0425,-1.21683 0.0145,-1.82001 0.0953,-1.10133 0.39307,-2.17827 0.8284,-3.1921 0.2074,-0.66305 -0.12202,-1.42337 -0.68345,-1.80346 -0.83803,-0.40546 -1.90383,-0.24205 -2.57941,0.39957 -0.43437,0.36763 -0.65955,0.90813 -0.78627,1.44982 -0.65388,2.34375 -0.84454,4.86778 -0.22642,7.2404 0.42754,1.62204 1.29228,3.14221 2.52826,4.28301 0.83155,0.73847 2.01081,0.97235 3.08929,0.79389 1.39443,-0.22406 2.66422,-0.96451 3.69927,-1.90491 1.1349,-1.05613 1.8923,-2.46114 2.38503,-3.91729 0.73366,-2.19398 0.76654,-4.55051 0.5382,-6.83188 -0.0685,-0.6219 -0.12126,-1.24897 -0.23488,-1.86362 -0.0676,-0.28208 -0.34287,-0.42916 -0.58512,-0.538857 -0.0348,-0.0613 0.21669,0.265517 0.0158,0.0965 -0.18785,-0.134638 -0.3757,-0.269288 -0.56356,-0.403938 -0.1819,0.045 -0.3638,0.0899 -0.5457,0.13487 z" />
      <path
         id="text20"
         style="font-size:96px;font-family:'GoodDog Cool';-inkscape-font-specification:'GoodDog Cool';letter-spacing:10px;white-space:pre;stroke-width:0.26458333;stroke-linecap:round;stroke-miterlimit:0;paint-order:markers fill stroke;stroke:#000000;stroke-opacity:1;stroke-dasharray:none"
         d="m 49.21165,101.21618 c -0.267039,0.0115 -0.605068,0.0222 -0.899893,0.0257 -1.511043,0.0257 -3.032554,-0.0757 -4.531865,0.1644 -1.490234,0.2272 -2.95324,0.68036 -4.287266,1.38565 -0.595665,0.33452 -0.927651,1.04842 -0.814002,1.7198 0.09306,0.71254 0.755037,1.29846 1.479415,1.26981 0.814113,-0.026 1.468322,-0.59326 2.24127,-0.77776 0.12636,-0.01 0.377806,-0.18935 0.420349,-0.0848 -0.0082,0.45917 -0.02934,0.86481 -0.05501,1.32332 -0.15749,2.5908 -0.527333,5.16373 -0.665305,7.75611 -0.05885,1.13773 -0.110617,2.2844 0.0161,3.41882 0.117229,0.60639 0.68744,1.12266 1.323025,1.06083 0.639053,-0.0562 1.208312,-0.42383 1.678032,-0.83934 0.326536,-0.28723 0.535557,-0.71054 0.498915,-1.15128 0.0893,-3.24631 0.24585,-6.52323 0.671904,-9.75668 0.09765,-0.72827 0.21187,-1.45459 0.352912,-2.1758 0.802264,-0.0749 1.610362,-0.10875 2.408409,-0.21602 0.700844,-0.20608 1.399344,-0.71219 1.533985,-1.47328 0.09062,-0.39991 -0.01369,-0.82065 -0.251595,-1.15004 -0.141721,-0.29829 -0.430593,-0.57331 -0.785746,-0.51743 -0.111212,0.006 -0.222425,0.012 -0.333634,0.018 z" />
      <path
         id="text19"
         style="font-size:96px;font-family:'GoodDog Cool';-inkscape-font-specification:'GoodDog Cool';letter-spacing:10px;white-space:pre;stroke-width:0.26458333;stroke-linecap:round;stroke-miterlimit:0;paint-order:markers fill stroke;stroke:#000000;stroke-opacity:1;stroke-dasharray:none"
         d="m 55.093977,97.355935 c -0.691581,0.0223 -1.355217,0.44084 -1.636074,1.079514 -0.283525,0.625807 -0.302599,1.326964 -0.395092,1.997681 -0.24955,2.50543 -0.128977,5.02638 -0.127328,7.53921 0.02598,0.87035 -0.04817,1.7639 0.198922,2.60998 0.260953,0.93229 1.140261,1.6718 2.119349,1.6922 0.501433,0.0127 1.119751,-0.0507 1.399569,-0.5303 0.191373,-0.35396 0.0892,-0.77302 0.115779,-1.15726 -0.0099,-1.62291 -0.114781,-3.27317 -0.175474,-4.87547 -0.09569,-2.20306 0.0018,-4.45724 0.720627,-6.560654 0.158186,-0.600147 -0.258067,-1.207554 -0.791885,-1.454721 -0.431792,-0.24384 -0.93114,-0.376897 -1.428393,-0.34018 z" />
      <path
         id="text18"
         style="font-size:96px;font-family:'GoodDog Cool';-inkscape-font-specification:'GoodDog Cool';letter-spacing:10px;white-space:pre;stroke-width:0.26458333;stroke-linecap:round;stroke-miterlimit:0;paint-order:markers fill stroke;stroke:#000000;stroke-opacity:1;stroke-dasharray:none"
         d="m 62.546753,95.879549 c -0.589784,0.0087 -1.238358,0.274871 -1.470195,0.855762 -0.165739,0.445807 -0.140832,0.933784 -0.21542,1.398771 -0.243115,2.167438 -0.466109,4.337778 -0.663311,6.509498 -0.231823,1.26794 -0.74174,2.47198 -0.903589,3.75405 -0.119378,0.89128 0.115245,1.87196 0.801859,2.48901 0.565187,0.47524 1.374715,0.4904 2.064632,0.34337 0.610243,-0.14755 1.265899,-0.50982 1.427093,-1.16408 0.157485,-0.76142 -0.03035,-1.53552 -0.01076,-2.30345 0.01474,-0.60935 0.286858,-1.17772 0.249196,-1.79365 0.226357,0.6632 0.29033,1.36569 0.380338,2.05569 0.180004,0.68247 0.794107,1.18571 1.463555,1.3541 0.81653,0.24199 1.747535,-0.0815 2.254195,-0.76268 0.241137,-0.31416 0.48859,-0.68091 0.420499,-1.09836 -0.0096,-0.17995 -0.09959,-0.37526 0.03462,-0.53175 0.569385,-1.23334 0.907531,-2.55552 1.42627,-3.80856 0.257244,0.98396 0.426422,1.98977 0.568706,2.98098 0.208257,1.55841 0.358195,3.13135 0.765678,4.65472 0.197808,0.72661 0.421625,1.45869 0.784823,2.12019 0.256333,0.3974 0.792834,0.38048 1.208639,0.33755 0.687623,-0.081 1.469769,-0.22375 1.904392,-0.82165 0.313694,-0.43002 0.302023,-1.01347 0.101286,-1.48828 -0.135105,-0.43918 -0.251041,-0.87086 -0.356274,-1.29952 -0.135057,-0.56049 -0.26949,-1.18212 -0.383883,-1.77087 -0.521681,-2.62156 -0.785003,-5.30752 -1.358196,-7.934167 -0.212186,-0.988137 -0.453621,-1.971831 -0.77899,-2.929465 -0.194014,-0.14682 -0.338729,-0.391117 -0.604615,-0.395837 -0.864549,-0.18346 -1.816986,-0.003 -2.499229,0.576057 -0.860168,0.699354 -1.277081,1.765288 -1.691414,2.759575 -0.227783,0.565777 -0.428107,1.142147 -0.657123,1.707457 -0.07605,0.1818 -0.18142,0.43921 -0.275916,0.6467 -0.05898,0.13332 -0.123215,0.26435 -0.186588,0.39561 -0.327776,-1.23441 -0.637396,-2.4745 -1.000912,-3.698824 -0.314685,-0.969184 -0.730143,-1.931808 -1.39274,-2.715755 -0.369008,-0.360255 -0.911683,-0.443007 -1.406632,-0.422192 z" />
      <path
         id="text17"
         style="font-size:96px;font-family:'GoodDog Cool';-inkscape-font-specification:'GoodDog Cool';letter-spacing:10px;white-space:pre;stroke-width:0.26458333;stroke-linecap:round;stroke-miterlimit:0;paint-order:markers fill stroke;stroke:#000000;stroke-opacity:1;stroke-dasharray:none"
         d="m 78.778836,101.72468 c -0.545146,0.0473 -0.986763,0.4617 -1.273974,0.8998 -0.319473,0.53615 -0.320194,1.30893 0.124174,1.77549 0.268888,0.26444 0.658106,0.29887 1.012341,0.33797 0.260104,0.18918 0.232161,0.56133 0.237433,0.84911 -0.01337,0.5601 -0.09253,1.12735 -0.0058,1.68404 0.05796,0.26889 0.129559,0.54518 0.09859,0.82168 -0.355478,0.43243 -0.43007,1.04084 -0.24598,1.56218 0.168294,0.47275 0.364768,0.94128 0.411031,1.44656 0.21572,1.36629 0.456602,2.73386 0.52885,4.11703 -0.0019,0.35519 0.0059,0.72183 -0.05053,1.06856 -0.389206,0.43859 -0.920855,0.85502 -0.961698,1.48725 -0.03882,0.58676 0.477924,1.03589 1.00109,1.18284 0.529282,0.13234 1.08328,0.002 1.601062,-0.12558 1.542991,-0.44806 2.848599,-1.45002 4.026348,-2.50926 1.020388,-0.94529 2.058514,-1.97337 2.537251,-3.31138 0.447687,-1.21617 0.107894,-2.66447 -0.821351,-3.5649 -0.661241,-0.66161 -1.53717,-1.05957 -2.425899,-1.31454 0.900729,-0.61826 1.687173,-1.38217 2.529235,-2.07471 0.261785,-0.19717 0.52899,-0.45541 0.524566,-0.80891 0.02589,-0.52378 -0.239003,-1.0237 -0.633834,-1.35655 -0.742625,-0.69446 -1.760296,-0.92019 -2.676484,-1.29043 -0.429631,-0.14122 -0.823835,-0.36382 -1.243278,-0.52849 -0.864289,-0.3131 -1.793368,-0.37583 -2.705219,-0.34983 -0.529286,10e-4 -1.058707,-0.003 -1.587914,0.002 z m 3.549138,3.31091 c 0.341633,0.12751 0.689295,0.23992 1.02681,0.37776 -0.247148,0.43743 -0.702407,0.75877 -1.198376,0.84388 -0.05145,-0.29042 -0.161557,-0.58997 -0.04393,-0.88005 0.03551,-0.12916 0.07306,-0.2604 0.14211,-0.37621 0.02446,0.0115 0.04892,0.0231 0.07338,0.0346 z m 0.56689,5.77846 c 0.57678,0.0706 1.11376,0.38629 1.505618,0.80798 0.360461,0.44797 0.233462,1.10929 -0.06848,1.55435 -0.356707,0.56006 -0.930277,0.92227 -1.416463,1.35786 -0.156033,-0.89727 -0.187645,-1.81461 -0.412545,-2.70046 -0.05815,-0.30279 -0.174186,-0.61912 -0.09957,-0.92774 0.136861,-0.10845 0.326809,-0.10176 0.491443,-0.092 z" />
      <path
         id="text16"
         style="font-size:96px;font-family:'GoodDog Cool';-inkscape-font-specification:'GoodDog Cool';letter-spacing:10px;white-space:pre;stroke-width:0.26458333;stroke-linecap:round;stroke-miterlimit:0;paint-order:markers fill stroke;stroke:#000000;stroke-opacity:1;stroke-dasharray:none"
         d="m 100.81315,97.093938 c -0.67219,0.18735 -1.42912,0.373957 -1.87017,0.961184 -0.233406,0.30133 -0.254269,0.694677 -0.219371,1.058414 0.02823,1.216674 0.184205,2.424844 0.285517,3.636374 0.0098,0.14086 0.027,0.40822 0.03296,0.54631 0.04085,0.78942 -0.03838,1.58069 -0.207789,2.3516 -0.162937,1.05301 -0.528017,2.11066 -1.225086,2.93222 -0.300859,0.35672 -0.796754,0.59281 -1.259354,0.4253 -0.754413,-0.28835 -1.362394,-0.89477 -1.757156,-1.59002 -0.673051,-1.22354 -0.760539,-2.6687 -0.678113,-4.03543 0.07642,-1.17944 0.380277,-2.33656 0.847023,-3.420037 0.208488,-0.662977 -0.122344,-1.423354 -0.68345,-1.803451 -0.837462,-0.405207 -1.902897,-0.24273 -2.57795,0.398957 -0.435122,0.3677 -0.661908,0.908717 -0.787475,1.451521 -0.657496,2.35186 -0.845485,4.88611 -0.219565,7.26582 0.430106,1.61192 1.29192,3.12191 2.52115,4.25649 0.832005,0.73856 2.011438,0.9725 3.090317,0.79384 1.398433,-0.22508 2.671405,-0.96905 3.708056,-1.91364 1.129476,-1.05537 1.884096,-2.45637 2.375216,-3.90851 0.73046,-2.18544 0.76719,-4.53268 0.54056,-6.805527 -0.0699,-0.634007 -0.12095,-1.273984 -0.23954,-1.900068 -0.0719,-0.275 -0.34109,-0.41915 -0.57972,-0.527197 -0.0458,-0.0667 0.21768,0.264127 0.0136,0.100077 -0.18781,-0.136357 -0.37561,-0.272727 -0.56342,-0.409097 -0.18207,0.045 -0.36415,0.0899 -0.54622,0.13487 z" />
      <path
         id="text15"
         style="font-size:96px;font-family:'GoodDog Cool';-inkscape-font-specification:'GoodDog Cool';letter-spacing:10px;white-space:pre;stroke-width:0.26458333;stroke-linecap:round;stroke-miterlimit:0;paint-order:markers fill stroke;stroke:#000000;stroke-opacity:1;stroke-dasharray:none"
         d="m 106.85464,97.995183 c -0.72645,0.04743 -1.43938,0.438426 -1.84588,1.045413 -0.28709,0.449237 -0.15747,0.999244 -0.18211,1.499834 0.0181,2.93647 0.14854,5.8812 0.56331,8.78875 0.14441,1.10512 0.28271,2.26227 0.39291,3.3576 0.0858,0.84978 0.14548,1.70248 0.16847,2.55592 0.0624,0.59252 0.5679,1.02029 1.10226,1.20509 0.69181,0.28094 1.5712,0.10498 2.0234,-0.51279 0.34283,-0.44216 0.54617,-0.99866 0.49847,-1.56259 -0.0458,-0.70184 -0.30892,-1.3646 -0.44329,-2.05101 -0.12734,-0.57037 -0.24188,-1.12905 -0.32052,-1.69321 -0.0264,-0.18351 -0.0485,-0.36766 -0.0672,-0.5521 0.76634,0.97877 1.47647,2.01883 2.40664,2.85333 0.54896,0.53563 1.41288,0.58588 2.09559,0.30231 0.47992,-0.21818 1.00736,-0.57021 1.09484,-1.13147 0.0284,-0.41605 -0.17826,-0.80561 -0.34279,-1.17542 -0.4907,-0.97655 -1.25513,-1.77647 -2.04431,-2.51768 -0.48399,-0.47992 -0.98419,-0.94668 -1.45814,-1.43476 -0.38659,-0.56716 -0.8428,-1.08741 -1.19334,-1.67825 -0.0532,-0.1352 0.21592,-0.1907 0.29814,-0.28785 0.16933,-0.11161 0.42418,-0.27327 0.63113,-0.40016 0.90673,-0.56433 1.883,-1.02442 2.69771,-1.73818 0.41771,-0.37149 0.82608,-0.78704 1.05917,-1.30194 0.1758,-0.55172 -0.20519,-1.10016 -0.65526,-1.38803 -0.51832,-0.419327 -1.27444,-0.616467 -1.89084,-0.294037 -0.79417,0.391497 -1.36746,1.091097 -2.02985,1.658287 -0.27685,0.22592 -0.52252,0.49209 -0.82217,0.68782 -0.0893,-0.59893 -0.0235,-1.20942 0.0126,-1.81066 0.0582,-0.706707 0.0155,-1.528421 -0.53983,-2.043032 -0.32308,-0.299611 -0.77832,-0.406308 -1.20906,-0.381185 z" />
      <path
         id="text14"
         style="font-size:96px;font-family:'GoodDog Cool';-inkscape-font-specification:'GoodDog Cool';letter-spacing:10px;white-space:pre;stroke-width:0.26458333;stroke-linecap:round;stroke-miterlimit:0;paint-order:markers fill stroke;stroke:#000000;stroke-opacity:1;stroke-dasharray:none"
         d="m 126.58005,98.041175 c -0.26703,0.01149 -0.60506,0.02222 -0.89989,0.02569 -1.51121,0.02575 -3.0329,-0.07576 -4.53237,0.164461 -1.49007,0.227213 -2.95291,0.680293 -4.28676,1.385577 -0.5874,0.33018 -0.92011,1.029487 -0.81751,1.693567 0.0803,0.72354 0.74935,1.32532 1.48292,1.29604 0.81412,-0.0259 1.46836,-0.59337 2.24127,-0.77776 0.12636,-0.01 0.37781,-0.18935 0.42035,-0.0848 -0.008,0.45917 -0.0293,0.86481 -0.055,1.32332 -0.15749,2.5908 -0.52733,5.16373 -0.66531,7.75611 -0.0589,1.13912 -0.11076,2.28721 0.0166,3.42296 0.11921,0.6046 0.68821,1.11844 1.32251,1.05669 0.63946,-0.0564 1.20936,-0.42415 1.67898,-0.84046 0.32601,-0.28718 0.53465,-0.70984 0.49797,-1.15016 0.0558,-2.17271 0.15198,-4.34154 0.32907,-6.51638 0.0338,-0.43503 0.0779,-0.87524 0.11593,-1.29386 0.14129,-1.38055 0.31408,-2.75939 0.57878,-4.12223 0.80261,-0.0749 1.61106,-0.1087 2.40944,-0.21602 0.70078,-0.20635 1.39941,-0.71204 1.53399,-1.473277 0.0906,-0.399907 -0.0137,-0.820644 -0.2516,-1.150034 -0.14235,-0.29795 -0.43024,-0.573562 -0.78574,-0.517434 -0.11121,0.006 -0.22243,0.01197 -0.33364,0.01796 z" />
    </g>
    <path
       style="display:inline;fill:#000000;stroke-width:0.26458333;stroke-linecap:round;stroke-miterlimit:0;paint-order:markers fill stroke;stroke:#000000;stroke-opacity:1;stroke-dasharray:none"
       d="m 180.27032,80.621102 c 0.62413,-0.513839 2.89251,-2.195128 8.17111,0.494824 2.94656,1.778587 5.30886,5.217108 6.08779,9.673898 1.20499,5.480144 1.20912,12.491866 -1.5142,19.777126 -3.04245,7.97901 -9.58124,15.51721 -19.04811,19.76237 -8.10025,3.58831 -16.72878,5.34445 -25.923,6.37404 -3.90202,0.43696 -7.78024,0.73122 -11.43369,0.99609 -16.20933,1.38756 -38.839762,2.69316 -49.284817,14.88804 -4.241923,4.80926 -3.697032,10.06275 -7.566994,10.70895 -5.850286,0.39153 -7.361352,-2.14082 -6.486436,-7.56748 0.514121,-2.44461 1.80855,-6.98919 5.029414,-11.22456 4.361837,-5.42796 11.290949,-9.53711 20.450556,-11.69417 5.548527,-1.3928 11.158557,-2.18852 17.372687,-2.88788 6.62197,-0.7531 12.53883,-1.22886 19.64725,-1.89954 3.69613,-0.37221 7.44716,-0.70373 11.18624,-1.11383 8.77255,-0.96216 16.40113,-2.27177 23.29262,-5.16922 7.19505,-2.96547 12.74705,-8.39059 15.43828,-14.21604 2.6194,-5.57533 3.31829,-11.214123 3.01506,-15.866718 -0.4203,-3.615134 -0.98462,-5.885774 -2.58534,-7.27414 -1.25283,-1.095284 -1.9966,-1.757326 -4.32265,-2.292098 -1.25766,-0.289142 -1.57831,-1.10588 -1.52577,-1.469662 z"
       id="path3"
       sodipodi:nodetypes="cccccsccssccccsccccsc"
       transform="translate(-2.1166667,-1.9112467)"
       inkscape:label="Cola" />
  </g>
</svg>
