<?xml version="1.0" encoding="UTF-8" standalone="no"?>
<!-- Created with Inkscape (http://www.inkscape.org/) -->

<svg
   width="530"
   height="390"
   id="svg2"
   sodipodi:version="0.32"
   inkscape:version="1.3.2 (091e20e, 2023-11-25, custom)"
   version="1.0"
   sodipodi:docname="TrianguloPascal.svg"
   inkscape:output_extension="org.inkscape.output.svg.inkscape"
   xmlns:inkscape="http://www.inkscape.org/namespaces/inkscape"
   xmlns:sodipodi="http://sodipodi.sourceforge.net/DTD/sodipodi-0.dtd"
   xmlns="http://www.w3.org/2000/svg"
   xmlns:svg="http://www.w3.org/2000/svg"
   xmlns:rdf="http://www.w3.org/1999/02/22-rdf-syntax-ns#"
   xmlns:cc="http://creativecommons.org/ns#"
   xmlns:dc="http://purl.org/dc/elements/1.1/">
  <defs
     id="defs4" />
  <sodipodi:namedview
     id="base"
     pagecolor="#ffffff"
     bordercolor="#666666"
     borderopacity="1.0"
     inkscape:pageopacity="0.0"
     inkscape:pageshadow="2"
     inkscape:zoom="0.98849983"
     inkscape:cx="258.47248"
     inkscape:cy="197.77444"
     inkscape:document-units="px"
     inkscape:current-layer="layer1"
     width="530px"
     height="390px"
     inkscape:window-width="1773"
     inkscape:window-height="1024"
     inkscape:window-x="38"
     inkscape:window-y="0"
     inkscape:showpageshadow="0"
     inkscape:pagecheckerboard="0"
     inkscape:deskcolor="#d1d1d1"
     showgrid="false"
     inkscape:window-maximized="0" />
  <metadata
     id="metadata7">
    <rdf:RDF>
      <cc:Work
         rdf:about="">
        <dc:format>image/svg+xml</dc:format>
        <dc:type
           rdf:resource="http://purl.org/dc/dcmitype/StillImage" />
      </cc:Work>
    </rdf:RDF>
  </metadata>
  <g
     inkscape:label="Capa 1"
     inkscape:groupmode="layer"
     id="layer1"
     transform="translate(1.1088171,-16.943096)">
    <path
       style="font-size:72px;font-style:normal;font-variant:normal;font-weight:normal;font-stretch:normal;text-align:start;line-height:125%;writing-mode:lr-tb;text-anchor:start;fill:#ffffff;fill-opacity:1;stroke:none;stroke-width:1px;stroke-linecap:butt;stroke-linejoin:miter;stroke-opacity:1;font-family:Georgia"
       d="M 271.29855,65.790752 L 247.60324,65.790752 L 247.60324,63.294659 C 248.30636,63.247786 249.40206,63.148177 250.89035,62.995831 C 252.37862,62.84349 253.40401,62.685287 253.96652,62.521221 C 254.69307,62.28685 255.24971,61.905991 255.63644,61.378643 C 256.02315,60.851304 256.21651,60.060289 256.21652,59.005596 L 256.21652,34.325909 L 247.46262,34.325909 L 247.46262,31.372784 L 249.39621,31.372784 C 251.92745,31.372818 254.19503,30.904069 256.19894,29.966534 C 258.20283,29.02907 259.63838,28.021259 260.50558,26.943096 L 263.42355,26.943096 C 263.35322,28.466571 263.28291,30.247819 263.21262,32.286846 C 263.14228,34.32594 263.10713,36.154063 263.10715,37.771221 L 263.10715,58.618877 C 263.10713,59.439196 263.28877,60.171617 263.65207,60.816143 C 264.01533,61.460679 264.53681,61.935288 265.21652,62.239971 C 265.82587,62.497787 266.82197,62.732162 268.2048,62.943096 C 269.58759,63.154036 270.61884,63.271224 271.29855,63.294659 L 271.29855,65.790752 z "
       id="text2160" />
    <path
       style="font-size:72px;font-style:normal;font-variant:normal;font-weight:normal;font-stretch:normal;text-align:start;line-height:125%;writing-mode:lr-tb;text-anchor:start;fill:#ffffff;fill-opacity:1;stroke:none;stroke-width:1px;stroke-linecap:butt;stroke-linejoin:miter;stroke-opacity:1;font-family:Georgia"
       d="M 222.44141,126.93361 L 198.74609,126.93361 L 198.74609,124.43752 C 199.44921,124.39064 200.54492,124.29103 202.0332,124.13869 C 203.52147,123.98635 204.54686,123.82814 205.10938,123.66408 C 205.83593,123.42971 206.39257,123.04885 206.7793,122.5215 C 207.166,121.99416 207.35936,121.20315 207.35938,120.14845 L 207.35938,95.468765 L 198.60547,95.468765 L 198.60547,92.51564 L 200.53906,92.51564 C 203.0703,92.515675 205.33788,92.046925 207.3418,91.10939 C 209.34569,90.171927 210.78123,89.164116 211.64844,88.085953 L 214.56641,88.085953 C 214.49607,89.609428 214.42576,91.390676 214.35547,93.429703 C 214.28514,95.468797 214.24998,97.29692 214.25,98.91408 L 214.25,119.76173 C 214.24998,120.58205 214.43162,121.31447 214.79492,121.959 C 215.15818,122.60354 215.67967,123.07814 216.35938,123.38283 C 216.96873,123.64064 217.96482,123.87502 219.34766,124.08595 C 220.73044,124.29689 221.76169,124.41408 222.44141,124.43752 L 222.44141,126.93361 z "
       id="text2164" />
    <path
       style="font-size:72px;font-style:normal;font-variant:normal;font-weight:normal;font-stretch:normal;text-align:start;line-height:125%;writing-mode:lr-tb;text-anchor:start;fill:#ffffff;fill-opacity:1;stroke:none;stroke-width:1px;stroke-linecap:butt;stroke-linejoin:miter;stroke-opacity:1;font-family:Georgia"
       d="M 325.29855,126.93361 L 301.60324,126.93361 L 301.60324,124.43752 C 302.30636,124.39064 303.40206,124.29103 304.89035,124.13869 C 306.37862,123.98635 307.40401,123.82814 307.96652,123.66408 C 308.69307,123.42971 309.24971,123.04885 309.63644,122.5215 C 310.02315,121.99416 310.21651,121.20315 310.21652,120.14845 L 310.21652,95.468765 L 301.46262,95.468765 L 301.46262,92.51564 L 303.39621,92.51564 C 305.92745,92.515675 308.19503,92.046925 310.19894,91.10939 C 312.20283,90.171927 313.63838,89.164116 314.50558,88.085953 L 317.42355,88.085953 C 317.35322,89.609428 317.28291,91.390676 317.21262,93.429703 C 317.14228,95.468797 317.10713,97.29692 317.10715,98.91408 L 317.10715,119.76173 C 317.10713,120.58205 317.28877,121.31447 317.65207,121.959 C 318.01533,122.60354 318.53681,123.07814 319.21652,123.38283 C 319.82587,123.64064 320.82197,123.87502 322.2048,124.08595 C 323.58759,124.29689 324.61884,124.41408 325.29855,124.43752 L 325.29855,126.93361 z "
       id="text2168" />
    <path
       style="font-size:72px;font-style:normal;font-variant:normal;font-weight:normal;font-stretch:normal;text-align:start;line-height:125%;writing-mode:lr-tb;text-anchor:start;fill:#ffffff;fill-opacity:1;stroke:none;stroke-width:1px;stroke-linecap:butt;stroke-linejoin:miter;stroke-opacity:1;font-family:Georgia"
       d="M 177.29855,188.21933 L 153.60324,188.21933 L 153.60324,185.72324 C 154.30636,185.67636 155.40206,185.57675 156.89035,185.42441 C 158.37862,185.27207 159.40401,185.11386 159.96652,184.9498 C 160.69307,184.71543 161.24971,184.33457 161.63644,183.80722 C 162.02315,183.27988 162.21651,182.48887 162.21652,181.43417 L 162.21652,156.75449 L 153.46262,156.75449 L 153.46262,153.80136 L 155.39621,153.80136 C 157.92745,153.8014 160.19503,153.33265 162.19894,152.39511 C 164.20283,151.45765 165.63838,150.44984 166.50558,149.37167 L 169.42355,149.37167 C 169.35322,150.89515 169.28291,152.6764 169.21262,154.71542 C 169.14228,156.75452 169.10713,158.58264 169.10715,160.1998 L 169.10715,181.04745 C 169.10713,181.86777 169.28877,182.60019 169.65207,183.24472 C 170.01533,183.88926 170.53681,184.36386 171.21652,184.66855 C 171.82587,184.92636 172.82197,185.16074 174.2048,185.37167 C 175.58759,185.58261 176.61884,185.6998 177.29855,185.72324 L 177.29855,188.21933 z "
       id="text2172" />
    <path
       style="font-size:72px;font-style:normal;font-variant:normal;font-weight:normal;font-stretch:normal;text-align:start;line-height:125%;writing-mode:lr-tb;text-anchor:start;fill:#ffffff;fill-opacity:1;stroke:none;stroke-width:1px;stroke-linecap:butt;stroke-linejoin:miter;stroke-opacity:1;font-family:Georgia"
       d="M 279.75777,188.21933 L 246.81636,188.21933 L 246.81636,183.43808 C 247.44917,182.71152 248.32807,181.89707 249.45308,180.99472 C 250.57807,180.09238 251.91401,179.11387 253.46089,178.05917 C 254.39838,177.42637 255.52338,176.73497 256.83589,175.98495 C 258.14838,175.23497 259.63666,174.41466 261.30074,173.52402 C 263.15228,172.53966 264.5761,171.67247 265.57222,170.92245 C 266.56829,170.17247 267.47649,169.24669 268.29683,168.14511 C 268.83587,167.41857 269.26946,166.51037 269.59761,165.4205 C 269.92571,164.33068 270.08977,162.77795 270.0898,160.7623 C 270.08977,157.83264 269.30462,155.68225 267.73433,154.31113 C 266.16399,152.94007 264.14837,152.25452 261.68745,152.25449 C 260.164,152.25452 258.72259,152.55335 257.36324,153.15097 C 256.00385,153.74866 254.98432,154.57483 254.30464,155.62949 C 254.46869,156.37952 254.67377,157.27014 254.91988,158.30136 C 255.16596,159.33264 255.289,160.34045 255.28902,161.3248 C 255.289,162.21545 254.91986,163.00646 254.18159,163.69785 C 253.4433,164.38928 252.3476,164.73498 250.89449,164.73495 C 249.7226,164.73498 248.82026,164.33068 248.18745,163.52206 C 247.55464,162.7135 247.23823,161.62951 247.23824,160.27011 C 247.23823,159.00452 247.58979,157.73303 248.29292,156.45566 C 248.99604,155.17835 250.00385,154.00061 251.31636,152.92245 C 252.60541,151.8678 254.19916,151.01234 256.09761,150.35605 C 257.99603,149.69984 260.04681,149.37171 262.24995,149.37167 C 267.05462,149.37171 270.86907,150.44398 273.69331,152.58847 C 276.5175,154.73304 277.92961,157.59827 277.92964,161.18417 C 277.92961,162.89514 277.67765,164.45373 277.17378,165.85995 C 276.66984,167.26623 275.85539,168.50841 274.73042,169.58652 C 273.4882,170.78185 272.03508,171.80724 270.37105,172.66269 C 268.70696,173.51817 266.16399,174.70762 262.74214,176.23105 C 260.70306,177.14512 258.80463,178.1002 257.04683,179.09628 C 255.289,180.09238 253.8476,181.05918 252.72261,181.99667 L 279.75777,181.99667 L 279.75777,188.21933 z "
       id="text2176" />
    <path
       style="font-size:72px;font-style:normal;font-variant:normal;font-weight:normal;font-stretch:normal;text-align:start;line-height:125%;writing-mode:lr-tb;text-anchor:start;fill:#ffffff;fill-opacity:1;stroke:none;stroke-width:1px;stroke-linecap:butt;stroke-linejoin:miter;stroke-opacity:1;font-family:Georgia"
       d="M 374.44141,188.21933 L 350.74609,188.21933 L 350.74609,185.72324 C 351.44921,185.67636 352.54492,185.57675 354.0332,185.42441 C 355.52147,185.27207 356.54686,185.11386 357.10938,184.9498 C 357.83593,184.71543 358.39257,184.33457 358.7793,183.80722 C 359.166,183.27988 359.35936,182.48887 359.35938,181.43417 L 359.35938,156.75449 L 350.60547,156.75449 L 350.60547,153.80136 L 352.53906,153.80136 C 355.0703,153.8014 357.33788,153.33265 359.3418,152.39511 C 361.34569,151.45765 362.78123,150.44984 363.64844,149.37167 L 366.56641,149.37167 C 366.49607,150.89515 366.42576,152.6764 366.35547,154.71542 C 366.28514,156.75452 366.24998,158.58264 366.25,160.1998 L 366.25,181.04745 C 366.24998,181.86777 366.43162,182.60019 366.79492,183.24472 C 367.15818,183.88926 367.67967,184.36386 368.35938,184.66855 C 368.96873,184.92636 369.96482,185.16074 371.34766,185.37167 C 372.73044,185.58261 373.76169,185.6998 374.44141,185.72324 L 374.44141,188.21933 z "
       id="text2180" />
    <path
       style="font-size:72px;font-style:normal;font-variant:normal;font-weight:normal;font-stretch:normal;text-align:start;line-height:125%;writing-mode:lr-tb;text-anchor:start;fill:#ffffff;fill-opacity:1;stroke:none;stroke-width:1px;stroke-linecap:butt;stroke-linejoin:miter;stroke-opacity:1;font-family:Georgia"
       d="M 131.86998,255.0639 L 108.17467,255.0639 L 108.17467,252.56781 C 108.87779,252.52094 109.97349,252.42133 111.46178,252.26898 C 112.95005,252.11664 113.97544,251.95844 114.53795,251.79437 C 115.2645,251.56 115.82114,251.17914 116.20787,250.65179 C 116.59458,250.12446 116.78794,249.33344 116.78795,248.27875 L 116.78795,223.59906 L 108.03404,223.59906 L 108.03404,220.64594 L 109.96764,220.64594 C 112.49888,220.64597 114.76645,220.17722 116.77037,219.23969 C 118.77426,218.30222 120.20981,217.29441 121.07701,216.21625 L 123.99498,216.21625 C 123.92465,217.73972 123.85433,219.52097 123.78404,221.56 C 123.71371,223.59909 123.67855,225.42721 123.67857,227.04437 L 123.67857,247.89203 C 123.67855,248.71235 123.86019,249.44477 124.2235,250.08929 C 124.58676,250.73383 125.10824,251.20844 125.78795,251.51312 C 126.3973,251.77094 127.39339,252.00531 128.77623,252.21625 C 130.15902,252.42719 131.19026,252.54438 131.86998,252.56781 L 131.86998,255.0639 z "
       id="text2184" />
    <path
       style="font-size:72px;font-style:normal;font-variant:normal;font-weight:normal;font-stretch:normal;text-align:start;line-height:125%;writing-mode:lr-tb;text-anchor:start;fill:#ffffff;fill-opacity:1;stroke:none;stroke-width:1px;stroke-linecap:butt;stroke-linejoin:miter;stroke-opacity:1;font-family:Georgia"
       d="M 207.41675,261.47992 C 205.21361,261.47991 203.19799,261.20452 201.36987,260.65375 C 199.54174,260.10295 197.97143,259.35881 196.65894,258.42133 C 195.34643,257.48382 194.33276,256.40569 193.61792,255.18695 C 192.90307,253.9682 192.54565,252.71429 192.54565,251.42523 C 192.54565,250.27679 192.8269,249.23968 193.3894,248.3139 C 193.9519,247.38812 194.85424,246.92523 196.09644,246.92523 C 197.50268,246.92523 198.57494,247.27094 199.31323,247.96234 C 200.0515,248.65375 200.42064,249.44476 200.42065,250.33539 C 200.42064,251.08539 200.2976,252.0346 200.05151,253.18304 C 199.80541,254.33148 199.61205,255.15179 199.47144,255.64398 C 199.63549,255.85491 199.93432,256.13616 200.36792,256.48773 C 200.8015,256.83929 201.33471,257.15569 201.96753,257.43695 C 202.71752,257.7885 203.50267,258.06975 204.323,258.2807 C 205.1433,258.49163 206.30345,258.5971 207.80347,258.59711 C 209.2097,258.5971 210.56321,258.36272 211.86401,257.89398 C 213.16477,257.42522 214.30735,256.67522 215.29175,255.64398 C 216.32297,254.56585 217.12571,253.30609 217.69995,251.86469 C 218.27414,250.42328 218.56125,248.5307 218.56128,246.18695 C 218.56125,244.92133 218.42649,243.66742 218.15698,242.42523 C 217.88742,241.18305 217.38938,240.10493 216.66284,239.19086 C 215.93625,238.2768 214.94602,237.56782 213.69214,237.0639 C 212.43821,236.56001 210.85032,236.30806 208.92847,236.30804 L 204.323,236.30804 L 204.323,232.26508 L 207.38159,232.26508 C 210.61595,232.26509 212.94798,231.37447 214.37769,229.5932 C 215.80735,227.81197 216.52219,225.12838 216.52222,221.54242 C 216.52219,218.61276 215.83079,216.40378 214.448,214.91547 C 213.06516,213.42722 211.10813,212.68308 208.5769,212.68304 C 207.35814,212.68308 206.35619,212.82956 205.57104,213.1225 C 204.78587,213.4155 204.1472,213.70261 203.65503,213.98383 C 203.06908,214.31199 202.58861,214.67527 202.21362,215.07367 C 201.83861,215.47214 201.55736,215.76511 201.36987,215.95258 C 201.53392,216.70261 201.73314,217.62253 201.96753,218.71234 C 202.20189,219.80221 202.31908,220.83932 202.31909,221.82367 C 202.31908,222.69088 201.94994,223.47018 201.21167,224.16156 C 200.47338,224.85299 199.3894,225.19869 197.95972,225.19867 C 196.71752,225.19869 195.80932,224.75338 195.23511,223.86273 C 194.66088,222.97213 194.37378,221.94088 194.37378,220.76898 C 194.37378,219.55026 194.71362,218.30807 195.39331,217.04242 C 196.07299,215.77683 197.0808,214.59323 198.41675,213.49164 C 199.75268,212.39011 201.38158,211.49949 203.30347,210.81976 C 205.22533,210.14011 207.44017,209.80027 209.948,209.80023 C 212.83079,209.80027 215.21555,210.228 217.10229,211.08344 C 218.98898,211.93894 220.47141,212.97605 221.54956,214.19476 C 222.60422,215.39011 223.33078,216.64401 223.72925,217.95648 C 224.12765,219.26901 224.32687,220.39401 224.3269,221.33148 C 224.32687,222.50338 224.16281,223.68112 223.83472,224.86469 C 223.50656,226.0483 222.9675,227.144 222.21753,228.15179 C 221.39719,229.25338 220.3132,230.25533 218.96558,231.15765 C 217.61789,232.06001 215.92453,232.79244 213.8855,233.35492 L 213.8855,233.91742 C 215.19797,234.03462 216.59836,234.32759 218.08667,234.79633 C 219.57492,235.26509 220.91672,235.95649 222.11206,236.87054 C 223.35421,237.83149 224.37375,239.06782 225.17065,240.57953 C 225.96749,242.09125 226.36593,244.00727 226.36597,246.32758 C 226.36593,250.82757 224.56125,254.47796 220.9519,257.27875 C 217.3425,260.07952 212.83079,261.47991 207.41675,261.47992 L 207.41675,261.47992 z "
       id="text2188" />
    <path
       style="font-size:72px;font-style:normal;font-variant:normal;font-weight:normal;font-stretch:normal;text-align:start;line-height:125%;writing-mode:lr-tb;text-anchor:start;fill:#ffffff;fill-opacity:1;stroke:none;stroke-width:1px;stroke-linecap:butt;stroke-linejoin:miter;stroke-opacity:1;font-family:Georgia"
       d="M 305.46313,261.47992 C 303.25999,261.47991 301.24437,261.20452 299.41626,260.65375 C 297.58813,260.10295 296.01781,259.35881 294.70532,258.42133 C 293.39282,257.48382 292.37915,256.40569 291.66431,255.18695 C 290.94946,253.9682 290.59204,252.71429 290.59204,251.42523 C 290.59204,250.27679 290.87329,249.23968 291.43579,248.3139 C 291.99829,247.38812 292.90063,246.92523 294.14282,246.92523 C 295.54907,246.92523 296.62133,247.27094 297.35962,247.96234 C 298.09789,248.65375 298.46703,249.44476 298.46704,250.33539 C 298.46703,251.08539 298.34398,252.0346 298.0979,253.18304 C 297.8518,254.33148 297.65844,255.15179 297.51782,255.64398 C 297.68188,255.85491 297.9807,256.13616 298.41431,256.48773 C 298.84789,256.83929 299.38109,257.15569 300.01392,257.43695 C 300.7639,257.7885 301.54906,258.06975 302.36938,258.2807 C 303.18968,258.49163 304.34984,258.5971 305.84985,258.59711 C 307.25608,258.5971 308.6096,258.36272 309.9104,257.89398 C 311.21116,257.42522 312.35374,256.67522 313.33813,255.64398 C 314.36936,254.56585 315.17209,253.30609 315.74634,251.86469 C 316.32053,250.42328 316.60764,248.5307 316.60767,246.18695 C 316.60764,244.92133 316.47287,243.66742 316.20337,242.42523 C 315.93381,241.18305 315.43576,240.10493 314.70923,239.19086 C 313.98264,238.2768 312.99241,237.56782 311.73853,237.0639 C 310.4846,236.56001 308.89671,236.30806 306.97485,236.30804 L 302.36938,236.30804 L 302.36938,232.26508 L 305.42798,232.26508 C 308.66233,232.26509 310.99436,231.37447 312.42407,229.5932 C 313.85373,227.81197 314.56858,225.12838 314.5686,221.54242 C 314.56858,218.61276 313.87717,216.40378 312.49438,214.91547 C 311.11155,213.42722 309.15452,212.68308 306.62329,212.68304 C 305.40452,212.68308 304.40257,212.82956 303.61743,213.1225 C 302.83226,213.4155 302.19359,213.70261 301.70142,213.98383 C 301.11547,214.31199 300.635,214.67527 300.26001,215.07367 C 299.885,215.47214 299.60375,215.76511 299.41626,215.95258 C 299.58031,216.70261 299.77953,217.62253 300.01392,218.71234 C 300.24828,219.80221 300.36547,220.83932 300.36548,221.82367 C 300.36547,222.69088 299.99633,223.47018 299.25806,224.16156 C 298.51977,224.85299 297.43578,225.19869 296.0061,225.19867 C 294.76391,225.19869 293.85571,224.75338 293.28149,223.86273 C 292.70727,222.97213 292.42016,221.94088 292.42017,220.76898 C 292.42016,219.55026 292.76001,218.30807 293.4397,217.04242 C 294.11938,215.77683 295.12719,214.59323 296.46313,213.49164 C 297.79906,212.39011 299.42797,211.49949 301.34985,210.81976 C 303.27171,210.14011 305.48656,209.80027 307.99438,209.80023 C 310.87717,209.80027 313.26194,210.228 315.14868,211.08344 C 317.03537,211.93894 318.51779,212.97605 319.59595,214.19476 C 320.6506,215.39011 321.37716,216.64401 321.77563,217.95648 C 322.17404,219.26901 322.37326,220.39401 322.37329,221.33148 C 322.37326,222.50338 322.20919,223.68112 321.8811,224.86469 C 321.55295,226.0483 321.01388,227.144 320.26392,228.15179 C 319.44357,229.25338 318.35959,230.25533 317.01196,231.15765 C 315.66428,232.06001 313.97092,232.79244 311.93188,233.35492 L 311.93188,233.91742 C 313.24436,234.03462 314.64475,234.32759 316.13306,234.79633 C 317.62131,235.26509 318.9631,235.95649 320.15845,236.87054 C 321.4006,237.83149 322.42013,239.06782 323.21704,240.57953 C 324.01388,242.09125 324.41232,244.00727 324.41235,246.32758 C 324.41232,250.82757 322.60763,254.47796 318.99829,257.27875 C 315.38889,260.07952 310.87717,261.47991 305.46313,261.47992 L 305.46313,261.47992 z "
       id="text2192" />
    <path
       style="font-size:72px;font-style:normal;font-variant:normal;font-weight:normal;font-stretch:normal;text-align:start;line-height:125%;writing-mode:lr-tb;text-anchor:start;fill:#ffffff;fill-opacity:1;stroke:none;stroke-width:1px;stroke-linecap:butt;stroke-linejoin:miter;stroke-opacity:1;font-family:Georgia"
       d="M 417.58426,255.0639 L 393.88895,255.0639 L 393.88895,252.56781 C 394.59207,252.52094 395.68777,252.42133 397.17606,252.26898 C 398.66433,252.11664 399.68972,251.95844 400.25223,251.79437 C 400.97878,251.56 401.53542,251.17914 401.92215,250.65179 C 402.30886,250.12446 402.50221,249.33344 402.50223,248.27875 L 402.50223,223.59906 L 393.74832,223.59906 L 393.74832,220.64594 L 395.68192,220.64594 C 398.21316,220.64597 400.48073,220.17722 402.48465,219.23969 C 404.48854,218.30222 405.92409,217.29441 406.79129,216.21625 L 409.70926,216.21625 C 409.63893,217.73972 409.56861,219.52097 409.49832,221.56 C 409.42799,223.59909 409.39283,225.42721 409.39285,227.04437 L 409.39285,247.89203 C 409.39283,248.71235 409.57447,249.44477 409.93777,250.08929 C 410.30103,250.73383 410.82252,251.20844 411.50223,251.51312 C 412.11158,251.77094 413.10767,252.00531 414.49051,252.21625 C 415.87329,252.42719 416.90454,252.54438 417.58426,252.56781 L 417.58426,255.0639 z "
       id="text2196" />
    <path
       style="font-size:72px;font-style:normal;font-variant:normal;font-weight:normal;font-stretch:normal;text-align:start;line-height:125%;writing-mode:lr-tb;text-anchor:start;fill:#ffffff;fill-opacity:1;stroke:none;stroke-width:1px;stroke-linecap:butt;stroke-linejoin:miter;stroke-opacity:1;font-family:Georgia"
       d="M 78.441406,322.49249 L 54.746094,322.49249 L 54.746094,319.9964 C 55.449213,319.94953 56.544915,319.84992 58.033203,319.69757 C 59.521475,319.54523 60.546864,319.38703 61.109375,319.22296 C 61.835926,318.98859 62.392566,318.60773 62.779297,318.08038 C 63.166002,317.55304 63.359362,316.76203 63.359375,315.70734 L 63.359375,291.02765 L 54.605469,291.02765 L 54.605469,288.07452 L 56.539063,288.07452 C 59.070303,288.07456 61.337879,287.60581 63.341797,286.66827 C 65.345688,285.73081 66.781233,284.723 67.648438,283.64484 L 70.566406,283.64484 C 70.496073,285.16831 70.425761,286.94956 70.355469,288.98859 C 70.285136,291.02768 70.24998,292.8558 70.25,294.47296 L 70.25,315.32062 C 70.24998,316.14094 70.43162,316.87336 70.794922,317.51788 C 71.158182,318.16242 71.679666,318.63703 72.359375,318.94171 C 72.968727,319.19953 73.96482,319.4339 75.347656,319.64484 C 76.730442,319.85578 77.761691,319.97296 78.441406,319.9964 L 78.441406,322.49249 z "
       id="text2200" />
    <path
       style="font-size:72px;font-style:normal;font-variant:normal;font-weight:normal;font-stretch:normal;text-align:start;line-height:125%;writing-mode:lr-tb;text-anchor:start;fill:#ffffff;fill-opacity:1;stroke:none;stroke-width:1px;stroke-linecap:butt;stroke-linejoin:miter;stroke-opacity:1;font-family:Georgia"
       d="M 170.48637,312.80695 L 163.34966,312.80695 L 163.34966,328.80304 L 156.59966,328.80304 L 156.59966,312.80695 L 134.09966,312.80695 L 134.09966,307.39288 L 158.74419,277.33429 L 163.34966,277.33429 L 163.34966,308.20148 L 170.48637,308.20148 L 170.48637,312.80695 z M 156.59966,308.20148 L 156.59966,285.17413 L 137.61528,308.20148 L 156.59966,308.20148 z "
       id="text2204" />
    <path
       style="font-size:72px;font-style:normal;font-variant:normal;font-weight:normal;font-stretch:normal;text-align:start;line-height:125%;writing-mode:lr-tb;text-anchor:start;fill:#ffffff;fill-opacity:1;stroke:none;stroke-width:1px;stroke-linecap:butt;stroke-linejoin:miter;stroke-opacity:1;font-family:Georgia"
       d="M 270.56863,311.85773 C 270.5686,314.29524 270.12914,316.58039 269.25027,318.7132 C 268.37133,320.84602 267.1936,322.66242 265.71707,324.16241 C 264.0061,325.87335 262.11353,327.13898 260.03934,327.95929 C 257.96509,328.7796 255.80299,329.18976 253.55301,329.18976 C 250.95143,329.18976 248.59596,328.70929 246.4866,327.74835 C 244.37722,326.78742 242.58425,325.42804 241.1077,323.67023 C 239.60769,321.88898 238.44753,319.7093 237.62723,317.13116 C 236.80691,314.55305 236.39676,311.65852 236.39676,308.44757 C 236.39676,300.08041 238.88699,293.02573 243.86746,287.28351 C 248.84791,281.54137 255.52174,278.09606 263.88895,276.94757 L 264.52176,280.11163 L 261.3577,280.67413 C 256.27174,282.3148 252.3401,284.86949 249.56277,288.3382 C 246.78542,291.80698 244.98659,296.01401 244.16629,300.95929 C 246.1819,299.20151 248.17409,297.95932 250.14285,297.23273 C 252.11158,296.5062 254.1858,296.14292 256.36551,296.14288 C 260.27954,296.14292 263.62524,297.64291 266.40262,300.64288 C 269.17993,303.64291 270.5686,307.38119 270.56863,311.85773 L 270.56863,311.85773 z M 262.93973,312.80695 C 262.9397,309.01009 262.06665,305.96322 260.32059,303.66632 C 258.57447,301.36947 256.23658,300.22104 253.30692,300.22101 C 251.54908,300.22104 249.91432,300.54916 248.40262,301.20538 C 246.89089,301.86166 245.4319,302.96322 244.02567,304.51007 C 244.00222,304.79134 243.96706,305.44173 243.9202,306.46124 C 243.87331,307.48079 243.84987,308.28353 243.84988,308.86945 C 243.84987,314.35383 244.74636,318.64875 246.53934,321.75421 C 248.33229,324.85968 250.69362,326.41242 253.62332,326.41241 C 256.41236,326.41242 258.66236,325.19953 260.37332,322.77374 C 262.08423,320.34797 262.9397,317.02571 262.93973,312.80695 L 262.93973,312.80695 z "
       id="text2208" />
    <path
       style="font-size:72px;font-style:normal;font-variant:normal;font-weight:normal;font-stretch:normal;text-align:start;line-height:125%;writing-mode:lr-tb;text-anchor:start;fill:#ffffff;fill-opacity:1;stroke:none;stroke-width:1px;stroke-linecap:butt;stroke-linejoin:miter;stroke-opacity:1;font-family:Georgia"
       d="M 383.83633,312.80695 L 376.69962,312.80695 L 376.69962,328.80304 L 369.94962,328.80304 L 369.94962,312.80695 L 347.44962,312.80695 L 347.44962,307.39288 L 372.09415,277.33429 L 376.69962,277.33429 L 376.69962,308.20148 L 383.83633,308.20148 L 383.83633,312.80695 z M 369.94962,308.20148 L 369.94962,285.17413 L 350.96524,308.20148 L 369.94962,308.20148 z "
       id="text2212" />
    <path
       style="font-size:72px;font-style:normal;font-variant:normal;font-weight:normal;font-stretch:normal;text-align:start;line-height:125%;writing-mode:lr-tb;text-anchor:start;fill:#ffffff;fill-opacity:1;stroke:none;stroke-width:1px;stroke-linecap:butt;stroke-linejoin:miter;stroke-opacity:1;font-family:Georgia"
       d="M 481.29855,322.49249 L 457.60324,322.49249 L 457.60324,319.9964 C 458.30636,319.94953 459.40206,319.84992 460.89035,319.69757 C 462.37862,319.54523 463.40401,319.38703 463.96652,319.22296 C 464.69307,318.98859 465.24971,318.60773 465.63644,318.08038 C 466.02315,317.55304 466.21651,316.76203 466.21652,315.70734 L 466.21652,291.02765 L 457.46262,291.02765 L 457.46262,288.07452 L 459.39621,288.07452 C 461.92745,288.07456 464.19503,287.60581 466.19894,286.66827 C 468.20283,285.73081 469.63838,284.723 470.50558,283.64484 L 473.42355,283.64484 C 473.35322,285.16831 473.28291,286.94956 473.21262,288.98859 C 473.14228,291.02768 473.10713,292.8558 473.10715,294.47296 L 473.10715,315.32062 C 473.10713,316.14094 473.28877,316.87336 473.65207,317.51788 C 474.01533,318.16242 474.53681,318.63703 475.21652,318.94171 C 475.82587,319.19953 476.82197,319.4339 478.2048,319.64484 C 479.58759,319.85578 480.61884,319.97296 481.29855,319.9964 L 481.29855,322.49249 z "
       id="text2216" />
    <path
       style="font-size:72px;font-style:normal;font-variant:normal;font-weight:normal;font-stretch:normal;text-align:start;line-height:125%;writing-mode:lr-tb;text-anchor:start;fill:#ffffff;fill-opacity:1;stroke:none;stroke-width:1px;stroke-linecap:butt;stroke-linejoin:miter;stroke-opacity:1;font-family:Georgia"
       d="M 30.72712,391.7782 L 7.0318079,391.7782 L 7.0318079,389.2821 C 7.7349274,389.23523 8.8306295,389.13562 10.318917,388.98328 C 11.807189,388.83094 12.832579,388.67273 13.395089,388.50867 C 14.12164,388.2743 14.67828,387.89344 15.065011,387.36609 C 15.451717,386.83875 15.645076,386.04774 15.645089,384.99304 L 15.645089,360.31335 L 6.8911829,360.31335 L 6.8911829,357.36023 L 8.8247767,357.36023 C 11.356018,357.36026 13.623593,356.89151 15.627511,355.95398 C 17.631402,355.01652 19.066947,354.0087 19.934152,352.93054 L 22.85212,352.93054 C 22.781787,354.45402 22.711475,356.23527 22.641183,358.27429 C 22.57085,360.31339 22.535694,362.14151 22.535714,363.75867 L 22.535714,384.60632 C 22.535694,385.42664 22.717334,386.15906 23.080636,386.80359 C 23.443896,387.44812 23.96538,387.92273 24.645089,388.22742 C 25.254441,388.48523 26.250534,388.71961 27.63337,388.93054 C 29.016156,389.14148 30.047405,389.25867 30.72712,389.2821 L 30.72712,391.7782 z "
       id="text2220" />
    <path
       style="font-size:72px;font-style:normal;font-variant:normal;font-weight:normal;font-stretch:normal;text-align:start;line-height:125%;writing-mode:lr-tb;text-anchor:start;fill:#ffffff;fill-opacity:1;stroke:none;stroke-width:1px;stroke-linecap:butt;stroke-linejoin:miter;stroke-opacity:1;font-family:Georgia"
       d="M 112.51233,368.3114 C 114.05917,369.53017 115.34237,371.10048 116.36194,373.02234 C 117.38144,374.94422 117.8912,377.34657 117.89124,380.22937 C 117.8912,385.26843 116.16855,389.42858 112.72327,392.70984 C 109.27793,395.99108 104.90684,397.6317 99.609985,397.63171 C 95.50841,397.6317 92.039664,396.65905 89.203735,394.71375 C 86.367794,392.76842 84.949827,390.50671 84.949829,387.92859 C 84.949827,386.73327 85.242795,385.69031 85.828735,384.79968 C 86.414669,383.90906 87.317012,383.46375 88.535767,383.46375 C 89.94201,383.46375 91.014274,383.83289 91.752563,384.57117 C 92.490835,385.30945 92.859975,386.11218 92.859985,386.97937 C 92.859975,387.72937 92.731069,388.66687 92.473267,389.79187 C 92.215445,390.91686 92.016226,391.74889 91.87561,392.28796 C 92.063101,392.45202 92.367788,392.67467 92.789673,392.95593 C 93.211538,393.23717 93.715443,393.50671 94.301392,393.76453 C 94.910755,394.02233 95.654894,394.25085 96.533813,394.45007 C 97.412705,394.64928 98.438095,394.74889 99.609985,394.7489 C 101.10997,394.74889 102.52793,394.4442 103.86389,393.83484 C 105.19981,393.22546 106.32481,392.32311 107.23889,391.12781 C 108.24668,389.8153 109.00254,388.32116 109.50647,386.64539 C 110.01035,384.9696 110.2623,382.84265 110.26233,380.26453 C 110.2623,376.95985 109.34238,374.22352 107.50256,372.05554 C 105.6627,369.88759 103.24278,368.8036 100.2428,368.80359 C 98.367782,368.8036 96.615831,369.15517 94.986938,369.85828 C 93.358022,370.56142 91.899039,371.73329 90.609985,373.3739 L 88.254517,372.45984 L 91.242798,347.07703 L 116.41467,347.07703 L 116.41467,353.33484 L 94.090454,353.33484 L 92.262329,368.24109 C 93.317006,367.49111 94.705677,366.74697 96.428345,366.00867 C 98.150986,365.27041 100.04356,364.90127 102.10608,364.90125 C 103.817,364.90127 105.59238,365.16494 107.43225,365.69226 C 109.27207,366.21962 110.96543,367.09267 112.51233,368.3114 L 112.51233,368.3114 z "
       id="text2224" />
    <path
       style="font-size:72px;font-style:normal;font-variant:normal;font-weight:normal;font-stretch:normal;text-align:start;line-height:125%;writing-mode:lr-tb;text-anchor:start;fill:#ffffff;fill-opacity:1;stroke:none;stroke-width:1px;stroke-linecap:butt;stroke-linejoin:miter;stroke-opacity:1;font-family:Georgia"
       d="M 195.86667,391.2157 L 172.17136,391.2157 L 172.17136,388.7196 C 172.87448,388.67273 173.97018,388.57312 175.45847,388.42078 C 176.94674,388.26844 177.97213,388.11023 178.53464,387.94617 C 179.26119,387.7118 179.81783,387.33094 180.20456,386.80359 C 180.59126,386.27625 180.78462,385.48524 180.78464,384.43054 L 180.78464,359.75085 L 172.03073,359.75085 L 172.03073,356.79773 L 173.96432,356.79773 C 176.49557,356.79776 178.76314,356.32901 180.76706,355.39148 C 182.77095,354.45402 184.2065,353.4462 185.0737,352.36804 L 187.99167,352.36804 C 187.92134,353.89152 187.85102,355.67277 187.78073,357.71179 C 187.7104,359.75089 187.67524,361.57901 187.67526,363.19617 L 187.67526,384.04382 C 187.67524,384.86414 187.85688,385.59656 188.22018,386.24109 C 188.58344,386.88562 189.10493,387.36023 189.78464,387.66492 C 190.39399,387.92273 191.39008,388.15711 192.77292,388.36804 C 194.1557,388.57898 195.18695,388.69617 195.86667,388.7196 L 195.86667,391.2157 z M 234.46823,358.37976 C 235.96819,360.18448 237.08733,362.29971 237.82565,364.72546 C 238.56389,367.15127 238.93303,369.68838 238.93307,372.33679 C 238.93303,375.52431 238.476,378.37782 237.56198,380.89734 C 236.64788,383.41688 235.39398,385.50867 233.80026,387.17273 C 232.1596,388.88367 230.21429,390.17273 227.96432,391.03992 C 225.7143,391.9071 223.20649,392.3407 220.44089,392.3407 C 217.41743,392.3407 214.72212,391.83679 212.35495,390.82898 C 209.98775,389.82117 208.06588,388.43836 206.58932,386.68054 C 205.04244,384.85242 203.88815,382.71375 203.12643,380.26453 C 202.36471,377.81532 201.98385,375.17275 201.98386,372.33679 C 201.98385,369.54775 202.35299,366.98135 203.09128,364.63757 C 203.82955,362.29385 204.98385,360.17276 206.55417,358.27429 C 208.05416,356.4462 209.98775,355.0048 212.35495,353.95007 C 214.72212,352.89542 217.42915,352.36808 220.47604,352.36804 C 223.68696,352.36808 226.44086,352.90714 228.73776,353.98523 C 231.0346,355.06339 232.94476,356.52823 234.46823,358.37976 L 234.46823,358.37976 z M 231.16354,372.33679 C 231.16351,366.75869 230.20843,362.43448 228.29831,359.36414 C 226.38813,356.29386 223.79242,354.7587 220.5112,354.75867 C 217.18306,354.7587 214.55806,356.29386 212.6362,359.36414 C 210.71431,362.43448 209.75338,366.75869 209.75339,372.33679 C 209.75338,377.63368 210.6733,381.89344 212.51315,385.11609 C 214.35298,388.33875 216.99556,389.95007 220.44089,389.95007 C 223.88617,389.95007 226.53461,388.33875 228.3862,385.11609 C 230.23773,381.89344 231.16351,377.63368 231.16354,372.33679 L 231.16354,372.33679 z "
       id="text2228" />
    <path
       style="font-size:72px;font-style:normal;font-variant:normal;font-weight:normal;font-stretch:normal;text-align:start;line-height:125%;writing-mode:lr-tb;text-anchor:start;fill:#ffffff;fill-opacity:1;stroke:none;stroke-width:1px;stroke-linecap:butt;stroke-linejoin:miter;stroke-opacity:1;font-family:Georgia"
       d="M 316.68777,391.2157 L 292.99246,391.2157 L 292.99246,388.7196 C 293.69558,388.67273 294.79128,388.57312 296.27957,388.42078 C 297.76784,388.26844 298.79323,388.11023 299.35574,387.94617 C 300.08229,387.7118 300.63893,387.33094 301.02567,386.80359 C 301.41237,386.27625 301.60573,385.48524 301.60574,384.43054 L 301.60574,359.75085 L 292.85184,359.75085 L 292.85184,356.79773 L 294.78543,356.79773 C 297.31667,356.79776 299.58425,356.32901 301.58817,355.39148 C 303.59206,354.45402 305.0276,353.4462 305.89481,352.36804 L 308.81277,352.36804 C 308.74244,353.89152 308.67213,355.67277 308.60184,357.71179 C 308.5315,359.75089 308.49635,361.57901 308.49637,363.19617 L 308.49637,384.04382 C 308.49635,384.86414 308.67799,385.59656 309.04129,386.24109 C 309.40455,386.88562 309.92603,387.36023 310.60574,387.66492 C 311.2151,387.92273 312.21119,388.15711 313.59402,388.36804 C 314.97681,388.57898 316.00806,388.69617 316.68777,388.7196 L 316.68777,391.2157 z M 355.28934,358.37976 C 356.7893,360.18448 357.90844,362.29971 358.64676,364.72546 C 359.385,367.15127 359.75414,369.68838 359.75418,372.33679 C 359.75414,375.52431 359.29711,378.37782 358.38309,380.89734 C 357.46899,383.41688 356.21508,385.50867 354.62137,387.17273 C 352.98071,388.88367 351.0354,390.17273 348.78543,391.03992 C 346.5354,391.9071 344.02759,392.3407 341.26199,392.3407 C 338.23854,392.3407 335.54323,391.83679 333.17606,390.82898 C 330.80886,389.82117 328.88698,388.43836 327.41043,386.68054 C 325.86355,384.85242 324.70925,382.71375 323.94754,380.26453 C 323.18582,377.81532 322.80496,375.17275 322.80496,372.33679 C 322.80496,369.54775 323.1741,366.98135 323.91238,364.63757 C 324.65066,362.29385 325.80496,360.17276 327.37527,358.27429 C 328.87526,356.4462 330.80886,355.0048 333.17606,353.95007 C 335.54323,352.89542 338.25026,352.36808 341.29715,352.36804 C 344.50806,352.36808 347.26197,352.90714 349.55887,353.98523 C 351.85571,355.06339 353.76587,356.52823 355.28934,358.37976 L 355.28934,358.37976 z M 351.98465,372.33679 C 351.98462,366.75869 351.02954,362.43448 349.11942,359.36414 C 347.20923,356.29386 344.61353,354.7587 341.33231,354.75867 C 338.00416,354.7587 335.37916,356.29386 333.45731,359.36414 C 331.53542,362.43448 330.57448,366.75869 330.57449,372.33679 C 330.57448,377.63368 331.4944,381.89344 333.33426,385.11609 C 335.17409,388.33875 337.81666,389.95007 341.26199,389.95007 C 344.70728,389.95007 347.35572,388.33875 349.20731,385.11609 C 351.05884,381.89344 351.98462,377.63368 351.98465,372.33679 L 351.98465,372.33679 z "
       id="text2232" />
    <path
       style="font-size:72px;font-style:normal;font-variant:normal;font-weight:normal;font-stretch:normal;text-align:start;line-height:125%;writing-mode:lr-tb;text-anchor:start;fill:#ffffff;fill-opacity:1;stroke:none;stroke-width:1px;stroke-linecap:butt;stroke-linejoin:miter;stroke-opacity:1;font-family:Georgia"
       d="M 440.95575,368.3114 C 442.50259,369.53017 443.7858,371.10048 444.80536,373.02234 C 445.82486,374.94422 446.33462,377.34657 446.33466,380.22937 C 446.33462,385.26843 444.61197,389.42858 441.16669,392.70984 C 437.72135,395.99108 433.35026,397.6317 428.05341,397.63171 C 423.95183,397.6317 420.48308,396.65905 417.64716,394.71375 C 414.81121,392.76842 413.39325,390.50671 413.39325,387.92859 C 413.39325,386.73327 413.68622,385.69031 414.27216,384.79968 C 414.85809,383.90906 415.76043,383.46375 416.97919,383.46375 C 418.38543,383.46375 419.45769,383.83289 420.19598,384.57117 C 420.93426,385.30945 421.3034,386.11218 421.30341,386.97937 C 421.3034,387.72937 421.17449,388.66687 420.91669,389.79187 C 420.65887,390.91686 420.45965,391.74889 420.31903,392.28796 C 420.50652,392.45202 420.81121,392.67467 421.23309,392.95593 C 421.65496,393.23717 422.15886,393.50671 422.74481,393.76453 C 423.35417,394.02233 424.09831,394.25085 424.97723,394.45007 C 425.85613,394.64928 426.88152,394.74889 428.05341,394.7489 C 429.55339,394.74889 430.97135,394.4442 432.30731,393.83484 C 433.64323,393.22546 434.76823,392.32311 435.68231,391.12781 C 436.6901,389.8153 437.44596,388.32116 437.94989,386.64539 C 438.45377,384.9696 438.70572,382.84265 438.70575,380.26453 C 438.70572,376.95985 437.7858,374.22352 435.94598,372.05554 C 434.10612,369.88759 431.6862,368.8036 428.68622,368.80359 C 426.8112,368.8036 425.05925,369.15517 423.43036,369.85828 C 421.80144,370.56142 420.34246,371.73329 419.05341,373.3739 L 416.69794,372.45984 L 419.68622,347.07703 L 444.85809,347.07703 L 444.85809,353.33484 L 422.53387,353.33484 L 420.70575,368.24109 C 421.76043,367.49111 423.1491,366.74697 424.87177,366.00867 C 426.59441,365.27041 428.48698,364.90127 430.5495,364.90125 C 432.26042,364.90127 434.0358,365.16494 435.87567,365.69226 C 437.71549,366.21962 439.40885,367.09267 440.95575,368.3114 L 440.95575,368.3114 z "
       id="text2236" />
    <path
       style="font-size:72px;font-style:normal;font-variant:normal;font-weight:normal;font-stretch:normal;text-align:start;line-height:125%;writing-mode:lr-tb;text-anchor:start;fill:#ffffff;fill-opacity:1;stroke:none;stroke-width:1px;stroke-linecap:butt;stroke-linejoin:miter;stroke-opacity:1;font-family:Georgia"
       d="M 523.58426,391.7782 L 499.88895,391.7782 L 499.88895,389.2821 C 500.59207,389.23523 501.68777,389.13562 503.17606,388.98328 C 504.66433,388.83094 505.68972,388.67273 506.25223,388.50867 C 506.97878,388.2743 507.53542,387.89344 507.92215,387.36609 C 508.30886,386.83875 508.50221,386.04774 508.50223,384.99304 L 508.50223,360.31335 L 499.74832,360.31335 L 499.74832,357.36023 L 501.68192,357.36023 C 504.21316,357.36026 506.48073,356.89151 508.48465,355.95398 C 510.48854,355.01652 511.92409,354.0087 512.79129,352.93054 L 515.70926,352.93054 C 515.63893,354.45402 515.56861,356.23527 515.49832,358.27429 C 515.42799,360.31339 515.39283,362.14151 515.39285,363.75867 L 515.39285,384.60632 C 515.39283,385.42664 515.57447,386.15906 515.93777,386.80359 C 516.30103,387.44812 516.82252,387.92273 517.50223,388.22742 C 518.11158,388.48523 519.10767,388.71961 520.49051,388.93054 C 521.87329,389.14148 522.90454,389.25867 523.58426,389.2821 L 523.58426,391.7782 z "
       id="text2240" />
  </g>
</svg>
