<?xml version="1.0" encoding="UTF-8" standalone="no"?>
<!-- Created with Inkscape (http://www.inkscape.org/) -->

<svg
   width="100"
   height="100"
   viewBox="0 0 26.458333 26.458333"
   version="1.1"
   id="svg1"
   xml:space="preserve"
   xmlns="http://www.w3.org/2000/svg"
   xmlns:svg="http://www.w3.org/2000/svg"><defs
     id="defs1" /><g
     id="layer1"><path
       id="path7"
       style="fill:#ffffff;stroke:none;stroke-width:1.42311;stroke-linecap:round;stroke-miterlimit:0;paint-order:markers fill stroke"
       d="M 13.229167,0 A 13.229167,13.229167 0 0 0 0,13.229167 13.229167,13.229167 0 0 0 13.229167,26.458333 13.229167,13.229167 0 0 0 26.458333,13.229167 13.229167,13.229167 0 0 0 13.229167,0 Z m 0,0.79375 A 12.435416,12.435416 0 0 1 25.664583,13.229167 12.435416,12.435416 0 0 1 13.229167,25.664583 12.435416,12.435416 0 0 1 0.79375,13.229167 12.435416,12.435416 0 0 1 13.229167,0.79375 Z" /><g
       style="fill:#ffffff"
       id="g1"
       transform="matrix(0.16969704,0,0,0.16969704,3.9687501,3.968743)"><g
         id="g6"
         style="fill:#ffffff">
	<g
   id="g5"
   style="fill:#ffffff">
		<path
   d="M 107.507,77.888 23.322,9.216 c -1.348,-1.101 -3.19,-1.32 -4.758,-0.578 -1.568,0.743 -2.558,2.311 -2.558,4.043 v 68.068 c 0,2.447 1.98,4.62 4.455,4.62 l 84.186,0.742 h 0.026 c 1.897,0 3.575,-1.349 4.208,-3.107 0.633,-1.76 0.083,-3.906 -1.374,-5.116 z M 24.972,76.321 v -54.18 l 67.023,54.675 z"
   id="path1"
   style="fill:#ffffff" />
		<g
   id="g2"
   style="fill:#ffffff">
			<path
   d="m 0,46.866 c 0,-0.908 0.743,-1.623 1.623,-1.623 0.88,0 1.623,0.743 1.623,1.623 v 4.317 c 0.798,-1.072 1.897,-1.87 3.575,-1.87 2.695,0 5.253,2.118 5.253,5.939 v 0.056 c 0,3.851 -2.502,5.94 -5.253,5.94 -1.732,0 -2.805,-0.798 -3.575,-1.733 v 0.028 c 0,0.88 -0.743,1.622 -1.623,1.622 C 0.715,61.166 0,60.424 0,59.544 Z m 8.829,8.443 v -0.027 c 0,-1.897 -1.292,-3.189 -2.805,-3.189 -1.513,0 -2.805,1.265 -2.805,3.189 v 0.056 c 0,1.897 1.265,3.19 2.805,3.19 1.512,-0.029 2.805,-1.267 2.805,-3.219 z"
   id="path2"
   style="fill:#ffffff" />
		</g>
		<g
   id="g3"
   style="fill:#ffffff">
			<path
   d="m 69.637,29.87 c 0,-0.908 0.741,-1.623 1.623,-1.623 0.879,0 1.621,0.742 1.621,1.623 v 4.29 c 0.743,-0.963 1.705,-1.843 3.383,-1.843 2.477,0 3.905,1.623 3.905,4.263 v 5.94 c 0,0.908 -0.741,1.623 -1.622,1.623 -0.881,0 -1.623,-0.743 -1.623,-1.623 v -4.923 c 0,-1.54 -0.742,-2.338 -1.98,-2.338 -1.236,0 -2.034,0.798 -2.034,2.338 v 4.923 c 0,0.908 -0.742,1.623 -1.622,1.623 -0.88,0 -1.623,-0.743 -1.623,-1.623 V 29.87 Z"
   id="path3"
   style="fill:#ffffff" />
		</g>
		<g
   id="g4"
   style="fill:#ffffff">
			<path
   d="M 52.612,97.387 V 97.36 c 0,-2.503 1.897,-3.687 4.648,-3.687 1.155,0 2.008,0.192 2.807,0.468 V 93.95 c 0,-1.348 -0.825,-2.118 -2.477,-2.118 -0.906,0 -1.623,0.138 -2.255,0.33 -0.192,0.055 -0.331,0.083 -0.468,0.083 -0.742,0 -1.348,-0.578 -1.348,-1.32 0,-0.578 0.358,-1.072 0.88,-1.266 1.018,-0.385 2.146,-0.604 3.686,-0.604 1.787,0 3.08,0.469 3.878,1.292 0.854,0.854 1.237,2.118 1.237,3.687 v 5.253 c 0,0.88 -0.716,1.567 -1.595,1.567 -0.937,0 -1.568,-0.66 -1.568,-1.349 v -0.026 c -0.797,0.88 -1.896,1.458 -3.492,1.458 -2.145,-0.029 -3.933,-1.295 -3.933,-3.55 z m 7.482,-0.77 V 96.04 C 59.542,95.793 58.8,95.6 58.002,95.6 c -1.402,0 -2.255,0.552 -2.255,1.597 v 0.055 c 0,0.88 0.742,1.402 1.788,1.402 1.541,-0.002 2.559,-0.854 2.559,-2.037 z"
   id="path4"
   style="fill:#ffffff" />
		</g>
	</g>
</g></g></g></svg>
