<?xml version="1.0" encoding="UTF-8" standalone="no"?>
<!-- Created with Inkscape (http://www.inkscape.org/) -->

<svg
   width="100"
   height="100"
   viewBox="0 0 26.458333 26.458333"
   version="1.1"
   id="svg1"
   xml:space="preserve"
   inkscape:version="1.3.2 (091e20e, 2023-11-25, custom)"
   sodipodi:docname="AnalyticGeometry_Inkscape.svg"
   xmlns:inkscape="http://www.inkscape.org/namespaces/inkscape"
   xmlns:sodipodi="http://sodipodi.sourceforge.net/DTD/sodipodi-0.dtd"
   xmlns="http://www.w3.org/2000/svg"
   xmlns:svg="http://www.w3.org/2000/svg"><sodipodi:namedview
     id="namedview1"
     pagecolor="#000000"
     bordercolor="#999999"
     borderopacity="1"
     inkscape:showpageshadow="0"
     inkscape:pageopacity="0"
     inkscape:pagecheckerboard="0"
     inkscape:deskcolor="#d1d1d1"
     inkscape:document-units="mm"
     inkscape:zoom="2.9540685"
     inkscape:cx="35.205684"
     inkscape:cy="41.129717"
     inkscape:window-width="1920"
     inkscape:window-height="1046"
     inkscape:window-x="-11"
     inkscape:window-y="-11"
     inkscape:window-maximized="1"
     inkscape:current-layer="layer1"
     showgrid="false" /><defs
     id="defs1" /><g
     inkscape:label="Capa 1"
     inkscape:groupmode="layer"
     id="layer1"><path
       id="path7"
       style="fill:#ffffff;stroke:none;stroke-width:1.42311;stroke-linecap:round;stroke-miterlimit:0;paint-order:markers fill stroke"
       d="M 13.229167,0 A 13.229167,13.229167 0 0 0 0,13.229167 13.229167,13.229167 0 0 0 13.229167,26.458333 13.229167,13.229167 0 0 0 26.458333,13.229167 13.229167,13.229167 0 0 0 13.229167,0 Z m 0,0.79375 A 12.435416,12.435416 0 0 1 25.664583,13.229167 12.435416,12.435416 0 0 1 13.229167,25.664583 12.435416,12.435416 0 0 1 0.79375,13.229167 12.435416,12.435416 0 0 1 13.229167,0.79375 Z" /><g
       style="fill:#ffffff"
       id="g1"
       transform="matrix(0.06839762,0,0,0.06839762,3.3041118,3.3041079)"><path
         color-rendering="auto"
         image-rendering="auto"
         shape-rendering="auto"
         color-interpolation="sRGB"
         d="m 95.31,0.006 c -3.985,-0.207 -7.544,4.983 -3.775,8.666 l 8.584,8.584 v 7.889 c -0.039,2.761 2.168,5.032 4.929,5.071 2.761,0.039 5.032,-2.168 5.071,-4.929 0.001,-0.047 0.001,-0.094 0,-0.141 v -7.887 l 8.586,-8.586 c 4.824,-4.714 -2.359,-11.895 -7.072,-7.07 L 105.119,8.115 98.607,1.603 C 97.576,0.546 96.426,0.064 95.31,0.006 Z m 49.734,0.139 c -1.3,0.019 -2.541,0.544 -3.461,1.463 l -10,10 c -1.977,1.929 -2.016,5.095 -0.087,7.071 1.929,1.977 5.095,2.016 7.071,0.087 0.029,-0.028 0.058,-0.057 0.086,-0.086 l 1.465,-1.465 v 122.93 h -135 c -6.762,-0.096 -6.762,10.096 0,10 h 135 v 135 c -0.096,6.762 10.096,6.762 10,0 v -135 h 122.928 l -1.463,1.463 c -4.827,4.713 2.356,11.898 7.07,7.072 l 9.477,-9.477 c 2.221,-1.642 2.69,-4.773 1.048,-6.994 -0.158,-0.214 -0.334,-0.416 -0.524,-0.602 l -10,-10 c -0.942,-0.969 -2.237,-1.515 -3.588,-1.514 -2.762,0.002 -4.999,2.242 -4.997,5.004 10e-4,1.35 0.547,2.641 1.515,3.582 l 1.465,1.465 h -32.93 v -5 c 0.041,-2.82 -2.257,-5.115 -5.076,-5.072 -2.76,0.042 -4.964,2.312 -4.924,5.072 v 5 h -20 v -5 c 0.041,-2.82 -2.257,-5.115 -5.076,-5.072 -2.76,0.042 -4.964,2.312 -4.924,5.072 v 5 h -20 v -5 c 0.041,-2.82 -2.257,-5.115 -5.076,-5.072 -2.76,0.042 -4.964,2.312 -4.924,5.072 v 5 h -20 v -20 h 5 c 6.762,0.096 6.762,-10.096 0,-10 h -5 v -20 h 5 c 6.762,0.096 6.762,-10.096 0,-10 h -5 v -20 h 5 c 6.762,0.096 6.762,-10.096 0,-10 h -5 v -32.93 l 1.465,1.465 c 1.929,1.976 5.095,2.014 7.071,0.085 1.976,-1.929 2.014,-5.095 0.085,-7.071 -0.028,-0.029 -0.057,-0.058 -0.086,-0.086 l -10,-10 c -0.956,-0.955 -2.258,-1.482 -3.61,-1.462 z m -39.976,169.949 c -4.788,0 -8.77,2.928 -11.23,6.619 -2.461,3.691 -3.77,8.338 -3.77,13.381 0,5.043 1.309,9.688 3.77,13.379 2.461,3.691 6.442,6.621 11.23,6.621 4.788,0 8.77,-2.93 11.23,-6.621 2.461,-3.691 3.77,-8.336 3.77,-13.379 0,-5.043 -1.309,-9.69 -3.77,-13.381 -2.461,-3.691 -6.442,-6.619 -11.23,-6.619 z m 159.998,0 c -2.762,0.002 -4.999,2.242 -4.997,5.004 10e-4,1.35 0.547,2.641 1.515,3.582 l 6.465,6.465 -6.465,6.463 c -1.977,1.929 -2.015,5.095 -0.086,7.071 1.929,1.977 5.095,2.015 7.071,0.086 0.029,-0.028 0.057,-0.057 0.086,-0.085 l 6.465,-6.465 6.465,6.465 c 1.929,1.976 5.095,2.014 7.071,0.085 1.976,-1.929 2.014,-5.095 0.085,-7.071 -0.028,-0.029 -0.057,-0.057 -0.086,-0.085 l -6.465,-6.463 6.465,-6.465 c 1.98,-1.925 2.025,-5.091 0.1,-7.071 -0.978,-1.006 -2.333,-1.555 -3.735,-1.513 -1.298,0.039 -2.53,0.581 -3.435,1.512 l -6.465,6.465 -6.465,-6.465 c -0.944,-0.97 -2.238,-1.516 -3.589,-1.515 z m -159.998,10 c 0.735,0 1.752,0.428 2.91,2.166 1.159,1.738 2.09,4.593 2.09,7.834 0,3.241 -0.931,6.094 -2.09,7.832 -1.159,1.738 -2.175,2.168 -2.91,2.168 -0.735,0 -1.752,-0.43 -2.91,-2.168 -1.159,-1.738 -2.09,-4.591 -2.09,-7.832 0,-3.241 0.931,-6.096 2.09,-7.834 1.158,-1.738 2.175,-2.166 2.91,-2.166 z"
         id="path1"
         style="fill:#ffffff" /></g></g></svg>
