<?xml version="1.0" encoding="UTF-8" standalone="no"?>
<!-- Created with Inkscape (http://www.inkscape.org/) -->

<svg
   width="100"
   height="100"
   viewBox="0 0 26.458333 26.458333"
   version="1.1"
   id="svg1"
   xml:space="preserve"
   xmlns="http://www.w3.org/2000/svg"
   xmlns:svg="http://www.w3.org/2000/svg"><defs
     id="defs1" /><g
     id="layer1"><path
       id="path7"
       style="fill:#ffffff;stroke:none;stroke-width:1.42311;stroke-linecap:round;stroke-miterlimit:0;paint-order:markers fill stroke"
       d="M 13.229167,0 A 13.229167,13.229167 0 0 0 0,13.229167 13.229167,13.229167 0 0 0 13.229167,26.458333 13.229167,13.229167 0 0 0 26.458333,13.229167 13.229167,13.229167 0 0 0 13.229167,0 Z m 0,0.79375 A 12.435416,12.435416 0 0 1 25.664583,13.229167 12.435416,12.435416 0 0 1 13.229167,25.664583 12.435416,12.435416 0 0 1 0.79375,13.229167 12.435416,12.435416 0 0 1 13.229167,0.79375 Z" /><g
       style="fill:#ffffff"
       id="g1"
       transform="matrix(0.70555556,0,0,0.70555556,1.9402775,1.995399)"><path
         id="path1-0"
         style="fill:#ffffff;stroke-width:1.07692"
         d="M 15.525391,3.1523438 C 12.407648,5.5821535 9.2891462,8.010992 6.171875,10.441406 5.0753741,14.464445 3.9793795,18.487634 2.8867188,22.511719 7.2578612,24.694561 11.627531,26.880355 15.998047,29.064453 20.371109,26.882861 24.74221,24.697304 29.113281,22.511719 28.019901,18.481793 26.922459,14.452965 25.826172,10.423828 22.543531,7.8835113 19.265288,5.3374828 15.984375,2.7949219 15.83138,2.9140625 15.678385,3.0332031 15.525391,3.1523438 Z m -0.601563,6.3925781 c -1.357422,0 -2.714844,0 -4.072266,0 1.357422,-1.0546875 2.714844,-2.109375 4.072266,-3.1640625 0,1.0546875 0,2.109375 0,3.1640625 z m 6.22461,0 c -1.357422,0 -2.714844,0 -4.072266,0 0,-1.0546875 0,-2.109375 0,-3.1640625 1.357422,1.0546875 2.714844,2.109375 4.072266,3.1640625 z M 13.84375,11.699219 C 12.555339,13.412109 11.266927,15.125 9.9785156,16.837891 9.4960937,15.125 9.0136719,13.412109 8.53125,11.699219 c 1.770833,0 3.541667,0 5.3125,0 z m 9.625,0 C 22.986328,13.412109 22.503906,15.125 22.021484,16.837891 20.733073,15.125 19.444661,13.412109 18.15625,11.699219 c 1.770833,0 3.541667,0 5.3125,0 z m -3.160156,6.460937 c -2.872396,0 -5.744792,0 -8.617188,0 1.436198,-1.906901 2.872396,-3.813802 4.308594,-5.720703 1.436198,1.906901 2.872396,3.813802 4.308594,5.720703 z m 5.851562,1.744141 c -0.807291,-0.403646 -1.614583,-0.807292 -2.421875,-1.210938 0.359375,-1.254557 0.71875,-2.509114 1.078125,-3.763671 0.447917,1.658203 0.895834,3.316406 1.34375,4.974609 z M 8.2597656,18.701172 c -0.8066406,0.404297 -1.6132812,0.808594 -2.4199218,1.21289 0.4479166,-1.658854 0.8958333,-3.317708 1.34375,-4.976562 0.3587239,1.254557 0.7174479,2.509115 1.0761718,3.763672 z m 12.0488284,1.613281 c -1.436198,1.90625 -2.872396,3.8125 -4.308594,5.71875 -1.436198,-1.90625 -2.872396,-3.8125 -4.308594,-5.71875 2.872396,0 5.744792,0 8.617188,0 z m 2.501953,0.302735 c 0.869141,0.434244 1.738281,0.868489 2.607422,1.302734 -1.852471,0.913162 -3.70226,1.831429 -5.564453,2.724609 0.969198,-1.353091 1.95848,-2.703096 2.957031,-4.027343 z M 9.0957031,20.738281 c 0.811814,0.383775 1.0591949,1.383768 1.6774799,1.994287 0.464928,0.645133 0.929857,1.290267 1.394786,1.935401 -1.812243,-0.868841 -3.6183703,-1.750711 -5.402344,-2.675781 0.6586017,-0.614373 1.5158879,-0.953386 2.3300781,-1.253907 z" /></g></g></svg>
