<?xml version="1.0" encoding="UTF-8" standalone="no"?>
<!-- Created with Inkscape (http://www.inkscape.org/) -->

<svg
   width="100"
   height="100"
   viewBox="0 0 26.458333 26.458333"
   version="1.1"
   id="svg1"
   xml:space="preserve"
   xmlns="http://www.w3.org/2000/svg"
   xmlns:svg="http://www.w3.org/2000/svg"><defs
     id="defs1" /><g
     id="layer1"><path
       id="path7"
       style="fill:#ffffff;stroke:none;stroke-width:1.42311;stroke-linecap:round;stroke-miterlimit:0;paint-order:markers fill stroke"
       d="M 13.229167,0 A 13.229167,13.229167 0 0 0 0,13.229167 13.229167,13.229167 0 0 0 13.229167,26.458333 13.229167,13.229167 0 0 0 26.458333,13.229167 13.229167,13.229167 0 0 0 13.229167,0 Z m 0,0.79375 A 12.435416,12.435416 0 0 1 25.664583,13.229167 12.435416,12.435416 0 0 1 13.229167,25.664583 12.435416,12.435416 0 0 1 0.79375,13.229167 12.435416,12.435416 0 0 1 13.229167,0.79375 Z" /><g
       style="fill:#ffffff"
       id="g7"
       transform="matrix(0.06871965,0,0,0.06871965,4.6302081,4.6303112)"><g
         style="fill:#ffffff"
         id="g1"
         transform="matrix(0.14887887,0,0,0.14887887,-17.791151,-9.9998849)"><path
           id="path1"
           style="fill:#ffffff"
           d="M 949.05883,277.68847 C 802.51727,662.84802 655.97457,1048.0071 509.43383,1433.167 455.04773,1268.5264 400.66169,1103.8857 346.27563,939.24511 320.1005,920.31608 293.92537,901.38704 267.75024,882.458 c -70.96745,0 -141.9349,0 -212.902342,0 0,38.72266 0,77.44532 0,116.16797 62.922522,0 125.845052,0 188.767572,0 64.88639,196.47143 129.77349,392.94273 194.66016,589.41403 45.11328,1.0052 90.22656,2.0105 135.33984,3.0157 158.61298,-416.8463 317.22317,-833.69354 475.83783,-1250.5391 271.8926,0 543.7852,0 815.6778,0 0,-38.75977 0,-77.51953 0,-116.2793 -279.53,0 -559.0599,0 -838.5899,0 -25.8275,17.81706 -51.65489,35.63411 -77.48237,53.45117 z m 234.54487,671.42188 c 80.0624,80.04765 160.1265,160.09365 240.1875,240.14255 -80.0617,80.0496 -160.125,160.0976 -240.1875,240.1465 27.3724,27.3724 54.7448,54.7448 82.1172,82.1172 80.0572,-80.0587 160.1159,-160.1158 240.1719,-240.1758 80.0598,80.0437 160.1171,160.09 240.1758,240.1348 27.3658,-27.3464 54.7317,-54.6927 82.0976,-82.0391 -80.0626,-80.0611 -160.1236,-160.1237 -240.1875,-240.1836 80.0615,-80.0615 160.1251,-160.121 240.1875,-240.18162 -27.3659,-27.3457 -54.7318,-54.6914 -82.0976,-82.0371 -80.0587,80.04419 -160.1163,160.08942 -240.1758,240.13282 -80.0556,-80.0596 -160.1147,-160.11576 -240.1719,-240.17384 -27.3724,27.3724 -54.7448,54.74479 -82.1172,82.11719 z" /></g></g></g></svg>
