<?xml version="1.0" encoding="UTF-8" standalone="no"?>
<!-- Created with Inkscape (http://www.inkscape.org/) -->

<svg
   width="500"
   height="500"
   viewBox="0 0 132.29167 132.29167"
   version="1.1"
   id="svg1"
   xml:space="preserve"
   inkscape:version="1.3.2 (091e20e, 2023-11-25, custom)"
   sodipodi:docname="subject_icon_calculus.svg"
   xmlns:inkscape="http://www.inkscape.org/namespaces/inkscape"
   xmlns:sodipodi="http://sodipodi.sourceforge.net/DTD/sodipodi-0.dtd"
   xmlns="http://www.w3.org/2000/svg"
   xmlns:svg="http://www.w3.org/2000/svg"><sodipodi:namedview
     id="namedview1"
     pagecolor="#000000"
     bordercolor="#999999"
     borderopacity="1"
     inkscape:showpageshadow="0"
     inkscape:pageopacity="0"
     inkscape:pagecheckerboard="0"
     inkscape:deskcolor="#d1d1d1"
     inkscape:document-units="mm"
     inkscape:zoom="0.13055262"
     inkscape:cx="-773.63444"
     inkscape:cy="494.05368"
     inkscape:window-width="1920"
     inkscape:window-height="1046"
     inkscape:window-x="-11"
     inkscape:window-y="-11"
     inkscape:window-maximized="1"
     inkscape:current-layer="svg1" /><defs
     id="defs1" /><style
     type="text/css"
     id="style1">
	.st0{fill:#000000;}
</style><g
 id="g2"
 transform="matrix(0.12919078,0,0,0.12919078,33.072942,33.073032)"
 style="fill:#ffffff">
	<path
	   class="st0"
	   d="m 258.317,237.971 h -50.626 c 3.055,-17.94 5.876,-34.786 8.06,-47.875 7.479,-44.859 18.362,-89.92 28.792,-105.361 11.671,-17.281 34.734,-8.966 43.627,14.908 4.946,13.278 19.766,21.026 34.801,20.102 20.039,-1.239 35.284,-18.485 34.048,-38.524 -0.616,-10.03 -8.273,-23.399 -20.487,-29.936 -17.264,-9.456 -37.299,-13.859 -58.424,-13.005 -53.37,2.142 -93.577,47.609 -108.941,97.773 -5.796,18.933 -14.324,60.825 -22.212,101.918 h -57.92 l -9.092,35.228 h 60.341 c -4.836,25.821 -8.952,48.184 -11.332,59.977 C 121.977,367.752 112.143,429.829 79.4,434.12 66.577,429.22 61.786,423.754 56.963,418.442 50.521,411.338 41.022,407.124 30.709,407.76 12.672,408.873 -1.05,424.39 0.063,442.428 c 1.112,18.037 17.257,27.962 34.675,30.65 99.4,8.889 137.624,-63.47 152.176,-122.985 3.338,-13.655 8.99,-44.32 14.702,-76.894 h 47.612 z"
	   id="path1-6"
	   style="fill:#ffffff" />
	<path
	   class="st0"
	   d="m 504.553,363.021 c -6.206,0 -12.41,4.542 -11.171,11.36 4.101,22.524 -24.638,34.794 -47.158,32.953 -34.776,-2.849 -45.268,-38.504 -56.929,-74.424 -0.598,-1.834 -1.186,-3.696 -1.771,-5.564 7.052,-12.004 14.146,-24.176 19.056,-32.778 11.399,-19.977 24.456,-39.462 32.106,-44.964 -0.479,0.35 18.02,-10.128 18.097,14.713 0.022,7.167 5.701,13.439 12.998,15.636 9.729,2.918 19.98,-2.597 22.909,-12.326 1.459,-4.864 0.168,-12.55 -4.487,-17.793 -6.537,-7.51 -18.688,-15.153 -28.861,-18.45 -25.709,-8.322 -52.747,6.216 -68.818,27.333 -4.452,5.851 -10.398,15.056 -16.589,25.086 -8.85,-25.625 -19.738,-47.385 -38.156,-53.706 -42.294,-14.523 -65.772,19.067 -65.772,29.537 0,12.494 34.748,-5.676 53.366,39.764 6.134,14.993 10.954,27.619 15.937,41.198 -8.616,14.838 -18.24,31.546 -24.392,42.493 -11.269,20.054 -24.193,39.624 -31.805,45.181 -8.533,6.215 -18.069,-1.701 -18.199,-14.594 -0.066,-7.16 -5.788,-13.396 -13.099,-15.545 -9.75,-2.856 -19.966,2.73 -22.825,12.473 -1.428,4.886 -0.08,12.557 4.61,17.771 6.586,7.461 18.772,15.048 28.97,18.275 25.757,8.147 52.705,-6.565 68.628,-27.801 5.112,-6.803 14.016,-21.166 23.213,-36.494 1.19,3.275 2.408,6.642 3.706,10.212 14.891,40.897 48.061,60.698 85.63,55.665 50.882,-6.817 67.012,-56.806 68.254,-77.258 -10e-4,-0.002 -1.243,-7.953 -7.448,-7.953 z"
	   id="path2"
	   style="fill:#ffffff" />
</g></svg>
