<?xml version="1.0" encoding="UTF-8" standalone="no"?>
<!-- Created with Inkscape (http://www.inkscape.org/) -->

<svg
   width="500"
   height="500"
   viewBox="0 0 132.29167 132.29167"
   version="1.1"
   id="svg1"
   xml:space="preserve"
   inkscape:version="1.3.2 (091e20e, 2023-11-25, custom)"
   sodipodi:docname="subject_icon_probability.svg"
   xmlns:inkscape="http://www.inkscape.org/namespaces/inkscape"
   xmlns:sodipodi="http://sodipodi.sourceforge.net/DTD/sodipodi-0.dtd"
   xmlns="http://www.w3.org/2000/svg"
   xmlns:svg="http://www.w3.org/2000/svg"><sodipodi:namedview
     id="namedview1"
     pagecolor="#000000"
     bordercolor="#999999"
     borderopacity="1"
     inkscape:showpageshadow="0"
     inkscape:pageopacity="0"
     inkscape:pagecheckerboard="0"
     inkscape:deskcolor="#d1d1d1"
     inkscape:document-units="mm"
     inkscape:zoom="1.0444209"
     inkscape:cx="238.40962"
     inkscape:cy="265.69747"
     inkscape:window-width="1920"
     inkscape:window-height="1046"
     inkscape:window-x="-11"
     inkscape:window-y="-11"
     inkscape:window-maximized="1"
     inkscape:current-layer="svg1" /><defs
     id="defs1" /><g
     id="g3"
     transform="matrix(2.439311,0,0,2.439311,34.616181,34.616578)"
     style="fill:#ffffff">
	<path
	   style="fill:#ffffff"
	   d="M 23.167,4.481 18.452,3.233 v 2.069 l 4.202,1.112 c 0.534,0.142 0.852,0.691 0.711,1.223 l -4.092,15.469 c -0.142,0.531 -0.691,0.852 -1.225,0.711 L 14.821,22.963 C 14.698,22.975 14.579,23 14.452,23 h -7.09 c 0.162,0.076 0.33,0.144 0.509,0.191 l 9.667,2.559 c 1.602,0.425 3.244,-0.531 3.668,-2.133 L 25.299,8.15 C 25.722,6.549 24.768,4.905 23.167,4.481 Z"
	   id="path1-2" />
	<path
	   style="fill:#ffffff"
	   d="m 14.452,0 h -11 c -1.656,0 -3,1.344 -3,3 v 16 c 0,1.656 1.344,3 3,3 h 11 c 1.656,0 3,-1.344 3,-3 V 3 c 0,-1.656 -1.344,-3 -3,-3 z m 1,19 c 0,0.551 -0.449,1 -1,1 h -11 c -0.551,0 -1,-0.449 -1,-1 V 3 c 0,-0.551 0.449,-1 1,-1 h 11 c 0.551,0 1,0.449 1,1 z m -2.111,-7.586 c 0,1.385 -0.927,2.265 -2.251,2.268 -0.685,0 -1.378,-0.463 -1.771,-0.847 0,0 0.368,1.703 1.039,2.991 0.087,0.167 -2.86,0.171 -2.781,0.002 C 8.23,14.432 8.596,12.835 8.596,12.835 8.202,13.201 7.446,13.687 6.813,13.688 5.492,13.689 4.559,12.811 4.557,11.428 4.555,9.11 8.929,6.071 8.929,6.071 h 0.024 c 0,0 4.384,3.027 4.388,5.343 z"
	   id="path2"
	   sodipodi:nodetypes="sssssssssssssssssscccsccccccc" />
	
</g></svg>
