<?xml version="1.0" encoding="UTF-8" standalone="no"?>
<!-- Created with Inkscape (http://www.inkscape.org/) -->

<svg
   width="500"
   height="500"
   viewBox="0 0 132.29167 132.29167"
   version="1.1"
   id="svg1"
   xml:space="preserve"
   inkscape:version="1.3.2 (091e20e, 2023-11-25, custom)"
   sodipodi:docname="subject_icon_trigonometry.svg"
   xmlns:inkscape="http://www.inkscape.org/namespaces/inkscape"
   xmlns:sodipodi="http://sodipodi.sourceforge.net/DTD/sodipodi-0.dtd"
   xmlns="http://www.w3.org/2000/svg"
   xmlns:svg="http://www.w3.org/2000/svg"><sodipodi:namedview
     id="namedview1"
     pagecolor="#000000"
     bordercolor="#999999"
     borderopacity="1"
     inkscape:showpageshadow="0"
     inkscape:pageopacity="0"
     inkscape:pagecheckerboard="0"
     inkscape:deskcolor="#d1d1d1"
     inkscape:document-units="mm"
     inkscape:zoom="0.13055262"
     inkscape:cx="-1447.6922"
     inkscape:cy="-1160.4517"
     inkscape:window-width="1920"
     inkscape:window-height="1046"
     inkscape:window-x="-11"
     inkscape:window-y="-11"
     inkscape:window-maximized="1"
     inkscape:current-layer="svg1" /><defs
     id="defs1" /><path
     id="path1"
     style="fill:#ffffff;stroke-width:0.114943"
     d="m 38.526666,35.720519 c -1.790911,0.01872 -3.078982,1.934722 -2.759016,3.623934 0.0064,18.215245 -0.01765,36.431687 0.02819,54.646176 0.154215,1.728825 2.028069,2.835383 3.656261,2.535375 18.199465,-0.0053 36.400071,0.02122 54.598813,-0.0282 2.192261,-0.138217 3.394366,-3.25217 1.772311,-4.775653 C 90.367207,86.148919 84.805878,80.681641 79.306506,75.150922 66.364469,62.209353 53.422129,49.267561 40.464367,36.342614 39.922503,35.910281 39.21902,35.683893 38.526666,35.720519 Z m 42.016725,48.876676 c -1.230322,1.834302 -2.056109,3.94399 -2.37749,6.130729 -9.215513,0 -18.431026,0 -27.646538,0 -0.03627,-2.286823 0.104796,-4.590731 -0.110818,-6.866076 -0.412678,-1.564916 -2.190441,-2.350404 -3.699556,-2.089449 -1.714424,0 -3.428847,0 -5.143271,0 0.0063,-9.209812 -0.01253,-18.44017 0.0094,-27.637142 2.182472,-0.33084 4.29017,-1.152776 6.119452,-2.388766 10.949608,10.950234 21.899216,21.90047 32.848824,32.850704 z" /></svg>
