<?xml version="1.0" encoding="UTF-8" standalone="no"?>
<!-- Created with Inkscape (http://www.inkscape.org/) -->

<svg
   width="500"
   height="500"
   viewBox="0 0 132.29167 132.29167"
   version="1.1"
   id="svg1"
   xml:space="preserve"
   inkscape:version="1.3.2 (091e20e, 2023-11-25, custom)"
   sodipodi:docname="subject_icon_statistics.svg"
   xmlns:inkscape="http://www.inkscape.org/namespaces/inkscape"
   xmlns:sodipodi="http://sodipodi.sourceforge.net/DTD/sodipodi-0.dtd"
   xmlns="http://www.w3.org/2000/svg"
   xmlns:svg="http://www.w3.org/2000/svg"><sodipodi:namedview
     id="namedview1"
     pagecolor="#000000"
     bordercolor="#999999"
     borderopacity="1"
     inkscape:showpageshadow="0"
     inkscape:pageopacity="0"
     inkscape:pagecheckerboard="0"
     inkscape:deskcolor="#d1d1d1"
     inkscape:document-units="mm"
     inkscape:zoom="0.73851712"
     inkscape:cx="162.48777"
     inkscape:cy="344.60948"
     inkscape:window-width="1920"
     inkscape:window-height="1046"
     inkscape:window-x="-11"
     inkscape:window-y="-11"
     inkscape:window-maximized="1"
     inkscape:current-layer="svg1" /><defs
     id="defs1" /><g
     style="fill:#ffffff"
     id="g1"
     transform="matrix(0.20698696,0,0,0.20698696,35.71875,35.71875)"><g
       id="g4"
       style="fill:#ffffff">
	<path
		   d="M 279,250 H 15 c -8.284,0 -15,6.716 -15,15 0,8.284 6.716,15 15,15 h 264 c 8.284,0 15,-6.716 15,-15 0,-8.284 -6.716,-15 -15,-15 z"
		   id="path1"
		   style="fill:#ffffff" />
	<path
		   d="m 30.5,228 h 47 c 5.247,0 9.5,-4.253 9.5,-9.5 V 88.5 C 87,83.253 82.747,79 77.5,79 h -47 C 25.253,79 21,83.253 21,88.5 v 130 c 0,5.247 4.253,9.5 9.5,9.5 z"
		   id="path2"
		   style="fill:#ffffff" />
	<path
		   d="m 123.5,228 h 47 c 5.247,0 9.5,-4.253 9.5,-9.5 v -195 c 0,-5.247 -4.253,-9.5 -9.5,-9.5 h -47 c -5.247,0 -9.5,4.253 -9.5,9.5 v 195 c 0,5.247 4.253,9.5 9.5,9.5 z"
		   id="path3"
		   style="fill:#ffffff" />
	<path
		   d="m 216.5,228 h 47 c 5.247,0 9.5,-4.253 9.5,-9.5 v -105 c 0,-5.247 -4.253,-9.5 -9.5,-9.5 h -47 c -5.247,0 -9.5,4.253 -9.5,9.5 v 105 c 0,5.247 4.253,9.5 9.5,9.5 z"
		   id="path4"
		   style="fill:#ffffff" />
</g></g></svg>
