<?xml version="1.0" encoding="UTF-8" standalone="no"?>
<!-- Created with Inkscape (http://www.inkscape.org/) -->

<svg
   width="100"
   height="100"
   viewBox="0 0 26.458333 26.458333"
   version="1.1"
   id="svg1"
   xml:space="preserve"
   xmlns="http://www.w3.org/2000/svg"
   xmlns:svg="http://www.w3.org/2000/svg"><defs
     id="defs1" /><g
     id="layer1"><path
       id="path7"
       style="fill:#ffffff;stroke:none;stroke-width:1.42311;stroke-linecap:round;stroke-miterlimit:0;paint-order:markers fill stroke"
       d="M 13.229167,0 A 13.229167,13.229167 0 0 0 0,13.229167 13.229167,13.229167 0 0 0 13.229167,26.458333 13.229167,13.229167 0 0 0 26.458333,13.229167 13.229167,13.229167 0 0 0 13.229167,0 Z m 0,0.79375 A 12.435416,12.435416 0 0 1 25.664583,13.229167 12.435416,12.435416 0 0 1 13.229167,25.664583 12.435416,12.435416 0 0 1 0.79375,13.229167 12.435416,12.435416 0 0 1 13.229167,0.79375 Z" /><g
       style="fill:none"
       id="g1"
       transform="matrix(8.8194444,0,0,8.8194444,-81.255863,-91.481832)"><path
         d="m 11.013263,11.082882 c -0.327272,-0.109091 -0.436364,0.272727 -0.436364,0.272727 l -0.272726,0.981816 c 0,0 -0.163637,0.436363 -0.4909096,0.327273 m 0.3272726,-1.090912 h 0.927273 l 0.218182,0.654548 c 0,0 0.109091,0.218182 0.272727,0.05455 m -0.818182,-1.1e-5 c 0.272727,0.109091 0.6,-0.763635 0.872727,-0.70909"
         stroke="#000000"
         stroke-width="0.218182"
         stroke-linecap="round"
         stroke-linejoin="round"
         id="path1"
         style="stroke:#ffffff;stroke-opacity:1" /></g></g></svg>
