<?xml version="1.0" encoding="UTF-8" standalone="no"?>
<!-- Created with Inkscape (http://www.inkscape.org/) -->

<svg
   width="500"
   height="500"
   viewBox="0 0 132.29167 132.29167"
   version="1.1"
   id="svg1"
   xml:space="preserve"
   inkscape:version="1.3.2 (091e20e, 2023-11-25, custom)"
   sodipodi:docname="subject_icon_welcome.svg"
   xmlns:inkscape="http://www.inkscape.org/namespaces/inkscape"
   xmlns:sodipodi="http://sodipodi.sourceforge.net/DTD/sodipodi-0.dtd"
   xmlns="http://www.w3.org/2000/svg"
   xmlns:svg="http://www.w3.org/2000/svg"><sodipodi:namedview
     id="namedview1"
     pagecolor="#000000"
     bordercolor="#999999"
     borderopacity="1"
     inkscape:showpageshadow="0"
     inkscape:pageopacity="0"
     inkscape:pagecheckerboard="0"
     inkscape:deskcolor="#d1d1d1"
     inkscape:document-units="mm"
     inkscape:zoom="0.73851712"
     inkscape:cx="161.81074"
     inkscape:cy="344.60948"
     inkscape:window-width="1920"
     inkscape:window-height="1046"
     inkscape:window-x="-11"
     inkscape:window-y="-11"
     inkscape:window-maximized="1"
     inkscape:current-layer="svg1"
     showgrid="false" /><defs
     id="defs1" /><g
     style="fill:none"
     id="g1"
     transform="matrix(8.8194444,0,0,8.8194444,-61.018136,-14.619169)"><path
       d="m 12.159984,10.069608 1.418412,1.425542 m 3.472262,-5.3918421 c -0.580982,-0.00535 -0.849984,0.2631684 -0.938195,0.5345386 -0.07769,0.2389597 -0.0067,0.7283841 -0.192156,1.0908971 -0.177333,0.3466264 -0.646685,0.5423036 -1.179629,0.5587913 m 2.674333,-0.727164 0.0036,3.28e-5 m -0.367849,3.0409473 0.0036,3.6e-5 m -4.374117,-4.3744273 0.0036,3.64e-5 m 4.366834,2.6077336 c -0.546311,0 -0.910518,0.1821033 -1.240161,0.5227458 m -1.951058,-1.95096 c 0.277635,-0.392633 0.459738,-0.7568396 0.280621,-1.3332219 m -2.721508,6.1686264 1.287663,-3.8629911 2.575341,2.5753381 z"
       stroke="#000000"
       stroke-width="0.728414"
       stroke-linecap="round"
       stroke-linejoin="round"
       id="path1-7"
       style="stroke:#ffffff;stroke-opacity:1" /></g></svg>
