<?xml version="1.0" encoding="UTF-8" standalone="no"?>
<!-- Created with Inkscape (http://www.inkscape.org/) -->

<svg
   width="100"
   height="100"
   viewBox="0 0 26.458333 26.458333"
   version="1.1"
   id="svg1"
   xml:space="preserve"
   xmlns="http://www.w3.org/2000/svg"
   xmlns:svg="http://www.w3.org/2000/svg"><defs
     id="defs1" /><g
     id="layer1"><path
       id="path7"
       style="fill:#ffffff;stroke:none;stroke-width:1.42311;stroke-linecap:round;stroke-miterlimit:0;paint-order:markers fill stroke"
       d="M 13.229167,0 A 13.229167,13.229167 0 0 0 0,13.229167 13.229167,13.229167 0 0 0 13.229167,26.458333 13.229167,13.229167 0 0 0 26.458333,13.229167 13.229167,13.229167 0 0 0 13.229167,0 Z m 0,0.79375 A 12.435416,12.435416 0 0 1 25.664583,13.229167 12.435416,12.435416 0 0 1 13.229167,25.664583 12.435416,12.435416 0 0 1 0.79375,13.229167 12.435416,12.435416 0 0 1 13.229167,0.79375 Z" /><g
       style="fill:#ffffff"
       id="g7"
       transform="matrix(0.06871965,0,0,0.06871965,4.6302081,4.6303112)"><path
         d="m 242.76,218.537 h -39.518 v -99.071 c 0,-4.143 -3.357,-7.5 -7.5,-7.5 h -39.557 v -39.39 c 0,-4.143 -3.357,-7.5 -7.5,-7.5 h -47.061 c -4.143,0 -7.5,3.357 -7.5,7.5 v 54.07 H 54.557 c -4.143,0 -7.5,3.357 -7.5,7.5 v 84.391 H 15 V 24.216 c 0,-4.143 -3.358,-7.5 -7.5,-7.5 -4.143,0 -7.5,3.357 -7.5,7.5 v 201.82 c 0,4.143 3.357,7.5 7.5,7.5 h 46.921 c 0.046,0.001 0.09,0.007 0.136,0.007 h 47.061 c 0.002,0 0.002,0 0.004,0 0.002,0 0.002,0 0.004,0 h 47.061 47.057 c 0.046,0 0.09,-0.006 0.136,-0.007 h 46.882 c 4.143,0 7.5,-3.357 7.5,-7.5 -0.002,-4.142 -3.36,-7.499 -7.502,-7.499 z m -54.518,-91.572 v 91.571 H 156.185 V 126.965 Z M 141.186,80.076 v 39.39 99.071 H 109.125 V 80.076 Z m -79.129,61.57 h 32.061 v 76.891 H 62.057 Z"
         id="path1"
         style="fill:#ffffff" /></g></g></svg>
