<?xml version="1.0" encoding="UTF-8" standalone="no"?>
<!-- Created with Inkscape (http://www.inkscape.org/) -->

<svg
   width="500"
   height="500"
   viewBox="0 0 132.29166 132.29167"
   version="1.1"
   id="svg1"
   xml:space="preserve"
   xmlns="http://www.w3.org/2000/svg"
   xmlns:svg="http://www.w3.org/2000/svg"><defs
     id="defs1" /><g
     id="layer1"><path
       id="path1"
       style="fill:#ffffff;stroke-width:0.258903"
       d="m 92.034209,6.8053667 -1.507084,0.0083 c -1.579055,0.0087 -2.427337,0.11923 -4.201399,0.547869 -0.958943,0.231694 -3.171871,0.880975 -3.516421,1.031767 -0.10047,0.04397 -0.490942,0.191015 -0.867703,0.326648 -0.376757,0.135632 -0.767233,0.281985 -0.867704,0.325166 -0.10047,0.04318 -0.490948,0.208975 -0.867704,0.368404 -1.239841,0.524649 -2.228493,1.0777113 -3.836254,2.1464563 -5.40128,3.590461 -9.323335,7.335439 -11.475545,10.957349 -0.376268,0.633211 -0.567038,1.275587 -1.219519,4.107821 -0.10415,0.452109 -0.249464,1.076893 -0.323092,1.388622 -0.07363,0.31173 -0.133853,0.80306 -0.133853,1.091589 0,0.28853 -0.100605,0.896349 -0.22359,1.351011 -0.122985,0.454663 -0.29163,1.102735 -0.374623,1.439855 -0.083,0.337121 -0.198116,0.647772 -0.255865,0.69061 -0.05774,0.04284 -0.639324,0.23831 -1.292367,0.434148 -0.653042,0.195837 -1.289978,0.408558 -1.415568,0.472943 -0.125583,0.06439 -0.25963,0.117554 -0.297625,0.117865 -0.08194,6.88e-4 -1.58161,0.584255 -2.168667,0.844012 -4.901979,2.169004 -7.829943,3.732534 -9.681558,5.169501 -1.428118,1.108298 -3.646873,3.892616 -5.350148,6.713593 -0.146753,0.243053 -0.335691,0.551281 -0.419933,0.684985 -0.295465,0.46897 -0.160224,0.398184 0.566525,-0.296142 1.171421,-1.119175 3.047832,-2.253507 4.975229,-3.007353 0.992673,-0.388258 2.092825,-0.845824 2.466292,-1.025844 1.267852,-0.611126 2.848869,-1.044795 3.808419,-1.044795 0.796889,0 3.18402,0.324721 5.690417,0.774121 0.40188,0.07206 1.121058,0.176226 1.598287,0.231585 1.171789,0.135899 1.128046,0.107449 0.865923,0.565935 -0.123324,0.215711 -0.22485,0.475566 -0.225366,0.577773 -5.72e-4,0.102214 -0.08344,0.419864 -0.183903,0.705713 -0.10047,0.285855 -0.18272,0.680629 -0.18272,0.877183 0,0.205922 -0.115736,0.604949 -0.273337,0.941739 -0.666294,1.423833 -0.550784,2.667261 0.339677,3.653535 0.196121,0.21723 0.466767,0.624382 0.601169,0.904725 0.314616,0.656216 1.204154,1.545158 1.905681,1.904206 0.627083,0.320957 1.536663,0.554382 2.159471,0.554382 0.38524,0 0.475178,0.04379 0.891687,0.433851 0.254788,0.238612 0.841738,0.77921 1.304212,1.201463 0.462482,0.422241 0.829139,0.798963 0.814984,0.836901 -0.01416,0.03794 -0.540699,0.479045 -1.170355,0.980239 -2.211735,1.760503 -3.940124,3.59998 -4.505816,4.795762 -0.215406,0.45533 -0.258461,0.49213 -0.759605,0.64559 -4.164387,1.27526 -8.754025,2.87393 -10.715091,3.73232 -0.125589,0.055 -0.249129,0.10702 -0.274229,0.11578 -0.43258,0.15071 -2.502321,1.15433 -3.095303,1.50087 -0.627327,0.36661 -1.471247,1.05526 -1.471247,1.20058 0,0.046 0.123233,0.0838 0.273934,0.0838 0.369014,0 0.345345,0.0949 -0.114311,0.46139 -0.213494,0.17023 -0.531962,0.4382 -0.707787,0.59525 -0.175818,0.15705 -0.710016,0.6298 -1.187243,1.05072 -2.854133,2.51739 -5.30393,5.27489 -6.391688,7.19454 -0.349638,0.61705 -0.427217,0.93273 -0.164656,0.67018 0.123445,-0.12346 0.254091,-0.14216 0.254091,-0.0365 0,0.0394 -0.14025,0.29637 -0.31184,0.57097 -0.171595,0.2746 -0.424913,0.684 -0.562675,0.91005 -0.834281,1.36899 -2.323035,3.48025 -2.639239,3.74268 -0.205873,0.17083 -0.169761,0.29876 0.05093,0.18065 0.104764,-0.056 0.204438,-0.0879 0.221515,-0.0708 0.0291,0.0291 -0.438494,0.78459 -0.865926,1.39929 -2.544788,3.65961 -5.260837,9.26249 -6.176391,12.74133 -0.429021,1.63015 -0.516976,2.34732 -0.227143,1.84971 0.150524,-0.25843 0.113088,-0.003 -0.118754,0.81174 -0.198937,0.69937 -0.506285,1.92337 -0.833648,3.32096 -0.6846,2.9227 -1.008059,5.45901 -0.939371,7.36126 0.0429,1.18808 0.102562,1.44773 0.266235,1.15527 0.166673,-0.2978 0.225791,-0.16024 0.196048,0.45724 -0.04974,1.03205 -0.212601,2.05714 -0.391504,2.46482 -0.153584,0.35001 -0.156025,0.39464 -0.02458,0.4682 0.126001,0.0706 0.130533,0.13403 0.03317,0.48064 -0.917944,3.26759 -0.09207,5.51883 2.481988,6.76572 1.631077,0.7901 3.266285,1.09935 6.672729,1.26158 1.064491,0.0507 3.106739,0.15151 4.538416,0.22418 1.431682,0.0727 3.774544,0.17698 5.206221,0.23159 1.431682,0.0546 2.911331,0.1158 3.288093,0.13592 0.376757,0.0201 2.37012,0.0648 4.429731,0.0992 2.059616,0.0344 3.765187,0.0809 3.790058,0.10334 h 2.96e-4 c 0.04167,0.0377 0.81908,0.0206 5.297718,-0.11668 2.31984,-0.0711 4.298095,-0.29814 4.915382,-0.56415 l 0.336416,-0.14511 -0.301475,-0.0654 c -0.428915,-0.0933 -0.441161,-0.14697 -0.05003,-0.22035 0.188156,-0.0353 0.425483,-0.12247 0.527135,-0.19367 0.232363,-0.16263 0.674476,-0.16243 1.377066,5.7e-4 1.608125,0.37314 4.830391,0.4535 5.444586,0.13594 0.08084,-0.0418 0.75876,-0.0937 1.506777,-0.1155 0.936564,-0.0272 1.484481,-0.0852 1.759694,-0.18627 0.219815,-0.0807 0.499543,-0.1469 0.621311,-0.1469 0.336033,0 0.71083,-0.23031 0.843417,-0.51825 0.205642,-0.4466 0.233671,-1.23482 0.05599,-1.57845 l -0.157252,-0.30384 0.21441,0.0654 c 0.547087,0.16721 1.088476,0.24023 1.676176,0.22596 0.351638,-0.009 1.153089,0.0155 1.781013,0.0536 2.329543,0.14112 3.942238,-0.30737 4.430623,-1.23225 0.06631,-0.12558 0.197368,-0.31058 0.291403,-0.41105 0.450041,-0.48084 0.514581,-1.53168 0.143039,-2.32918 -0.246863,-0.52988 -0.494139,-0.75498 -1.167106,-1.06286 -0.476856,-0.21815 -0.688349,-0.255 -1.648931,-0.28756 -0.606136,-0.0205 -1.255537,0.006 -1.443116,0.0568 -0.319862,0.0884 -0.346613,0.0795 -0.429113,-0.13741 -0.170719,-0.44903 -0.636502,-3.19979 -0.786265,-4.64295 -0.134047,-1.29199 -0.139331,-1.7894 -0.04355,-4.29262 0.176833,-4.62084 0.111766,-9.86774 -0.132374,-10.66328 -0.03627,-0.11829 0.0022,-0.15992 0.149549,-0.15992 0.171223,0 0.190021,-0.0348 0.135635,-0.25112 -0.298617,-1.18778 -0.410023,-1.9963 -0.406011,-2.94576 0.0046,-1.10045 0.01914,-1.1146 0.323093,-0.31954 0.06008,0.15716 0.07402,0.14425 0.0998,-0.0915 0.251935,-2.30428 0.710991,-3.56409 1.836092,-5.03919 1.487821,-1.95067 2.648412,-4.26287 3.173486,-6.32269 0.396774,-1.55648 1.599864,-4.04068 2.292162,-4.73298 0.437232,-0.43723 0.727868,-1.06811 0.892873,-1.93797 0.159378,-0.84028 0.181636,-2.42582 0.04889,-3.47644 -0.243276,-1.92504 -0.375617,-3.58664 -0.403353,-5.06911 -0.02447,-1.30658 -0.06912,-1.78477 -0.218553,-2.32918 -0.243392,-0.88669 -0.447744,-1.46064 -0.57452,-1.6134 -0.0557,-0.0671 -0.07614,-0.122 -0.04533,-0.122 0.07773,0 -0.28652,-0.947201 -0.937888,-2.439046 -0.686406,-1.572104 -0.81882,-2.288969 -0.924266,-5.004845 -0.08318,-2.142451 -0.227173,-3.240153 -0.554089,-4.227165 -0.224141,-0.676716 -0.368797,-0.945683 -0.711042,-1.321402 -0.223574,-0.245443 -0.224273,-0.251126 -0.03433,-0.251126 0.362584,0 0.29789,-0.164398 -0.299701,-0.761984 -0.327954,-0.327959 -0.67875,-0.783021 -0.779749,-1.011333 l -0.183602,-0.414909 0.275414,-0.555276 c 0.56504,-1.138853 0.662629,-1.62109 0.713117,-3.526489 0.05186,-1.957337 -0.03084,-1.741764 0.79929,-2.092262 1.45145,-0.612852 1.983108,-0.96794 3.206955,-2.14201 0.769393,-0.738112 1.186591,-1.042917 2.499752,-1.827509 1.806233,-1.079194 2.224693,-1.264618 3.71632,-1.646268 1.185061,-0.303211 1.71817,-0.504746 2.400548,-0.90709 0.51364,-0.302854 1.229474,-0.459321 2.101447,-0.459321 0.79908,0 1.97173,-0.149625 2.9265,-0.373437 0.99291,-0.232757 2.64872,-0.74664 2.64872,-0.822099 0,-0.06856 -0.44245,-0.123851 -2.87794,-0.358927 -2.26105,-0.218237 -3.743909,-0.408433 -4.9314,-0.632861 -0.872667,-0.164928 -1.508568,-0.24832 -5.982419,-0.784487 -2.616234,-0.313542 -3.273316,-0.442599 -3.923023,-0.770567 -0.402247,-0.203056 -0.67507,-0.27652 -1.029402,-0.276896 -0.830666,-8.6e-4 -1.099805,-0.128093 -1.743993,-0.823874 -0.864822,-0.934091 -0.936737,-1.126002 -0.80137,-2.140533 0.154907,-1.160994 0.102539,-1.378637 -1.493158,-6.203933 -0.78431,-2.371693 -0.865423,-2.675791 -0.684097,-2.563723 0.374161,0.231243 2.064393,-0.158773 2.981289,-0.687944 0.784236,-0.452607 1.64908,-1.334656 2.329475,-2.375672 0.611603,-0.935765 0.775886,-1.33459 0.983202,-2.386629 l 0.101577,-0.514107 0.475308,-0.04058 c 0.582015,-0.04942 1.06824,-0.272652 1.494052,-0.686168 0.177423,-0.172304 0.334349,-0.299942 0.348561,-0.283707 0.01427,0.01624 0.113847,0.204067 0.221516,0.417565 0.255654,0.506958 0.475394,0.537816 1.000079,0.140372 l 0.30562,-0.231584 0.537504,0.531875 c 0.845028,0.836213 1.454366,2.199756 1.454366,3.254333 0,0.15337 0.03926,0.330358 0.104239,0.527433 h 0.12053 l -0.04355,-0.08618 0.398018,-0.581332 c 0.925573,-1.351931 1.14137,-2.196385 0.837795,-3.278321 -0.44816,-1.59719 -1.188085,-3.0589093 -1.836989,-3.6286533 -0.175143,-0.153777 -0.799829,-0.515748 -1.388032,-0.804329 z M 71.328692,97.21208 c 0.310072,-0.0778 0.793589,0.19554 1.017545,0.57512 0.21386,0.36245 0.553197,1.42539 0.553197,1.73303 0,0.24332 0.134071,0.29417 0.21559,0.0818 0.102036,-0.26592 0.201383,-0.12937 0.415488,0.57096 0.119022,0.38932 0.329522,1.05729 0.467908,1.48429 0.138384,0.42699 0.34201,1.08441 0.45221,1.46117 0.110211,0.37676 0.255613,0.8495 0.323092,1.05042 0.06748,0.20094 0.291492,0.90861 0.498109,1.57254 0.348149,1.11864 0.371232,1.25692 0.314211,1.88643 -0.07788,0.85937 -0.01141,1.20695 0.329019,1.7209 0.263438,0.39772 0.474139,1.25948 0.30769,1.25891 -0.07606,-4e-4 -0.24288,-0.15272 -0.902942,-0.82476 -0.416257,-0.4238 -1.295715,-0.92763 -1.840528,-1.05427 -0.49533,-0.11515 -0.892761,-0.0839 -0.801958,0.0631 0.0275,0.0445 -0.173181,0.0809 -0.446284,0.0809 -0.670649,0 -0.765481,0.11921 -0.618052,0.77798 0.06125,0.27368 0.149817,0.5213 0.196638,0.55023 0.150971,0.0933 0.09644,0.31449 -0.06249,0.25351 -0.119851,-0.0461 -0.135232,-0.0153 -0.08262,0.16288 0.120786,0.40899 0.673518,1.15648 1.323462,1.78989 0.588373,0.57341 0.654465,0.6749 0.723474,1.11143 0.118626,0.75044 -0.151652,1.34995 -0.829199,1.84084 -0.457278,0.33123 -0.533623,0.33479 -0.883987,0.04 -0.592992,-0.49896 -0.737382,-0.98157 -0.927516,-3.10152 -0.05404,-0.6028 -0.160827,-1.44552 -0.237211,-1.87252 -0.441483,-2.46775 -0.799097,-4.15809 -1.175393,-5.55508 -0.27449,-1.019 -0.270891,-0.95501 -0.05181,-0.88547 0.15661,0.0498 0.172478,0.0205 0.133853,-0.24521 -0.220976,-1.52003 -0.246363,-4.47929 -0.04562,-5.32468 0.150359,-0.63317 0.301718,-0.82119 0.5529,-0.68676 0.106991,0.0573 0.236248,0.2134 0.286965,0.34678 0.09055,0.23817 0.09629,0.23305 0.329012,-0.28133 0.17351,-0.38349 0.298198,-0.53938 0.465243,-0.58133 z m -10.399059,7.91565 c 0.137749,0 0.674466,0.98571 0.94499,1.73542 0.304083,0.84269 0.644109,2.2851 0.936405,3.97307 0.121782,0.70328 0.222758,1.29925 0.224477,1.32436 0.0017,0.0251 0.08359,-0.0571 0.181829,-0.18273 l 0.178576,-0.22832 0.0023,1.25121 0.0022,1.25121 -0.342639,-0.15222 c -0.499391,-0.22232 -1.941979,-0.19437 -2.957875,0.0575 h -5.73e-4 c -1.175501,0.29139 -2.645247,0.23629 -2.710315,-0.10156 -0.03957,-0.20544 0.231226,-1.1377 0.352116,-1.21241 0.05107,-0.0315 0.236754,0.0692 0.412825,0.22388 0.317168,0.27848 0.587847,0.36562 0.587847,0.18953 0,-0.0502 -0.03668,-0.0911 -0.08143,-0.0911 -0.169578,0 -0.375214,-0.74889 -0.375214,-1.36641 0,-0.63027 0.116701,-0.91711 0.215,-0.52833 0.05401,0.21361 1.117114,1.32341 1.194055,1.24647 0.0242,-0.0242 -0.01999,-0.22723 -0.09832,-0.45132 -0.219562,-0.62807 -0.0041,-2.43388 0.279856,-2.34546 0.08294,0.0258 0.30146,0.3846 0.457245,0.75072 0.131932,0.31005 0.440964,-0.97424 0.440964,-1.83254 0,-0.27315 0.02407,-0.49664 0.05359,-0.49664 0.02951,0 0.150616,0.11298 0.268896,0.25113 l 0.215001,0.25114 -0.05124,-0.91331 c -0.02808,-0.50235 -0.133699,-1.28111 -0.234541,-1.73067 -0.214611,-0.95675 -0.205138,-0.87244 -0.09625,-0.87244 z m 16.719054,12.21211 c 0.07448,0.0861 0.424998,1.8782 0.50108,2.56166 0.02963,0.2635 0.04149,0.47609 0.02722,0.47264 -0.01427,-0.003 -0.231248,-0.14125 -0.48242,-0.30591 -0.251174,-0.16468 -0.703415,-0.38422 -1.004818,-0.48775 -0.301408,-0.10357 -0.527361,-0.2219 -0.50226,-0.26328 0.0251,-0.0414 0.28942,-0.26238 0.587253,-0.491 0.624507,-0.4794 0.718463,-0.63731 0.379363,-0.63731 -0.129772,0 -0.236026,-0.024 -0.236026,-0.0532 0,-0.12707 0.674022,-0.86118 0.730585,-0.79574 z" /></g></svg>
