<?xml version="1.0" encoding="UTF-8" standalone="no"?>
<!-- Created with Inkscape (http://www.inkscape.org/) -->

<svg
   width="500"
   height="500"
   viewBox="0 0 132.29166 132.29167"
   version="1.1"
   id="svg1"
   xml:space="preserve"
   xmlns="http://www.w3.org/2000/svg"
   xmlns:svg="http://www.w3.org/2000/svg"><defs
     id="defs1" /><g
     id="layer1"><path
       id="path2"
       style="display:inline;fill:#000000;stroke-width:1.63389"
       d="m 81.833596,7.0771748 -5.5e-4,0.00335 c -0.4727,-0.039411 -1.05847,-0.00522 -1.94239,0.087572 -2.32239,0.2436178 -4.82563,0.8285688 -7.00108,1.6364158 -0.30412,0.112945 -0.76974,0.285658 -1.03587,0.383904 -1.83363,0.6769758 -4.5624,1.9745494 -4.5624,2.1695874 0,0.06178 -0.0653,0.11236 -0.1445,0.11236 -0.16367,0 -1.00659,0.568889 -1.07647,0.726501 -0.0255,0.0571 -0.10631,0.104104 -0.17914,0.104104 -0.15505,0 -0.99836,0.574871 -1.06564,0.726499 -0.0254,0.05711 -0.10637,0.104106 -0.17967,0.104106 -0.15257,0 -2.87492,2.017297 -3.10763,2.302878 -0.0844,0.103592 -0.21842,0.188373 -0.29875,0.188373 -0.0803,0 -0.16682,0.05202 -0.19213,0.115116 -0.0253,0.0631 -0.48198,0.478885 -1.01422,0.924237 -1.21585,1.017377 -3.28632,3.116077 -4.00387,4.058266 -0.30038,0.394397 -0.59499,0.717137 -0.65541,0.717137 -0.0604,0 -0.10986,0.08823 -0.10986,0.196082 0,0.107861 -0.0506,0.216426 -0.11203,0.241801 -0.10591,0.04375 -0.87334,1.111545 -1.22746,1.707468 -0.32774,0.551537 -0.61657,1.257146 -0.73659,1.79945 -0.28533,1.290077 -0.44668,1.978359 -0.61698,2.630054 -0.22057,0.844137 -0.42293,1.8977 -0.61155,3.183602 -0.14476,0.986831 -0.32011,1.780692 -0.61104,2.766648 -0.17338,0.587649 -0.1721,0.586467 -2.4257,1.174298 -0.2564,0.06689 -0.53339,0.188933 -0.61535,0.270992 -0.0821,0.08206 -0.24913,0.148714 -0.37127,0.148714 -0.26505,0 -3.24563,1.271946 -5.18316,2.211448 -0.76034,0.368679 -1.69322,0.808007 -2.07338,0.977112 -0.38016,0.169103 -0.7218,0.346471 -0.75985,0.39382 -0.038,0.04736 -0.50472,0.301591 -1.03695,0.565117 -1.00894,0.499553 -1.76503,0.970312 -1.84391,1.147859 -0.0255,0.0571 -0.10523,0.103549 -0.17806,0.103549 -0.12872,0 -0.63796,0.337016 -1.35735,0.898899 -0.92437,0.722006 -2.99367,2.955546 -3.38309,3.651229 -0.0695,0.124209 -0.38103,0.569557 -0.69167,0.98978 -0.31064,0.420226 -0.63897,0.888009 -0.73009,1.038802 -0.0911,0.150794 -0.4172,0.682554 -0.72523,1.182009 -0.30804,0.499458 -0.56069,0.956641 -0.56069,1.016218 0,0.05958 0.30043,-0.161781 0.66785,-0.49241 0.36741,-0.330633 0.943,-0.788578 1.2789,-1.016772 0.33588,-0.228193 0.64224,-0.445874 0.68029,-0.484149 0.11586,-0.116656 2.65464,-1.330189 3.3176,-1.585741 0.34215,-0.131896 0.80885,-0.32255 1.03696,-0.424114 0.2281,-0.101562 0.66355,-0.290003 0.96769,-0.418054 0.30413,-0.128052 0.73904,-0.313596 0.96713,-0.412546 1.70327,-0.738973 2.87405,-0.922171 4.77834,-0.748532 1.39343,0.127054 3.4834,0.446687 4.99482,0.763953 0.50924,0.106895 1.15055,0.194432 1.42501,0.194432 0.2745,0 0.92456,0.06989 1.44448,0.155875 l 0.94549,0.156427 0.16021,0.815729 c 0.13924,0.708503 0.13059,0.844059 -0.0649,1.039902 -0.17472,0.174856 -0.20427,0.372576 -0.13423,0.882927 0.0651,0.473865 0.0291,0.775985 -0.12826,1.080663 -0.32587,0.630995 -0.26843,1.156265 0.19645,1.798899 0.27138,0.37506 0.41458,0.739654 0.41458,1.054225 0,0.340313 0.0811,0.524474 0.27818,0.630111 0.50547,0.270886 0.96552,1.17875 0.96388,1.899696 -0.002,0.540884 -0.0803,0.747667 -0.43242,1.144554 -0.56085,0.632187 -1.10036,1.471697 -1.33625,2.077052 -0.12522,0.321445 -0.20451,1.280468 -0.23488,2.84982 -0.0433,2.243757 -0.0629,2.390424 -0.38426,2.86469 -0.22206,0.32764 -0.31577,0.621602 -0.27169,0.852083 0.0386,0.202662 -0.0624,0.626489 -0.23814,1.000797 -0.16772,0.357281 -0.3363,0.996658 -0.3745,1.420503 -0.11339,1.256801 -0.63124,2.580689 -1.22205,3.124668 -0.78354,0.721447 -1.21215,1.016345 -2.20814,1.520748 -0.83432,0.422524 -1.1755,0.675055 -1.1755,0.870258 0,0.08043 -0.0549,0.166852 -0.12232,0.192227 -0.1638,0.06172 -1.12192,1.331343 -1.12192,1.486598 0,0.06733 -0.0867,0.155374 -0.19268,0.196085 -0.19879,0.0764 -0.94612,1.557655 -1.09487,2.170137 -0.0461,0.190339 -0.34677,0.751568 -0.66838,1.246451 -0.56493,0.869359 -0.58572,0.939103 -0.60238,2.075951 -0.0158,1.078488 -0.47014,3.038755 -0.90219,3.892477 -0.26702,0.527591 -0.45654,1.487453 -0.42322,2.137641 0.0335,0.654091 -0.21124,2.129956 -0.53687,3.243639 -0.21379,0.731115 -0.18196,2.170894 0.0497,2.259917 0.36968,0.142079 0.63862,1.326774 0.63862,2.813466 0,1.011432 0.0653,1.576165 0.22568,1.948166 0.12421,0.288101 0.3268,0.75638 0.44975,1.041013 0.12293,0.284633 0.26288,0.519094 0.3112,0.519954 0.0484,8.9e-4 0.12987,0.28288 0.1813,0.6268 0.1173,0.78307 0.53169,1.734508 0.90057,2.068792 0.29944,0.27147 0.37215,0.69456 0.14343,0.83611 -0.0762,0.0471 -0.13856,0.37883 -0.13856,0.73806 0,0.55245 0.0643,0.7091 0.41511,1.01731 0.36347,0.31935 0.41469,0.45544 0.41512,1.10325 4.3e-4,0.7028 0.04,0.78617 0.81396,1.68158 0.77465,0.89616 1.34698,1.78578 1.68534,2.62234 0.0847,0.20939 0.20961,0.38116 0.27819,0.38116 0.0686,0 0.12501,0.0625 0.12501,0.13879 0,0.0764 0.30219,0.45232 0.67164,0.83611 0.36945,0.38382 0.84093,1.05386 1.04777,1.48825 0.79698,1.67376 0.99181,1.98772 1.69885,2.74242 0.40123,0.42825 0.72902,0.79388 0.72902,0.81297 0,0.0192 0.4401,0.49469 0.9785,1.05699 l 9.14589,7.52061 c 0.3242,0.1084 0.83836,0.24027 1.1425,0.29358 0.30411,0.0533 0.6175,0.14777 0.69653,0.20986 0.0791,0.0623 0.38999,0.17635 0.69114,0.25336 0.30112,0.077 0.87349,0.23862 1.27183,0.35911 1.86994,0.56597 2.23311,0.66115 3.00804,0.78819 1.29864,0.21284 10.59808,-0.0214 18.17869,-0.45717 7.10483,-0.40851 7.02795,-0.3985 9.47007,-1.23101 1.47357,-0.50236 1.49402,-0.51081 2.8684,-1.19304 0.58926,-0.29251 1.07159,-0.57967 1.07159,-0.63837 0,-0.0588 0.0592,-0.10686 0.13099,-0.10686 0.0718,0 0.35742,-0.20878 0.63537,-0.46376 l 0.505484,-0.46267 2.03648,-3.08991 0.16615,-0.31064 c 0.33939,-0.63502 0.18782,-2.93121 -0.37776,-5.71066 -0.80572,-3.95962 -1.27636,-4.95004 -2.612414,-5.49969 -1.18744,-0.48853 -1.69012,-0.584 -2.97232,-0.5618 -1.51804,0.0264 -2.19591,0.2527 -2.8538,0.9512 -0.71265,0.75663 -0.7755,2.04978 -0.1694,3.48545 0.15211,0.36033 0.34233,0.81102 0.42267,1.00135 0.0804,0.19035 0.22369,0.50146 0.31824,0.69179 0.32518,0.65523 0.36219,1.10242 0.13314,1.58574 -0.459,0.96856 -3.83823,2.80462 -4.59541,2.49676 -0.45877,-0.18653 -4.40981,-0.3153 -6.59572,-0.21481 -1.21655,0.056 -3.69163,0.0376 -5.49976,-0.0413 -2.59276,-0.11299 -3.48341,-0.1051 -4.21602,0.0357 -1.59996,0.30769 -1.74119,0.30955 -2.44952,0.0336 -0.77756,-0.3029 -0.82572,-0.24748 0.68843,-0.80416 0.49139,-0.18065 0.99088,-0.55184 1.73999,-1.29437 0.92028,-0.9122 1.15566,-1.25766 1.90288,-2.78758 0.46901,-0.96037 0.85295,-1.83183 0.85295,-1.9366 0,-0.10477 0.16018,-0.36398 0.35666,-0.57613 0.19647,-0.21218 0.46734,-0.77199 0.60237,-1.24425 0.13495,-0.47229 0.41154,-1.1028 0.61426,-1.40177 0.20273,-0.29897 0.40785,-0.70037 0.45571,-0.89119 0.0477,-0.19083 0.1698,-0.50684 0.27168,-0.70227 0.10186,-0.19541 0.18625,-0.44019 0.18672,-0.54418 4.8e-4,-0.10399 0.0905,-0.47777 0.20079,-0.8306 0.64697,-2.0729 1.01586,-3.823162 1.23882,-5.878651 l 0.17805,-1.637523 -0.95197,-2.855876 c -0.52359,-1.570248 -1.15828,-3.293465 -1.40986,-3.829686 -0.94118,-2.006237 -1.32921,-3.187126 -1.32921,-4.0467 0,-0.582819 -0.21493,-1.421423 -1.07646,-4.195414 -0.28244,-0.909515 -0.26657,-2.237 0.039,-3.237029 0.11904,-0.389624 0.30238,-0.988666 0.40753,-1.331275 0.17564,-0.572403 0.37656,-2.369327 0.55745,-4.983604 0.0396,-0.571018 0.15993,-1.28745 0.26736,-1.592353 0.19378,-0.549406 0.13375,-1.448224 -0.12449,-1.866647 -0.0627,-0.101657 -0.15101,-1.654305 -0.19591,-3.450189 -0.0773,-3.090671 -0.0992,-3.301782 -0.41782,-3.956918 -0.36439,-0.749113 -0.84548,-1.494785 -1.01151,-1.568668 -0.0569,-0.02537 -0.10389,-0.135039 -0.10389,-0.242903 0,-0.10786 -0.0567,-0.196082 -0.12665,-0.196082 -0.0699,0 -0.26292,-0.219513 -0.42864,-0.488006 -0.16571,-0.268495 -0.37622,-0.564506 -0.46815,-0.65765 -0.29553,-0.299766 -0.35326,-0.638609 -0.14503,-0.847124 0.13522,-0.135377 0.20078,-0.498349 0.20078,-1.102694 0,-1.174996 0.14836,-1.526418 0.82426,-1.953675 0.41449,-0.262051 0.55854,-0.444147 0.55854,-0.706671 0,-0.194461 0.15076,-0.551887 0.33447,-0.794247 0.18366,-0.242361 0.37562,-0.66989 0.42754,-0.950124 0.0518,-0.280236 0.19131,-0.546885 0.30904,-0.592107 0.17879,-0.0687 0.19888,-0.258212 0.12394,-1.151715 -0.0493,-0.588165 -0.21661,-1.504999 -0.37074,-2.037945 -0.15416,-0.532952 -0.36176,-1.249191 -0.46219,-1.591803 -0.10043,-0.34261 -0.19893,-0.685058 -0.21918,-0.7612 -0.0773,-0.289728 0.003,-0.4847 0.1997,-0.4847 0.29053,0 2.40844,-1.020129 2.92037,-1.406733 0.23576,-0.178053 0.88352,-0.747694 1.43961,-1.265731 0.55604,-0.518035 1.29553,-1.107361 1.64419,-1.309793 0.34867,-0.202428 0.655,-0.417067 0.68031,-0.476989 0.0254,-0.05993 0.10696,-0.109058 0.18076,-0.109058 0.0739,0 0.53493,-0.242129 1.02505,-0.538127 0.83696,-0.505467 1.60085,-0.791551 3.5866,-1.343392 0.89879,-0.249779 1.96054,-0.704083 2.07337,-0.886782 0.0893,-0.144763 1.50494,-0.367319 3.45669,-0.544738 0.83637,-0.07602 1.70674,-0.196793 1.93484,-0.267686 0.2281,-0.0709 0.73425,-0.227869 1.12462,-0.349757 0.39035,-0.121887 0.80333,-0.222521 0.91681,-0.222521 0.11355,0 0.28414,-0.09345 0.37884,-0.207652 0.14852,-0.1792 0.0887,-0.206695 -0.43297,-0.205996 -0.77664,0.0011 -3.96715,-0.361841 -6.27261,-0.71273 -3.61024,-0.549472 -5.24609,-0.76781 -7.18834,-0.958937 -2.37428,-0.233647 -3.86897,-0.514391 -4.65656,-0.875766 -0.50397,-0.231222 -1.0281,-0.360772 -1.45909,-0.360772 -0.59794,0 -0.73608,-0.06254 -1.25616,-0.562913 -0.32153,-0.309398 -0.74525,-0.816973 -0.9417,-1.128581 -0.31995,-0.507548 -0.34168,-0.620106 -0.20403,-1.080112 0.0846,-0.28242 0.15371,-0.734678 0.15371,-1.005203 0,-0.489199 -0.34679,-2.027916 -0.55042,-2.442782 -0.0587,-0.119533 -0.21325,-0.591351 -0.34421,-1.048165 -0.13098,-0.456813 -0.32526,-1.035534 -0.43188,-1.285558 -0.10663,-0.250024 -0.19437,-0.56115 -0.19484,-0.691799 -4.8e-4,-0.130651 -0.0942,-0.415342 -0.20784,-0.633416 -0.1136,-0.218078 -0.20565,-0.48668 -0.20565,-0.595961 0,-0.109281 -0.0855,-0.366136 -0.18941,-0.571727 -0.1039,-0.205592 -0.22904,-0.597239 -0.27818,-0.869707 -0.0876,-0.484742 -0.0806,-0.493902 0.31552,-0.43568 1.01075,0.148538 2.92382,-0.592945 3.84096,-1.488803 0.82342,-0.804325 1.70156,-1.946712 1.70156,-2.211996 0,-0.07922 0.0544,-0.143759 0.12015,-0.143759 0.15828,0 0.70953,-1.647719 0.70953,-2.120565 0,-0.322474 0.0563,-0.370686 0.42862,-0.370686 0.56166,0 1.34866,-0.367627 1.79791,-0.839965 l 0.35936,-0.378397 0.18239,0.464322 c 0.24068,0.614257 0.4987,0.690103 1.00935,0.295778 l 0.4216,-0.32497 0.71386,0.800857 c 0.80354,0.901764 1.31043,2.082897 1.33084,3.102084 0.002,0.114221 0.0353,0.246398 0.0579,0.373439 h 0.3664 c 0.0183,-0.03145 0.01,-0.05739 0.0363,-0.09419 0.11241,-0.156403 0.42291,-0.665002 0.69005,-1.129132 0.76721,-1.33295 0.66576,-2.402934 -0.45192,-4.750066 -0.54777,-1.1503174 -1.22429,-1.9058874 -2.03873,-2.2791944 -0.30161,-0.138237 -0.80772,-0.373633 -1.12463,-0.522154 -0.43192,-0.2024071 -0.79159,-0.315863 -1.26428,-0.3552653 z" /><path
       id="path1"
       style="display:none;fill:#000000;stroke-width:0.258903"
       d="m 92.034209,6.8053667 -1.507084,0.0083 c -1.579055,0.0087 -2.427337,0.11923 -4.201399,0.547869 -0.958943,0.231694 -3.171871,0.880975 -3.516421,1.031767 -0.10047,0.04397 -0.490942,0.191015 -0.867703,0.326648 -0.376757,0.135632 -0.767233,0.281985 -0.867704,0.325166 -0.10047,0.04318 -0.490948,0.208975 -0.867704,0.368404 -1.239841,0.524649 -2.228493,1.0777113 -3.836254,2.1464563 -5.40128,3.590461 -9.323335,7.335439 -11.475545,10.957349 -0.376268,0.633211 -0.567038,1.275587 -1.219519,4.107821 -0.10415,0.452109 -0.249464,1.076893 -0.323092,1.388622 -0.07363,0.31173 -0.133853,0.80306 -0.133853,1.091589 0,0.28853 -0.100605,0.896349 -0.22359,1.351011 -0.122985,0.454663 -0.29163,1.102735 -0.374623,1.439855 -0.083,0.337121 -0.198116,0.647772 -0.255865,0.69061 -0.05774,0.04284 -0.639324,0.23831 -1.292367,0.434148 -0.653042,0.195837 -1.289978,0.408558 -1.415568,0.472943 -0.125583,0.06439 -0.25963,0.117554 -0.297625,0.117865 -0.08194,6.88e-4 -1.58161,0.584255 -2.168667,0.844012 -4.901979,2.169004 -7.829943,3.732534 -9.681558,5.169501 -1.428118,1.108298 -3.646873,3.892616 -5.350148,6.713593 -0.146753,0.243053 -0.335691,0.551281 -0.419933,0.684985 -0.295465,0.46897 -0.160224,0.398184 0.566525,-0.296142 1.171421,-1.119175 3.047832,-2.253507 4.975229,-3.007353 0.992673,-0.388258 2.092825,-0.845824 2.466292,-1.025844 1.267852,-0.611126 2.848869,-1.044795 3.808419,-1.044795 0.796889,0 3.18402,0.324721 5.690417,0.774121 0.40188,0.07206 1.121058,0.176226 1.598287,0.231585 1.171789,0.135899 1.128046,0.107449 0.865923,0.565935 -0.123324,0.215711 -0.22485,0.475566 -0.225366,0.577773 -5.72e-4,0.102214 -0.08344,0.419864 -0.183903,0.705713 -0.10047,0.285855 -0.18272,0.680629 -0.18272,0.877183 0,0.205922 -0.115736,0.604949 -0.273337,0.941739 -0.666294,1.423833 -0.550784,2.667261 0.339677,3.653535 0.196121,0.21723 0.466767,0.624382 0.601169,0.904725 0.314616,0.656216 1.204154,1.545158 1.905681,1.904206 0.627083,0.320957 1.536663,0.554382 2.159471,0.554382 0.38524,0 0.475178,0.04379 0.891687,0.433851 0.254788,0.238612 0.841738,0.77921 1.304212,1.201463 0.462482,0.422241 0.829139,0.798963 0.814984,0.836901 -0.01416,0.03794 -0.540699,0.479045 -1.170355,0.980239 -2.211735,1.760503 -3.940124,3.59998 -4.505816,4.795762 -0.215406,0.45533 -0.258461,0.49213 -0.759605,0.64559 -4.164387,1.27526 -8.754025,2.87393 -10.715091,3.73232 -0.125589,0.055 -0.249129,0.10702 -0.274229,0.11578 -0.43258,0.15071 -2.502321,1.15433 -3.095303,1.50087 -0.627327,0.36661 -1.471247,1.05526 -1.471247,1.20058 0,0.046 0.123233,0.0838 0.273934,0.0838 0.369014,0 0.345345,0.0949 -0.114311,0.46139 -0.213494,0.17023 -0.531962,0.4382 -0.707787,0.59525 -0.175818,0.15705 -0.710016,0.6298 -1.187243,1.05072 -2.854133,2.51739 -5.30393,5.27489 -6.391688,7.19454 -0.349638,0.61705 -0.427217,0.93273 -0.164656,0.67018 0.123445,-0.12346 0.254091,-0.14216 0.254091,-0.0365 0,0.0394 -0.14025,0.29637 -0.31184,0.57097 -0.171595,0.2746 -0.424913,0.684 -0.562675,0.91005 -0.834281,1.36899 -2.323035,3.48025 -2.639239,3.74268 -0.205873,0.17083 -0.169761,0.29876 0.05093,0.18065 0.104764,-0.056 0.204438,-0.0879 0.221515,-0.0708 0.0291,0.0291 -0.438494,0.78459 -0.865926,1.39929 -2.544788,3.65961 -5.260837,9.26249 -6.176391,12.74133 -0.429021,1.63015 -0.516976,2.34732 -0.227143,1.84971 0.150524,-0.25843 0.113088,-0.003 -0.118754,0.81174 -0.198937,0.69937 -0.506285,1.92337 -0.833648,3.32096 -0.6846,2.9227 -1.008059,5.45901 -0.939371,7.36126 0.0429,1.18808 0.102562,1.44773 0.266235,1.15527 0.166673,-0.2978 0.225791,-0.16024 0.196048,0.45724 -0.04974,1.03205 -0.212601,2.05714 -0.391504,2.46482 -0.153584,0.35001 -0.156025,0.39464 -0.02458,0.4682 0.126001,0.0706 0.130533,0.13403 0.03317,0.48064 -0.917944,3.26759 -0.09207,5.51883 2.481988,6.76572 1.631077,0.7901 3.266285,1.09935 6.672729,1.26158 1.064491,0.0507 3.106739,0.15151 4.538416,0.22418 1.431682,0.0727 3.774544,0.17698 5.206221,0.23159 1.431682,0.0546 2.911331,0.1158 3.288093,0.13592 0.376757,0.0201 2.37012,0.0648 4.429731,0.0992 2.059616,0.0344 3.765187,0.0809 3.790058,0.10334 h 2.96e-4 c 0.04167,0.0377 0.81908,0.0206 5.297718,-0.11668 2.31984,-0.0711 4.298095,-0.29814 4.915382,-0.56415 l 0.336416,-0.14511 -0.301475,-0.0654 c -0.428915,-0.0933 -0.441161,-0.14697 -0.05003,-0.22035 0.188156,-0.0353 0.425483,-0.12247 0.527135,-0.19367 0.232363,-0.16263 0.674476,-0.16243 1.377066,5.7e-4 1.608125,0.37314 4.830391,0.4535 5.444586,0.13594 0.08084,-0.0418 0.75876,-0.0937 1.506777,-0.1155 0.936564,-0.0272 1.484481,-0.0852 1.759694,-0.18627 0.219815,-0.0807 0.499543,-0.1469 0.621311,-0.1469 0.336033,0 0.71083,-0.23031 0.843417,-0.51825 0.205642,-0.4466 0.233671,-1.23482 0.05599,-1.57845 l -0.157252,-0.30384 0.21441,0.0654 c 0.547087,0.16721 1.088476,0.24023 1.676176,0.22596 0.351638,-0.009 1.153089,0.0155 1.781013,0.0536 2.329543,0.14112 3.942238,-0.30737 4.430623,-1.23225 0.06631,-0.12558 0.197368,-0.31058 0.291403,-0.41105 0.450041,-0.48084 0.514581,-1.53168 0.143039,-2.32918 -0.246863,-0.52988 -0.494139,-0.75498 -1.167106,-1.06286 -0.476856,-0.21815 -0.688349,-0.255 -1.648931,-0.28756 -0.606136,-0.0205 -1.255537,0.006 -1.443116,0.0568 -0.319862,0.0884 -0.346613,0.0795 -0.429113,-0.13741 -0.170719,-0.44903 -0.636502,-3.19979 -0.786265,-4.64295 -0.134047,-1.29199 -0.139331,-1.7894 -0.04355,-4.29262 0.176833,-4.62084 0.111766,-9.86774 -0.132374,-10.66328 -0.03627,-0.11829 0.0022,-0.15992 0.149549,-0.15992 0.171223,0 0.190021,-0.0348 0.135635,-0.25112 -0.298617,-1.18778 -0.410023,-1.9963 -0.406011,-2.94576 0.0046,-1.10045 0.01914,-1.1146 0.323093,-0.31954 0.06008,0.15716 0.07402,0.14425 0.0998,-0.0915 0.251935,-2.30428 0.710991,-3.56409 1.836092,-5.03919 1.487821,-1.95067 2.648412,-4.26287 3.173486,-6.32269 0.396774,-1.55648 1.599864,-4.04068 2.292162,-4.73298 0.437232,-0.43723 0.727868,-1.06811 0.892873,-1.93797 0.159378,-0.84028 0.181636,-2.42582 0.04889,-3.47644 -0.243276,-1.92504 -0.375617,-3.58664 -0.403353,-5.06911 -0.02447,-1.30658 -0.06912,-1.78477 -0.218553,-2.32918 -0.243392,-0.88669 -0.447744,-1.46064 -0.57452,-1.6134 -0.0557,-0.0671 -0.07614,-0.122 -0.04533,-0.122 0.07773,0 -0.28652,-0.947201 -0.937888,-2.439046 -0.686406,-1.572104 -0.81882,-2.288969 -0.924266,-5.004845 -0.08318,-2.142451 -0.227173,-3.240153 -0.554089,-4.227165 -0.224141,-0.676716 -0.368797,-0.945683 -0.711042,-1.321402 -0.223574,-0.245443 -0.224273,-0.251126 -0.03433,-0.251126 0.362584,0 0.29789,-0.164398 -0.299701,-0.761984 -0.327954,-0.327959 -0.67875,-0.783021 -0.779749,-1.011333 l -0.183602,-0.414909 0.275414,-0.555276 c 0.56504,-1.138853 0.662629,-1.62109 0.713117,-3.526489 0.05186,-1.957337 -0.03084,-1.741764 0.79929,-2.092262 1.45145,-0.612852 1.983108,-0.96794 3.206955,-2.14201 0.769393,-0.738112 1.186591,-1.042917 2.499752,-1.827509 1.806233,-1.079194 2.224693,-1.264618 3.71632,-1.646268 1.185061,-0.303211 1.71817,-0.504746 2.400548,-0.90709 0.51364,-0.302854 1.229474,-0.459321 2.101447,-0.459321 0.79908,0 1.97173,-0.149625 2.9265,-0.373437 0.99291,-0.232757 2.64872,-0.74664 2.64872,-0.822099 0,-0.06856 -0.44245,-0.123851 -2.87794,-0.358927 -2.26105,-0.218237 -3.743909,-0.408433 -4.9314,-0.632861 -0.872667,-0.164928 -1.508568,-0.24832 -5.982419,-0.784487 -2.616234,-0.313542 -3.273316,-0.442599 -3.923023,-0.770567 -0.402247,-0.203056 -0.67507,-0.27652 -1.029402,-0.276896 -0.830666,-8.6e-4 -1.099805,-0.128093 -1.743993,-0.823874 -0.864822,-0.934091 -0.936737,-1.126002 -0.80137,-2.140533 0.154907,-1.160994 0.102539,-1.378637 -1.493158,-6.203933 -0.78431,-2.371693 -0.865423,-2.675791 -0.684097,-2.563723 0.374161,0.231243 2.064393,-0.158773 2.981289,-0.687944 0.784236,-0.452607 1.64908,-1.334656 2.329475,-2.375672 0.611603,-0.935765 0.775886,-1.33459 0.983202,-2.386629 l 0.101577,-0.514107 0.475308,-0.04058 c 0.582015,-0.04942 1.06824,-0.272652 1.494052,-0.686168 0.177423,-0.172304 0.334349,-0.299942 0.348561,-0.283707 0.01427,0.01624 0.113847,0.204067 0.221516,0.417565 0.255654,0.506958 0.475394,0.537816 1.000079,0.140372 l 0.30562,-0.231584 0.537504,0.531875 c 0.845028,0.836213 1.454366,2.199756 1.454366,3.254333 0,0.15337 0.03926,0.330358 0.104239,0.527433 h 0.12053 l -0.04355,-0.08618 0.398018,-0.581332 c 0.925573,-1.351931 1.14137,-2.196385 0.837795,-3.278321 -0.44816,-1.59719 -1.188085,-3.0589093 -1.836989,-3.6286533 -0.175143,-0.153777 -0.799829,-0.515748 -1.388032,-0.804329 z M 71.328692,97.21208 c 0.310072,-0.0778 0.793589,0.19554 1.017545,0.57512 0.21386,0.36245 0.553197,1.42539 0.553197,1.73303 0,0.24332 0.134071,0.29417 0.21559,0.0818 0.102036,-0.26592 0.201383,-0.12937 0.415488,0.57096 0.119022,0.38932 0.329522,1.05729 0.467908,1.48429 0.138384,0.42699 0.34201,1.08441 0.45221,1.46117 0.110211,0.37676 0.255613,0.8495 0.323092,1.05042 0.06748,0.20094 0.291492,0.90861 0.498109,1.57254 0.348149,1.11864 0.371232,1.25692 0.314211,1.88643 -0.07788,0.85937 -0.01141,1.20695 0.329019,1.7209 0.263438,0.39772 0.474139,1.25948 0.30769,1.25891 -0.07606,-4e-4 -0.24288,-0.15272 -0.902942,-0.82476 -0.416257,-0.4238 -1.295715,-0.92763 -1.840528,-1.05427 -0.49533,-0.11515 -0.892761,-0.0839 -0.801958,0.0631 0.0275,0.0445 -0.173181,0.0809 -0.446284,0.0809 -0.670649,0 -0.765481,0.11921 -0.618052,0.77798 0.06125,0.27368 0.149817,0.5213 0.196638,0.55023 0.150971,0.0933 0.09644,0.31449 -0.06249,0.25351 -0.119851,-0.0461 -0.135232,-0.0153 -0.08262,0.16288 0.120786,0.40899 0.673518,1.15648 1.323462,1.78989 0.588373,0.57341 0.654465,0.6749 0.723474,1.11143 0.118626,0.75044 -0.151652,1.34995 -0.829199,1.84084 -0.457278,0.33123 -0.533623,0.33479 -0.883987,0.04 -0.592992,-0.49896 -0.737382,-0.98157 -0.927516,-3.10152 -0.05404,-0.6028 -0.160827,-1.44552 -0.237211,-1.87252 -0.441483,-2.46775 -0.799097,-4.15809 -1.175393,-5.55508 -0.27449,-1.019 -0.270891,-0.95501 -0.05181,-0.88547 0.15661,0.0498 0.172478,0.0205 0.133853,-0.24521 -0.220976,-1.52003 -0.246363,-4.47929 -0.04562,-5.32468 0.150359,-0.63317 0.301718,-0.82119 0.5529,-0.68676 0.106991,0.0573 0.236248,0.2134 0.286965,0.34678 0.09055,0.23817 0.09629,0.23305 0.329012,-0.28133 0.17351,-0.38349 0.298198,-0.53938 0.465243,-0.58133 z m -10.399059,7.91565 c 0.137749,0 0.674466,0.98571 0.94499,1.73542 0.304083,0.84269 0.644109,2.2851 0.936405,3.97307 0.121782,0.70328 0.222758,1.29925 0.224477,1.32436 0.0017,0.0251 0.08359,-0.0571 0.181829,-0.18273 l 0.178576,-0.22832 0.0023,1.25121 0.0022,1.25121 -0.342639,-0.15222 c -0.499391,-0.22232 -1.941979,-0.19437 -2.957875,0.0575 h -5.73e-4 c -1.175501,0.29139 -2.645247,0.23629 -2.710315,-0.10156 -0.03957,-0.20544 0.231226,-1.1377 0.352116,-1.21241 0.05107,-0.0315 0.236754,0.0692 0.412825,0.22388 0.317168,0.27848 0.587847,0.36562 0.587847,0.18953 0,-0.0502 -0.03668,-0.0911 -0.08143,-0.0911 -0.169578,0 -0.375214,-0.74889 -0.375214,-1.36641 0,-0.63027 0.116701,-0.91711 0.215,-0.52833 0.05401,0.21361 1.117114,1.32341 1.194055,1.24647 0.0242,-0.0242 -0.01999,-0.22723 -0.09832,-0.45132 -0.219562,-0.62807 -0.0041,-2.43388 0.279856,-2.34546 0.08294,0.0258 0.30146,0.3846 0.457245,0.75072 0.131932,0.31005 0.440964,-0.97424 0.440964,-1.83254 0,-0.27315 0.02407,-0.49664 0.05359,-0.49664 0.02951,0 0.150616,0.11298 0.268896,0.25113 l 0.215001,0.25114 -0.05124,-0.91331 c -0.02808,-0.50235 -0.133699,-1.28111 -0.234541,-1.73067 -0.214611,-0.95675 -0.205138,-0.87244 -0.09625,-0.87244 z m 16.719054,12.21211 c 0.07448,0.0861 0.424998,1.8782 0.50108,2.56166 0.02963,0.2635 0.04149,0.47609 0.02722,0.47264 -0.01427,-0.003 -0.231248,-0.14125 -0.48242,-0.30591 -0.251174,-0.16468 -0.703415,-0.38422 -1.004818,-0.48775 -0.301408,-0.10357 -0.527361,-0.2219 -0.50226,-0.26328 0.0251,-0.0414 0.28942,-0.26238 0.587253,-0.491 0.624507,-0.4794 0.718463,-0.63731 0.379363,-0.63731 -0.129772,0 -0.236026,-0.024 -0.236026,-0.0532 0,-0.12707 0.674022,-0.86118 0.730585,-0.79574 z" /></g></svg>
