<?xml version="1.0" encoding="UTF-8" standalone="no"?>
<!-- Created with Inkscape (http://www.inkscape.org/) -->

<svg
   width="500"
   height="500"
   viewBox="0 0 132.29166 132.29167"
   version="1.1"
   id="svg1"
   xml:space="preserve"
   inkscape:version="1.3.2 (091e20e, 2023-11-25, custom)"
   sodipodi:docname="profile_1.svg"
   xmlns:inkscape="http://www.inkscape.org/namespaces/inkscape"
   xmlns:sodipodi="http://sodipodi.sourceforge.net/DTD/sodipodi-0.dtd"
   xmlns="http://www.w3.org/2000/svg"
   xmlns:svg="http://www.w3.org/2000/svg"><sodipodi:namedview
     id="namedview1"
     pagecolor="#000000"
     bordercolor="#999999"
     borderopacity="1"
     inkscape:showpageshadow="0"
     inkscape:pageopacity="0"
     inkscape:pagecheckerboard="0"
     inkscape:deskcolor="#d1d1d1"
     inkscape:document-units="mm"
     inkscape:zoom="1.0444209"
     inkscape:cx="239.84583"
     inkscape:cy="315.48583"
     inkscape:window-width="1920"
     inkscape:window-height="1046"
     inkscape:window-x="-11"
     inkscape:window-y="-11"
     inkscape:window-maximized="1"
     inkscape:current-layer="layer1" /><defs
     id="defs1" /><g
     inkscape:label="Capa 1"
     inkscape:groupmode="layer"
     id="layer1"><path
       id="path1"
       style="fill:#ffffff;stroke:none;stroke-width:1.67586;stroke-linecap:round;stroke-miterlimit:0;paint-order:markers fill stroke"
       d="M 66.145833 0 A 66.145836 66.145836 0 0 0 5.5609009 39.784135 C 8.4771253 40.002614 10.653578 40.343334 11.134204 40.742216 C 12.687042 42.031265 18.508199 41.479364 21.726322 39.738143 C 23.124115 38.981965 26.050606 38.887682 26.050606 39.598617 C 26.050606 39.915587 26.309807 40.011581 26.770976 39.865267 C 27.983031 39.480563 27.727256 40.924633 29.31449 39.932446 C 29.98071 39.515728 29.754932 40.489799 31.225484 40.069906 C 32.816687 39.615881 34.418225 40.893883 36.053613 39.615153 C 36.281419 39.436824 37.517013 39.400659 38.799182 39.534538 C 40.907645 39.754935 41.184699 39.70077 41.697196 38.969198 C 42.905812 37.243587 44.126307 40.427289 43.539461 37.548096 C 43.171426 35.741787 43.261422 32.756572 43.736348 31.018262 C 44.268954 29.069078 51.717689 21.504473 53.705766 20.893815 C 56.940029 19.900306 59.838933 17.944245 57.151034 22.745898 C 54.491445 27.496752 58.947278 30.88422 59.400509 33.75918 C 59.671971 35.482409 62.148145 40.006427 62.148145 41.116353 C 62.148145 43.324828 65.125249 41.859932 65.521065 42.104407 C 66.054729 42.434342 65.918112 41.394033 68.01652 41.000598 C 69.930249 40.641559 71.344488 38.538733 72.281376 38.538733 C 74.166001 38.538733 73.185389 36.774639 74.742725 35.754407 C 76.328371 34.715654 76.369107 32.375971 77.356002 32.75459 C 77.67747 32.877886 77.940979 32.813083 77.940979 32.610413 C 77.940979 32.023567 81.353451 26.506392 81.716459 26.506392 C 81.896905 26.506392 82.764251 25.841498 83.64399 25.028963 C 86.065454 22.792972 88.804027 22.554169 88.886047 24.572144 C 88.992674 27.197072 88.99041 31.502381 89.685999 33.678048 C 90.24321 35.420856 89.723556 41.913342 88.859692 43.991113 C 88.687713 44.404657 88.087621 45.758304 87.52644 46.999198 C 85.154982 52.241912 88.080242 53.528555 88.098499 55.445194 C 88.116755 56.995387 89.581326 58.784039 88.832821 60.18289 C 87.70067 62.297967 91.784032 65.000307 94.806099 68.996305 C 101.98768 78.49325 103.30118 76.921888 102.97098 78.488749 C 102.42038 81.08378 103.03028 85.540515 100.25745 85.540515 C 99.004645 85.540515 99.64954 86.292407 98.786735 86.292407 C 97.958061 86.292407 96.184259 87.973942 94.86346 88.360498 C 92.65525 89.007404 92.090746 91.839114 82.830603 90.449259 C 62.143118 87.344113 56.738474 90.066106 52.534778 90.153153 C 50.065953 90.204483 49.766255 90.41769 48.573779 92.966418 C 48.162617 93.845363 47.666519 94.564771 47.471521 94.564771 C 46.969607 94.564771 44.572216 99.833371 43.271261 101.80981 C 41.447225 104.58078 42.1805 104.54622 39.220345 103.7792 C 36.303846 103.02355 36.961803 102.92155 36.124927 104.02724 C 33.67674 107.26124 33.527342 108.10141 32.769576 108.10141 C 32.007841 108.10141 29.348266 110.28716 29.604911 110.70229 C 29.62614 110.73678 31.079512 119.95403 31.476115 122.38736 A 66.145836 66.145836 0 0 0 66.145833 132.29167 A 66.145836 66.145836 0 0 0 132.29167 66.145833 A 66.145836 66.145836 0 0 0 66.145833 0 z " /></g></svg>
