<?xml version="1.0" encoding="UTF-8" standalone="no"?>
<!-- Created with Inkscape (http://www.inkscape.org/) -->

<svg
   width="500"
   height="500"
   viewBox="0 0 132.29166 132.29167"
   version="1.1"
   id="svg1"
   inkscape:version="1.3.2 (091e20e, 2023-11-25, custom)"
   sodipodi:docname="profile_6.svg"
   xml:space="preserve"
   xmlns:inkscape="http://www.inkscape.org/namespaces/inkscape"
   xmlns:sodipodi="http://sodipodi.sourceforge.net/DTD/sodipodi-0.dtd"
   xmlns="http://www.w3.org/2000/svg"
   xmlns:svg="http://www.w3.org/2000/svg"><sodipodi:namedview
     id="namedview1"
     pagecolor="#000000"
     bordercolor="#999999"
     borderopacity="1"
     inkscape:showpageshadow="0"
     inkscape:pageopacity="0"
     inkscape:pagecheckerboard="0"
     inkscape:deskcolor="#d1d1d1"
     inkscape:document-units="mm"
     inkscape:zoom="0.73851712"
     inkscape:cx="137.43757"
     inkscape:cy="345.28651"
     inkscape:window-width="1920"
     inkscape:window-height="1046"
     inkscape:window-x="-11"
     inkscape:window-y="-11"
     inkscape:window-maximized="1"
     inkscape:current-layer="layer1" /><defs
     id="defs1" /><g
     inkscape:label="Capa 1"
     inkscape:groupmode="layer"
     id="layer1"><path
       id="path1"
       style="fill:#ffffff;stroke:none;stroke-width:2.06;stroke-linecap:round;stroke-miterlimit:0;stroke-dasharray:none;paint-order:markers fill stroke"
       d="M 66.145833 0 A 66.145836 66.145836 0 0 0 31.819246 9.7172363 C 32.130145 13.607644 31.680491 17.890596 30.527336 20.719666 C 30.504278 20.776233 30.502355 20.801247 30.481344 20.854541 C 32.088222 20.891038 32.743737 20.962069 32.667773 21.143412 C 32.638341 21.213624 32.610647 21.615 32.57734 21.836393 C 34.414424 21.54407 38.153292 21.323849 42.027409 21.320662 C 45.175496 21.317731 47.160291 21.310904 48.548458 21.134627 L 48.738627 20.814233 L 49.979895 20.814233 C 51.272505 20.357235 51.89331 19.486055 53.052576 17.783411 C 54.967778 14.970354 58.251544 13.009718 69.221615 8.1292196 C 75.614364 5.2851166 80.198378 3.4683274 83.978337 2.4696167 A 66.145836 66.145836 0 0 0 66.145833 0 z M 104.53987 24.638806 C 103.73718 24.608373 102.9836 24.649972 102.19893 24.74836 C 100.38266 24.976103 98.552272 25.461743 98.281856 25.787573 C 98.175699 25.915442 98.009461 26.855264 97.91237 27.875818 C 97.81526 28.896385 97.600972 31.167335 97.435913 32.922538 C 97.270854 34.677753 96.956019 37.338778 96.736731 38.835872 C 96.552849 40.091256 96.442147 41.074734 96.390499 41.662056 C 97.890557 42.307156 100.63099 43.248025 103.92802 44.199886 C 107.41896 45.207721 111.04965 46.499938 114.59352 47.905603 C 116.85685 48.605905 119.11294 49.352397 120.33839 49.854321 C 123.66433 51.216574 126.74375 52.950413 129.56005 55.005945 C 130.28234 55.420644 130.88931 55.815519 131.53719 56.217757 A 66.145836 66.145836 0 0 0 120.83862 28.963607 C 119.50333 28.630414 117.99122 28.186947 115.26945 27.284639 C 109.79944 25.471247 106.94795 24.730106 104.53987 24.638806 z M 8.4072388 34.218583 A 66.145836 66.145836 0 0 0 0 66.145833 A 66.145836 66.145836 0 0 0 54.916545 131.22351 C 54.782818 131.07528 54.619399 130.95593 54.407015 130.91294 C 52.031361 130.43197 50.841111 129.65723 49.666219 127.82631 C 48.768613 126.42752 47.658088 123.15942 47.206938 120.58954 C 47.116278 120.07331 46.657348 116.99007 46.186845 113.73776 C 44.941531 105.12955 44.204787 101.18627 43.352909 98.561943 C 42.822352 96.927491 42.67094 96.65861 42.068233 96.286112 C 41.386157 95.864565 39.835909 95.492067 37.364644 95.155949 C 34.93299 94.825209 33.564156 94.332483 31.693156 93.115247 C 30.785827 92.524964 29.551023 91.749468 28.949654 91.391838 C 25.588428 89.392875 23.94444 86.71184 23.945825 83.232646 C 23.947025 79.916489 25.35341 77.512157 28.658199 75.17474 C 30.768885 73.681896 30.768219 73.682287 30.21521 72.867387 C 29.729827 72.152137 29.610358 71.307888 29.996102 71.319161 C 30.125157 71.322661 30.469923 71.70323 30.761947 72.164071 C 31.053969 72.624921 31.417227 73.001746 31.569132 73.001746 C 32.007978 73.001746 32.874355 72.495656 34.508488 71.284021 C 36.382929 69.894209 37.069805 69.539243 38.431246 69.258305 C 39.198505 69.099974 39.699084 69.093713 40.2146 69.235567 C 42.654462 69.907017 45.752286 73.020098 47.23536 76.290951 C 48.603692 79.308743 48.955855 83.066471 48.149516 86.048494 C 47.926176 86.874481 47.702742 87.727869 47.652905 87.94502 C 47.587265 88.230818 47.885702 88.723131 48.733459 89.728373 C 51.605594 93.134056 53.474862 96.826173 55.2111 102.52139 C 55.764804 104.33767 55.68552 104.28321 57.424919 104.04481 C 57.933622 103.97501 58.295667 103.82756 58.295667 103.69031 C 58.295667 103.56105 58.039612 102.90788 57.726709 102.23924 C 57.413818 101.57059 56.97677 100.28944 56.755192 99.391866 L 56.352116 97.759924 L 58.420207 95.658761 C 59.557686 94.503127 61.058696 92.891036 61.75592 92.07655 C 62.8641 90.781964 63.011681 90.522132 62.927942 90.01156 C 62.848322 89.525861 63.019118 89.15357 63.942867 87.800842 L 65.05391 86.174585 L 65.05391 83.754061 L 65.05391 81.333537 L 64.390385 80.231795 C 64.025602 79.626025 63.749354 78.997492 63.776469 78.834981 C 63.846339 78.416194 63.360601 77.319312 63.105192 77.319312 C 62.987681 77.319312 62.783968 77.49173 62.652507 77.702234 C 62.33513 78.210443 62.050557 78.00327 62.047375 77.261434 C 62.043875 76.427146 61.857546 75.817594 61.606059 75.817594 C 61.489216 75.817594 60.611511 76.160963 59.655273 76.580339 C 57.640304 77.46403 56.359418 77.722932 55.454496 77.429382 C 54.789859 77.213772 54.049954 76.251538 53.080481 74.343266 C 52.799695 73.79056 52.348774 73.180447 52.078475 72.987276 C 51.808187 72.794116 51.487479 72.395679 51.365857 72.102059 C 51.244223 71.808426 50.646797 71.130288 50.038289 70.594657 C 49.088027 69.758208 48.914418 69.502818 48.80684 68.785465 C 48.648146 67.727205 48.555296 67.618912 46.803345 66.453308 C 46.006224 65.922987 45.26686 65.32645 45.160551 65.127808 C 44.860518 64.5672 45.208174 63.934764 46.262292 63.124312 C 46.78362 62.723468 47.191385 62.274718 47.16818 62.126957 C 47.12321 61.840769 43.739802 59.67336 43.337923 59.67336 C 43.173192 59.67336 43.133989 59.847438 43.211833 60.236633 C 43.362835 60.991634 43.160205 60.947143 42.211894 60.016492 C 41.549157 59.366062 41.393172 59.286447 41.293087 59.54727 C 41.13202 59.966996 40.782415 59.943633 40.368079 59.485775 C 40.181202 59.279287 39.837749 59.110087 39.604818 59.110087 C 39.166383 59.110087 38.746212 58.682385 37.695374 57.166536 C 37.361076 56.68429 36.691864 56.016182 36.208643 55.681873 C 34.574649 54.551475 30.620318 51.53107 28.0479 49.448661 C 26.640699 48.309505 24.486734 46.566452 23.261112 45.574996 C 20.543047 43.376226 17.813198 41.524567 16.623275 41.072428 C 13.988472 40.071292 11.401238 37.877538 8.4072388 34.218583 z M 123.96659 92.935413 C 123.81215 92.910915 123.86134 93.000345 123.92784 93.173641 C 123.99132 93.339071 124.81397 93.829165 125.89516 94.391654 A 66.145836 66.145836 0 0 0 126.27395 93.69764 C 125.95446 93.591423 125.49797 93.48183 125.22698 93.37983 C 124.47912 93.098334 124.12104 92.95991 123.96659 92.935413 z M 116.80166 93.868689 C 116.27387 93.985863 121.12103 96.70762 123.93404 97.98265 A 66.145836 66.145836 0 0 0 124.9071 96.20033 C 122.5276 95.563223 120.12332 94.87199 118.4336 94.276933 C 117.69568 94.017073 116.96123 93.833261 116.80166 93.868689 z M 109.50701 97.074178 C 109.40238 97.109058 110.23362 97.808314 111.35444 98.628088 C 114.44492 100.88847 114.98833 101.32396 114.98833 101.54212 C 114.98833 101.63042 114.29139 101.44547 113.43959 101.13078 C 111.20956 100.30689 110.68324 100.14678 110.57206 100.25796 C 110.51786 100.31216 110.64458 100.75564 110.8537 101.24343 C 111.21233 102.08006 111.35918 103.03764 111.12913 103.03764 C 110.7011 103.03764 108.21739 101.59561 106.39971 100.29155 C 106.00976 100.0118 105.97751 100.01214 105.97751 100.2993 C 105.97751 100.72592 106.86887 102.4719 107.35934 103.00612 C 107.75507 103.43714 107.75562 103.44795 107.39655 103.71047 C 107.19613 103.85701 106.92138 103.9766 106.78625 103.9766 C 106.47043 103.9766 106.47144 104.33386 106.78831 104.71299 C 107.16265 105.16094 108.2949 107.77069 109.07551 109.98398 C 110.09471 112.87378 110.27131 113.34842 110.7891 114.8085 A 66.145836 66.145836 0 0 0 123.24106 99.251306 C 117.33013 98.868912 113.85956 98.374492 111.16944 97.493274 C 110.3597 97.228024 109.61158 97.039325 109.50701 97.074178 z M 70.208118 126.13494 C 70.100552 126.13094 69.64727 127.41656 69.200944 128.99109 C 68.670012 130.86411 68.570345 131.10505 68.270251 132.13974 A 66.145836 66.145836 0 0 0 74.258516 131.71134 C 73.478929 130.59471 72.541772 129.26689 72.093274 128.61127 C 71.164045 127.25293 70.315742 126.13869 70.208118 126.13494 z " /></g></svg>
