<?xml version="1.0" encoding="UTF-8" standalone="no"?>
<!-- Created with Inkscape (http://www.inkscape.org/) -->

<svg
   width="500"
   height="500"
   viewBox="0 0 132.29166 132.29167"
   version="1.1"
   id="svg1"
   inkscape:version="1.3.2 (091e20e, 2023-11-25, custom)"
   sodipodi:docname="profile_4.svg"
   xml:space="preserve"
   xmlns:inkscape="http://www.inkscape.org/namespaces/inkscape"
   xmlns:sodipodi="http://sodipodi.sourceforge.net/DTD/sodipodi-0.dtd"
   xmlns="http://www.w3.org/2000/svg"
   xmlns:svg="http://www.w3.org/2000/svg"><sodipodi:namedview
     id="namedview1"
     pagecolor="#000000"
     bordercolor="#999999"
     borderopacity="1"
     inkscape:showpageshadow="0"
     inkscape:pageopacity="0"
     inkscape:pagecheckerboard="0"
     inkscape:deskcolor="#d1d1d1"
     inkscape:document-units="mm"
     inkscape:zoom="0.73851712"
     inkscape:cx="42.65304"
     inkscape:cy="404.18833"
     inkscape:window-width="1920"
     inkscape:window-height="1046"
     inkscape:window-x="-11"
     inkscape:window-y="-11"
     inkscape:window-maximized="1"
     inkscape:current-layer="layer1" /><defs
     id="defs1" /><g
     inkscape:label="Capa 1"
     inkscape:groupmode="layer"
     id="layer1"><path
       id="path1"
       style="fill:#ffffff;stroke:none;stroke-width:2.06;stroke-linecap:round;stroke-miterlimit:0;stroke-dasharray:none;paint-order:markers fill stroke"
       d="M 66.145833 0 A 66.145836 66.145836 0 0 0 21.037992 17.947742 C 21.033025 18.666011 21.026768 18.422289 21.058663 21.99659 C 22.49991 19.466241 23.180326 18.158222 24.955066 16.316833 C 26.393655 14.901263 27.350029 14.178171 29.188399 13.345955 C 30.323806 12.913824 30.63142 12.838098 31.729846 12.64884 C 32.549422 12.563565 32.21254 12.586038 33.219678 12.557373 C 33.988613 12.577383 33.73923 12.560429 34.326587 12.624036 C 34.706392 12.735991 34.593359 12.679709 34.834566 12.862264 L 34.936886 13.168188 L 34.920866 13.503569 C 34.768279 13.901018 34.851844 13.748517 34.540011 14.173295 C 32.995147 15.699158 32.238313 15.89687 29.886548 18.136361 C 28.692835 19.406044 28.436715 19.74712 27.603483 21.061764 C 26.802575 22.528997 26.631288 22.962922 26.095565 24.55509 C 25.326303 27.250006 25.262995 27.553619 25.246004 31.980994 C 25.248336 33.461544 25.260098 33.571958 25.289412 34.265609 C 25.403686 35.684854 25.481139 35.814657 25.749333 36.571928 C 26.042183 37.168946 25.923664 36.950995 26.272815 37.520707 C 26.692932 38.091073 26.516728 37.871941 27.032458 38.473621 C 27.806051 39.263885 28.066752 39.504654 29.28245 40.417171 C 30.280259 41.10814 30.897443 41.521209 32.215088 42.255819 C 32.833099 42.569995 32.663521 42.498462 32.988684 42.592749 C 33.062979 40.898297 32.328635 38.036208 32.557186 31.774805 C 32.762409 28.964945 33.139513 25.683503 34.51779 23.235791 C 34.998879 22.496171 35.172465 22.231053 35.802466 21.50308 C 36.480115 20.796809 36.413619 20.873439 36.888704 20.523295 L 37.369812 20.350179 L 37.888127 20.361548 L 38.284485 20.542932 L 38.642086 21.065381 L 38.78678 21.705652 C 38.828092 22.436584 38.822374 22.143546 38.805383 22.993429 C 38.433248 28.272669 37.437629 29.827469 38.118604 34.611324 C 38.799588 38.559929 39.514925 39.029141 41.133407 43.569434 C 41.430258 44.435315 41.863709 45.752266 42.301811 46.521191 C 42.615314 46.706765 42.301545 46.638408 46.727897 48.177938 C 48.175804 48.676351 48.854268 48.910455 50.231559 49.358228 C 50.774946 49.524807 50.638805 49.490361 50.862012 49.521008 C 50.822043 48.744077 50.718636 48.344057 50.453768 46.222502 C 50.309183 44.247866 50.302244 43.672244 50.430514 41.578341 C 50.626751 39.712318 50.711114 39.139979 51.176204 37.362577 C 51.527028 36.30979 51.38229 36.687234 51.799422 35.708415 C 52.330475 34.776238 52.137039 35.072544 52.647432 34.387565 L 53.143009 33.979838 L 53.675793 33.851681 L 54.002905 33.880619 L 54.226147 34.029964 C 54.436031 34.389446 54.36951 34.227032 54.507784 34.753434 C 54.785309 37.212484 54.309671 37.546754 55.810547 44.246912 C 56.913651 48.74423 57.533139 50.316515 58.798478 53.057743 C 61.843225 59.235191 63.368728 60.065936 64.455497 61.643783 C 65.683842 61.878986 72.136392 61.762825 73.654936 61.748169 C 74.733702 59.97143 75.259058 59.230345 75.539575 57.269373 C 76.143263 51.427083 74.42749 49.93332 74.594413 41.613997 C 74.716679 39.608052 74.77674 39.012769 75.178874 37.151737 C 75.512683 35.983334 75.381469 36.392255 75.756616 35.380786 C 76.233027 34.354662 76.036855 34.737782 76.602559 33.706986 C 77.187917 32.784445 76.958284 33.121075 77.600948 32.234208 C 78.223623 31.48294 77.987036 31.746109 78.631376 31.075106 C 79.219722 30.564729 79.004289 30.728568 79.574988 30.345435 L 79.97703 30.177486 L 80.31241 30.158883 L 80.567175 30.305127 L 80.732023 30.771248 C 80.569771 32.242483 80.43455 32.095479 79.853524 34.313668 C 79.494711 35.868846 79.400454 36.741526 79.404456 38.302055 C 79.470748 40.446592 79.563618 40.752125 80.311894 42.397929 C 81.286385 44.475514 81.465542 44.781201 82.28645 46.756836 L 82.286967 46.756836 C 82.288303 46.757169 82.294662 46.75856 82.317973 46.763554 C 82.460232 46.735575 82.373972 46.772039 82.733451 46.56615 C 85.66626 44.350304 87.891944 44.389694 91.253861 42.503349 C 92.601158 41.668118 93.490007 40.950645 94.797314 39.469425 C 96.62603 37.198941 97.281757 35.431913 97.919088 32.619714 C 98.113649 31.551585 98.092249 31.393071 98.048279 30.796053 C 97.906363 30.012119 97.810531 29.780546 97.450382 28.939319 C 96.368951 26.637884 95.864568 25.906812 95.135278 24.729757 C 93.862946 22.919016 94.34877 23.575083 93.004142 21.869983 C 91.452622 20.10092 92.041529 20.743052 90.427039 19.073254 C 88.229176 16.997352 87.569762 16.363081 83.871366 13.604854 C 79.318404 10.435513 77.289881 9.4011111 75.70804 7.8372477 L 75.292562 7.3282349 L 75.127714 6.8698649 C 75.154687 6.2521874 75.128216 6.4306532 75.234167 6.0621623 L 75.364392 5.9665609 L 75.769535 5.9195353 C 76.423524 5.9225604 76.206725 5.9126224 76.728133 5.9572591 C 80.172331 6.5772487 85.597581 9.356696 88.63335 10.933183 C 91.508851 12.61066 90.459408 11.955204 93.229968 13.780554 C 95.635372 15.58163 94.765807 14.879121 97.041622 16.833081 C 98.974596 18.755744 98.285993 18.006559 100.06573 20.087146 C 101.52497 22.129406 101.01766 21.335327 102.29867 23.540165 C 103.28149 25.700364 102.95711 24.861416 103.73837 27.188521 C 104.42367 30.308246 104.34411 30.088256 104.54401 30.538704 L 104.77397 30.449821 C 105.20408 30.046355 105.53087 29.763114 106.50203 28.562081 C 106.91615 28.010026 106.77543 28.218131 107.12524 27.653092 C 107.19987 27.122703 107.19668 27.366663 107.12473 26.558069 C 107.00079 25.821473 106.98275 25.648734 106.66326 24.430033 C 106.04491 22.272503 105.6931 21.543038 104.76725 19.930566 C 101.78747 15.099752 99.700764 13.867308 98.903524 12.237496 C 98.830562 11.919335 98.840728 12.051276 98.873035 11.651485 L 99.002226 11.355379 L 99.239937 11.140405 C 99.681713 10.969498 99.496982 11.016379 100.05901 10.946102 C 100.8033 10.966078 100.4812 10.933291 101.49768 11.104232 C 102.41852 11.412727 102.07458 11.278359 102.99578 11.702128 C 103.9466 12.243186 103.57936 12.013325 104.59517 12.694316 C 106.07439 13.828717 106.48084 14.215585 107.74484 15.57321 C 108.64306 16.648302 108.32586 16.248644 109.11944 17.316772 C 109.85372 18.440502 109.66936 18.184726 109.98553 18.563208 C 109.99319 18.568185 109.9798 18.560252 110.15038 18.659843 C 110.27532 18.302053 110.24266 18.501615 110.28164 17.744653 C 110.28367 17.41261 110.26616 17.177222 110.26355 16.873389 A 66.145836 66.145836 0 0 0 66.145833 0 z M 115.68906 22.342306 C 115.63625 23.107411 115.59409 23.493622 115.32836 25.358659 C 114.78265 27.835036 115.02981 26.906793 114.27054 29.412158 C 113.37201 31.703279 113.75279 30.848881 112.63137 33.14268 C 111.39567 35.215281 111.90388 34.448152 110.43564 36.494413 C 108.8005 38.404086 109.42311 37.730942 107.70867 39.412065 C 105.76903 40.993569 106.21672 40.650757 105.51242 41.136507 C 101.60779 43.672846 101.7833 42.959142 93.825798 48.293693 C 90.971608 50.248672 88.637213 51.898211 85.575138 54.307279 C 83.98863 55.591276 83.679386 55.903081 82.933439 57.567546 C 82.410372 58.835887 82.349353 59.017163 81.713359 62.068563 C 81.516458 63.034732 81.442949 63.39016 81.272042 64.352661 L 81.251371 64.685457 C 81.891367 64.814397 82.642066 64.741656 83.478625 64.697343 C 84.664676 62.301264 84.843294 61.881181 86.123942 60.456258 C 86.869223 59.76362 86.586671 60.006397 87.361593 59.40671 C 88.247457 58.837347 87.911897 59.035749 88.830754 58.547331 C 92.333921 57.007471 93.291387 57.487335 98.734542 55.567668 C 101.97884 54.351303 102.46633 53.832816 105.44576 52.940955 C 106.38095 52.728059 106.04561 52.788377 106.9175 52.668103 C 107.64811 52.652111 107.38925 52.636779 108.0549 52.723397 C 108.62295 52.911639 108.43104 52.826394 108.88379 53.104252 C 109.27026 53.496714 109.14265 53.337518 109.4295 53.808602 C 109.61474 54.274692 109.55755 54.051627 109.67083 54.814225 C 109.55689 56.671262 109.25009 58.148897 108.45385 59.852677 C 108.04472 60.550646 108.19906 60.324461 107.77895 60.859851 C 107.33586 61.509179 107.49321 61.264118 107.09941 61.931104 C 106.39045 63.217778 105.81611 64.380163 105.27006 65.743791 C 104.44915 67.672114 104.78631 66.967954 103.81382 68.827323 C 102.78169 70.443146 103.19956 69.858533 102.00618 71.388407 C 100.76417 72.689721 101.26233 72.225785 99.849719 73.425492 C 98.328184 74.459286 98.900181 74.108607 97.345996 74.936511 C 95.606248 75.638808 96.259008 75.408854 94.497591 75.919914 C 92.542282 76.289391 93.271885 76.18125 91.306571 76.37415 C 89.487861 76.484758 89.628581 76.507638 89.136161 76.694543 L 88.739803 77.092969 L 88.491239 77.585962 C 88.412604 78.171986 88.424435 77.917233 88.450415 78.72181 C 88.753593 81.717902 90.773025 93.10637 90.755701 105.57753 C 90.470516 115.60563 89.453767 114.23361 89.386792 121.4515 C 89.376294 124.4023 89.432994 126.33983 89.55474 127.83199 A 66.145836 66.145836 0 0 0 132.29167 66.145833 A 66.145836 66.145836 0 0 0 115.68906 22.342306 z M 15.855363 23.23114 A 66.145836 66.145836 0 0 0 0 66.145833 A 66.145836 66.145836 0 0 0 44.872196 128.62832 C 45.443299 127.96826 45.878518 127.43516 47.361967 125.59905 C 49.654097 122.45669 48.866949 123.5904 50.752974 120.67325 C 52.417095 117.69448 51.859812 118.76876 53.147144 116.00687 C 54.185615 113.18701 53.85631 114.20321 54.548608 111.58957 C 54.944412 109.0479 54.857211 110.00518 54.961503 107.41153 L 54.798206 105.40959 C 54.295798 103.07547 54.35582 103.34335 54.3295 103.25106 C 54.215563 102.8556 54.036583 102.22165 53.902653 101.86717 L 53.707833 101.82479 C 51.911767 102.41815 51.066777 103.2818 48.259587 103.68359 C 43.956487 104.14102 42.125732 103.59494 39.717989 102.30228 C 38.864438 101.73291 38.632332 101.55269 36.252568 99.00636 C 35.396348 98.06051 35.208544 97.84285 34.116781 95.241215 C 33.829927 94.468945 33.719671 94.23137 33.581413 92.894071 C 33.533105 92.056169 33.521647 91.816345 33.562292 91.151025 C 33.667234 90.569666 33.603494 90.791485 33.857365 90.178475 L 34.213932 89.74491 C 35.232067 88.953656 34.606054 89.475303 35.765776 88.665389 L 36.083069 88.344478 L 36.311995 87.896444 C 36.569861 87.20047 36.449036 87.441091 36.826176 86.837077 C 37.309584 86.307347 37.138216 86.472198 37.580652 86.101721 C 38.066392 85.794215 37.858141 85.905634 38.505143 85.615446 C 39.167794 85.448866 38.919433 85.526872 39.592415 85.263013 C 40.831105 84.384468 40.405865 84.464527 43.067139 82.0198 C 44.749267 80.512254 44.675839 80.701811 45.500065 79.830269 C 45.781915 79.405158 45.686462 79.598742 45.909342 78.961072 C 46.23951 77.45219 46.236438 77.47418 46.433341 76.680591 L 46.433341 76.680074 C 46.498641 76.427546 46.557582 76.203182 46.609558 76.00363 C 46.611217 75.99696 46.613067 75.989622 46.614726 75.982959 C 46.617068 75.97463 46.619441 75.966483 46.621444 75.958154 C 46.623103 75.952161 46.624762 75.946245 46.626095 75.940584 C 46.626428 75.939918 46.626095 75.939184 46.626095 75.938517 C 46.629429 75.926527 46.632905 75.915041 46.635913 75.903377 C 46.63624 75.902048 46.636087 75.900576 46.63643 75.899243 C 46.639098 75.888579 46.641856 75.878977 46.644181 75.870304 C 47.066291 74.263477 47.043954 74.418504 46.93667 74.311226 C 46.524695 74.166569 46.326426 74.174578 45.194141 73.993416 C 45.141379 73.984803 45.089404 73.97684 45.035494 73.967578 C 45.035233 73.967479 45.034215 73.967578 45.033944 73.967578 C 43.996578 73.789248 42.735515 73.479483 40.812496 72.645178 C 39.226987 71.909562 38.764886 71.533286 38.005949 70.97758 C 37.199707 70.282596 37.494811 70.560981 36.714555 69.769385 C 36.000255 68.914834 36.250906 69.236779 35.6309 68.362236 C 35.045872 67.380078 35.248781 67.748457 34.751367 66.750964 C 33.702918 64.208299 34.174372 64.823134 33.32148 62.377071 C 32.962331 61.416579 32.874711 61.232107 32.446598 60.302262 C 31.936864 59.087563 31.931861 58.926497 31.753617 58.113249 C 31.69698 57.365976 31.689383 57.626004 31.770671 56.970683 L 31.969108 56.51748 L 32.18925 56.281836 C 32.553723 56.191886 32.292099 56.15135 34.092493 56.538151 C 37.583996 57.291421 38.576601 56.655855 43.232503 57.380477 C 47.373344 58.199049 49.540349 59.350181 52.297583 62.67111 C 52.882614 63.433718 52.931968 63.516432 53.426713 64.362996 C 53.761532 64.856066 53.63895 64.714381 53.963114 65.002234 L 54.256637 65.070447 C 54.98425 64.902874 54.701232 64.98782 55.500488 64.685974 L 55.765588 64.465833 C 55.833213 64.117025 55.827621 64.27811 55.777991 63.743396 C 55.51179 62.407097 55.644357 62.868932 55.215234 61.707861 C 54.609234 60.597774 54.859266 60.995044 54.108325 59.982902 C 53.181139 59.013738 53.574551 59.375911 52.412821 58.401086 C 51.057866 57.465572 51.583659 57.80103 50.104435 56.943811 C 48.062501 55.935004 47.445218 55.611916 43.548246 54.326917 C 39.66694 53.08223 38.611676 52.722794 35.165812 51.349837 C 32.257331 50.087833 31.496077 49.725271 29.023035 48.283358 C 27.477172 47.273885 28.019298 47.646873 26.678992 46.660718 C 25.466961 45.64825 25.904978 46.041926 24.760246 44.948161 C 23.216718 43.298352 22.848007 42.364811 21.244181 39.193473 C 19.214235 35.184553 19.935732 36.660791 18.479492 33.571077 C 17.349079 30.701896 17.729536 31.791157 16.795357 28.823047 C 16.146363 26.035832 16.34253 27.093597 15.913757 24.211442 C 15.876323 23.609606 15.876207 23.546769 15.855363 23.23114 z " /></g></svg>
