<?xml version="1.0" encoding="UTF-8" standalone="no"?>
<!-- Created with Inkscape (http://www.inkscape.org/) -->

<svg
   width="500"
   height="500"
   viewBox="0 0 132.29166 132.29167"
   version="1.1"
   id="svg1"
   inkscape:version="1.3.2 (091e20e, 2023-11-25, custom)"
   sodipodi:docname="profile_3.svg"
   xml:space="preserve"
   xmlns:inkscape="http://www.inkscape.org/namespaces/inkscape"
   xmlns:sodipodi="http://sodipodi.sourceforge.net/DTD/sodipodi-0.dtd"
   xmlns="http://www.w3.org/2000/svg"
   xmlns:svg="http://www.w3.org/2000/svg"><sodipodi:namedview
     id="namedview1"
     pagecolor="#000000"
     bordercolor="#999999"
     borderopacity="1"
     inkscape:showpageshadow="0"
     inkscape:pageopacity="0"
     inkscape:pagecheckerboard="0"
     inkscape:deskcolor="#d1d1d1"
     inkscape:document-units="mm"
     inkscape:zoom="0.73851712"
     inkscape:cx="256.59527"
     inkscape:cy="249.82495"
     inkscape:window-width="1920"
     inkscape:window-height="1046"
     inkscape:window-x="-11"
     inkscape:window-y="-11"
     inkscape:window-maximized="1"
     inkscape:current-layer="layer1" /><defs
     id="defs1" /><g
     inkscape:label="Capa 1"
     inkscape:groupmode="layer"
     id="layer1"><path
       id="path1"
       style="fill:#ffffff;stroke:none;stroke-width:2.06;stroke-linecap:round;stroke-miterlimit:0;stroke-dasharray:none;paint-order:markers fill stroke"
       d="M 66.145833 0 A 66.145836 66.145836 0 0 0 0 66.145833 A 66.145836 66.145836 0 0 0 66.145833 132.29167 A 66.145836 66.145836 0 0 0 108.76442 116.658 C 108.70348 116.5664 108.60629 116.48013 108.60629 116.38204 C 108.60629 115.45494 102.72781 109.2741 100.20422 107.54796 C 98.72864 106.53857 95.588985 103.55149 91.730835 99.486434 C 88.231724 95.799204 87.549695 96.383454 87.549695 95.791052 C 87.549695 94.076289 81.185736 92.666103 78.992078 91.445581 C 77.413575 90.567694 68.734159 92.174181 62.544503 91.2828 C 58.867856 90.75337 54.651963 90.528187 52.413855 89.508748 C 49.47275 88.1689 47.685898 88.54623 45.726925 86.927511 C 44.508784 85.921037 38.020598 87.671161 35.984367 89.555257 C 34.247379 91.162335 32.098009 90.947559 31.107145 89.067432 C 30.504425 87.924168 28.41452 85.323634 26.949259 83.894621 C 25.233967 82.221397 24.618447 77.781955 25.928133 76.530212 C 28.496176 74.075675 30.979772 75.053038 34.154504 73.34436 C 37.166783 71.72326 37.117074 72.539116 38.1 71.453003 C 40.920455 68.336744 40.150832 72.6737 45.683 61.391085 C 48.086208 56.489948 59.068219 48.564599 61.714579 46.508789 C 63.927817 44.789528 64.035202 43.864156 68.055278 41.166996 C 72.396027 38.25473 71.698067 35.70793 73.754671 34.604089 C 76.217146 33.282232 78.160113 30.242148 79.349679 30.878735 C 80.646136 31.572737 79.242685 29.932845 81.062752 28.751217 C 81.631341 28.382123 82.295744 27.801866 82.538631 27.462406 C 85.158004 23.802164 87.924866 24.738691 87.924866 29.285551 C 87.924866 29.933779 88.051973 30.4668 88.207019 30.469975 C 89.225399 30.490612 89.587738 31.206389 88.86331 31.76757 C 88.1365 32.330603 88.144243 32.343766 89.11394 32.18925 C 90.425479 31.980229 91.684843 31.292659 91.684843 30.785718 C 91.684843 30.120556 92.608713 31.259643 95.270154 29.912386 C 97.698233 28.682869 97.499468 29.635052 98.469958 28.756901 C 99.88442 27.476584 99.490739 29.507825 101.19227 28.656132 C 102.38554 28.058703 104.56655 27.93673 104.74038 28.457694 C 104.82107 28.698465 104.58144 28.993625 104.20811 29.112952 C 103.34081 29.38997 101.33222 31.897175 101.3473 32.68431 C 101.36344 33.536797 100.67711 34.292331 100.09053 34.067171 C 98.808362 33.575311 98.113312 38.328048 101.26979 36.259802 C 102.3813 35.53167 103.23569 35.883181 102.51364 36.771916 C 102.08872 37.294732 102.12288 37.334093 102.77719 37.072156 C 106.99385 35.384116 102.8111 38.455867 105.78527 37.250956 C 107.16719 36.691098 107.47032 38.517665 108.31329 37.674703 C 108.95516 37.032824 111.11348 37.118281 111.37356 37.796143 C 111.61222 38.418177 113.49333 38.585113 113.49333 37.984245 C 113.49333 37.201608 114.65589 37.649089 115.00435 38.565605 C 115.30624 39.359618 115.45701 39.440358 115.88802 39.037927 C 116.17377 38.770963 116.3393 38.374596 116.25595 38.156844 C 116.08556 37.712609 117.78912 37.641808 118.22224 38.075195 C 118.37543 38.228653 118.7183 38.173132 118.98447 37.952205 C 119.60439 37.437856 121.23023 37.673339 121.11302 38.260714 C 121.06407 38.506247 121.63753 38.290731 122.38736 37.781673 C 125.19591 35.875881 124.29582 37.984245 125.76028 37.984245 C 125.88673 37.984245 125.97024 38.046024 126.04967 38.109302 A 66.145836 66.145836 0 0 0 66.145833 0 z M 126.25276 38.567672 C 126.24414 38.834744 126.10698 39.118992 125.80834 39.239465 C 125.23692 39.470064 125.8456 39.585224 126.50184 39.129395 A 66.145836 66.145836 0 0 0 126.25276 38.567672 z " /></g></svg>
