<?xml version="1.0" encoding="UTF-8" standalone="no"?>
<!-- Created with Inkscape (http://www.inkscape.org/) -->

<svg
   width="500"
   height="500"
   viewBox="0 0 132.29166 132.29167"
   version="1.1"
   id="svg1"
   inkscape:version="1.3.2 (091e20e, 2023-11-25, custom)"
   sodipodi:docname="profile_2.svg"
   xml:space="preserve"
   xmlns:inkscape="http://www.inkscape.org/namespaces/inkscape"
   xmlns:sodipodi="http://sodipodi.sourceforge.net/DTD/sodipodi-0.dtd"
   xmlns="http://www.w3.org/2000/svg"
   xmlns:svg="http://www.w3.org/2000/svg"><sodipodi:namedview
     id="namedview1"
     pagecolor="#000000"
     bordercolor="#999999"
     borderopacity="1"
     inkscape:showpageshadow="0"
     inkscape:pageopacity="0"
     inkscape:pagecheckerboard="0"
     inkscape:deskcolor="#d1d1d1"
     inkscape:document-units="mm"
     inkscape:zoom="0.73851712"
     inkscape:cx="324.29851"
     inkscape:cy="516.57571"
     inkscape:window-width="1920"
     inkscape:window-height="1046"
     inkscape:window-x="-11"
     inkscape:window-y="-11"
     inkscape:window-maximized="1"
     inkscape:current-layer="layer1" /><defs
     id="defs1" /><g
     inkscape:label="Capa 1"
     inkscape:groupmode="layer"
     id="layer1"><path
       id="path1"
       style="fill:#ffffff;stroke:none;stroke-width:2.06;stroke-linecap:round;stroke-miterlimit:0;stroke-dasharray:none;paint-order:markers fill stroke"
       d="M 66.145833 0 A 66.145836 66.145836 0 0 0 0 66.145833 A 66.145836 66.145836 0 0 0 66.145833 132.29167 A 66.145836 66.145836 0 0 0 76.372083 131.44159 C 76.04491 130.05374 75.731119 128.65448 75.346822 127.30541 C 74.722866 125.10669 73.978289 122.92905 73.150057 120.78333 C 71.48901 116.48878 69.501342 112.30399 67.31062 108.21768 C 66.763922 107.19564 66.201337 106.18036 65.626485 105.17187 C 65.040503 104.16647 64.482263 103.07221 64.04622 101.98241 C 63.149896 99.799717 62.489566 97.585113 61.595207 95.492362 C 60.711978 93.400844 59.555831 91.430939 57.913778 89.867383 C 56.328568 88.333188 54.308141 87.249489 52.149272 86.500663 C 52.129217 86.50216 52.102998 86.505597 52.089327 86.505831 C 52.002248 86.509527 51.938035 86.507679 51.871252 86.505831 L 51.503316 86.485677 L 50.813953 86.420565 L 49.469332 86.25675 C 48.578253 86.138467 47.692665 86.008427 46.807479 85.872278 C 45.037747 85.597516 43.276965 85.304247 41.511161 84.958639 C 41.069219 84.870542 40.62757 84.78038 40.178426 84.674418 C 39.95189 84.620205 39.73066 84.566404 39.479244 84.486316 C 39.159082 84.379122 39.005871 84.285541 38.795048 84.197445 C 37.966816 83.817953 37.148514 83.377232 36.38641 82.874528 C 34.848452 81.871585 33.525925 80.565508 32.48949 79.120235 C 31.446507 77.681739 30.633127 76.114717 29.959412 74.527751 C 29.283732 72.93771 28.715827 71.307357 28.329537 69.610738 C 28.14032 68.76181 27.998747 67.895476 27.964701 66.998494 C 27.936548 66.110754 28.000804 65.150778 28.430306 64.229154 C 28.80743 63.390699 29.402961 62.587368 30.098938 61.955908 C 30.79426 61.308431 31.587339 60.798012 32.388721 60.354456 C 33.996734 59.47226 35.662955 58.845454 37.14657 58.037801 C 37.886413 57.635515 38.578414 57.188288 39.165051 56.662174 L 39.380542 56.461153 L 39.589315 56.245662 C 39.737938 56.090416 39.895968 55.932046 40.015129 55.784192 C 40.272437 55.492796 40.528767 55.168297 40.771672 54.83748 C 41.744598 53.519114 42.544057 51.975748 43.719295 50.580375 C 44.300694 49.884235 44.965967 49.2384 45.690751 48.667314 C 46.431249 48.094379 47.16865 47.62257 47.924207 47.143892 C 50.943809 45.268617 54.102741 43.602093 57.488997 42.315763 C 58.802219 41.827414 60.172111 41.441334 61.584355 41.157694 L 61.018498 40.95874 L 62.358984 40.106596 C 62.609091 39.947653 62.7836 39.759627 62.892285 39.459607 C 63.00228 39.164515 63.046351 38.79088 63.041113 38.393522 C 63.026055 37.592646 62.852711 36.723877 62.67266 35.848458 C 62.490646 34.969958 62.2855 34.073524 62.148661 33.139579 C 62.017716 32.206867 61.930541 31.228723 62.117139 30.198674 L 62.45717 28.325403 L 63.611104 29.882414 C 64.274344 30.776931 64.836241 31.657424 65.432699 32.523596 C 66.023264 33.387926 66.626162 34.234274 67.27238 35.031453 C 67.919906 35.820008 68.617018 36.578144 69.386979 37.129517 C 69.769341 37.401814 70.171715 37.609881 70.545565 37.701058 C 70.868673 37.772687 71.145029 37.713136 71.427681 37.611141 L 73.279248 34.916215 C 73.414515 34.650614 73.54879 34.386253 73.684908 34.119364 C 74.147146 33.229776 74.6235 32.317685 75.1427 31.482316 C 75.400009 31.06278 75.668732 30.664427 75.95092 30.294792 C 76.210847 29.920228 76.539655 29.594138 76.808748 29.292269 C 77.096148 29.01304 77.36418 28.773969 77.635571 28.574483 L 78.447408 27.392643 L 79.296452 26.156026 L 79.925871 27.501681 C 81.247113 30.328767 82.317102 33.200648 83.481209 36.021574 C 84.644007 38.836961 85.853392 41.635518 87.426705 44.195235 L 87.707825 44.651538 L 88.040621 45.126961 C 88.259955 45.457785 88.486912 45.743419 88.713448 46.019413 C 89.160621 46.583717 89.6848 47.145421 90.217749 47.674609 C 91.293468 48.739775 92.486359 49.71892 93.719861 50.674426 C 94.954679 51.629933 96.23069 52.564646 97.484489 53.552804 C 98.73633 54.536649 99.970987 55.591575 101.09254 56.741756 C 102.19772 57.861744 103.26767 59.074774 104.25565 60.287793 C 105.25149 61.508821 106.19516 62.760422 107.11439 64.017798 C 108.95418 66.532549 110.69802 69.078016 112.64584 71.440601 C 114.58776 73.801331 116.76544 75.968618 119.32347 77.651074 C 121.87035 79.344613 124.77566 80.516391 127.81752 81.232251 L 128.47588 81.386764 L 128.48673 82.014632 C 128.49393 82.450186 128.78175 82.881537 129.29702 83.270886 C 129.45519 83.392588 129.69049 83.465978 129.87476 83.57371 A 66.145836 66.145836 0 0 0 132.29167 66.145833 A 66.145836 66.145836 0 0 0 66.145833 0 z M 51.562744 85.793213 C 51.562017 85.821804 51.531919 85.855898 51.541557 85.880546 L 51.655245 85.798381 C 51.634123 85.798652 51.58708 85.793558 51.562744 85.793213 z " /></g></svg>
