<?xml version="1.0" encoding="UTF-8" standalone="no"?>
<!-- Created with Inkscape (http://www.inkscape.org/) -->

<svg
   width="500"
   height="500"
   viewBox="0 0 132.29166 132.29167"
   version="1.1"
   id="svg1"
   inkscape:version="1.3.2 (091e20e, 2023-11-25, custom)"
   sodipodi:docname="profile_5.svg"
   xml:space="preserve"
   xmlns:inkscape="http://www.inkscape.org/namespaces/inkscape"
   xmlns:sodipodi="http://sodipodi.sourceforge.net/DTD/sodipodi-0.dtd"
   xmlns="http://www.w3.org/2000/svg"
   xmlns:svg="http://www.w3.org/2000/svg"><sodipodi:namedview
     id="namedview1"
     pagecolor="#000000"
     bordercolor="#999999"
     borderopacity="1"
     inkscape:showpageshadow="0"
     inkscape:pageopacity="0"
     inkscape:pagecheckerboard="0"
     inkscape:deskcolor="#d1d1d1"
     inkscape:document-units="mm"
     inkscape:zoom="0.36925856"
     inkscape:cx="616.09946"
     inkscape:cy="597.14255"
     inkscape:window-width="1920"
     inkscape:window-height="1046"
     inkscape:window-x="-11"
     inkscape:window-y="-11"
     inkscape:window-maximized="1"
     inkscape:current-layer="layer1" /><defs
     id="defs1" /><g
     inkscape:label="Capa 1"
     inkscape:groupmode="layer"
     id="layer1"><path
       id="path1"
       style="fill:#ffffff;stroke:none;stroke-width:2.06;stroke-linecap:round;stroke-miterlimit:0;stroke-dasharray:none;paint-order:markers fill stroke"
       d="M 66.145833 0 A 66.145836 66.145836 0 0 0 0 66.145833 A 66.145836 66.145836 0 0 0 1.0598836 77.336365 C 10.452158 72.651335 19.56247 72.361535 35.200952 75.738013 C 39.589634 76.685524 45.023637 76.769303 46.6571 75.914746 C 47.275716 75.59113 48.013336 74.898629 48.29576 74.375822 C 48.794445 73.452748 50.021872 66.703262 49.740116 66.433671 C 49.662922 66.359827 47.275541 66.005738 44.435014 65.646639 C 26.772305 63.413652 16.207292 59.789326 12.296924 54.621989 C 10.771628 52.606521 10.894925 52.362323 13.440523 52.357528 C 17.046092 52.350779 26.468349 51.451832 31.09526 50.673393 C 39.149401 49.31837 41.661076 49.620741 49.410937 52.877393 C 56.299539 55.772245 55.77209 55.701174 57.830062 54.004456 L 59.583443 52.559066 L 58.375765 51.044946 C 55.874361 47.909841 51.270075 41.09161 49.595422 38.042639 C 47.504797 34.236043 45.5601 29.312952 45.024642 26.471769 C 44.258153 22.405173 44.715062 17.363957 46.025614 15.422831 C 46.442997 14.804548 47.15904 15.327911 54.286092 21.463289 C 64.539584 30.289818 65.49001 31.309049 67.894564 36.044828 C 70.308543 40.799788 71.854157 44.865465 72.484981 48.119027 C 72.875907 50.13556 73.017202 50.390191 73.838387 50.560221 C 78.742118 51.575787 83.724277 53.867994 86.601949 56.432731 C 87.778585 57.481507 89.883868 59.954251 91.280216 61.927486 C 92.676565 63.900721 94.475937 66.264193 95.278939 67.179879 C 98.491875 70.844398 99.08401 72.181943 98.063782 73.472001 C 97.789158 73.819308 97.237111 75.045418 96.836983 76.196383 C 95.691926 79.49001 94.589325 80.671201 91.008915 82.441479 C 89.288212 83.29213 87.400118 84.511118 86.813822 85.150358 C 85.191899 86.918541 85.125266 87.464988 85.382902 96.816313 C 85.504666 101.23562 85.462825 101.59566 84.581401 103.7332 C 81.822398 110.42503 74.890188 118.88299 69.098108 122.62352 L 67.293567 123.78883 L 67.281681 126.78554 C 67.276666 128.02517 67.131055 130.04168 66.920463 132.23637 A 66.145836 66.145836 0 0 0 132.29167 66.145833 A 66.145836 66.145836 0 0 0 66.145833 0 z " /></g></svg>
